M48
;GenerationSoftware,Autodesk,EAGLE,9.6.2*%
;CreationDate,2022-10-13T20:22:01Z*%
FMAT,2
ICI,OFF
METRIC,TZ,000.000
T3C0.305
T2C0.700
T1C3.302
%
G90
M71
T1
X60706Y55626
X3810Y16510
X11938Y16510
X20066Y16510
X28194Y16510
X36322Y16510
X44450Y16510
X52578Y16510
X60706Y16510
X3810Y36068
X11938Y36068
X20066Y36068
X28194Y36068
X36322Y36068
X44450Y36068
X52578Y36068
X60706Y36068
X3810Y55626
X11938Y55626
X20066Y55626
X28194Y55626
X36322Y55626
X44450Y55626
X52578Y55626
X60706Y114300
X3810Y75184
X11938Y75184
X20066Y75184
X28194Y75184
X36322Y75184
X44450Y75184
X52578Y75184
X60706Y75184
X3810Y94742
X11938Y94742
X20066Y94742
X28194Y94742
X36322Y94742
X44450Y94742
X52578Y94742
X60706Y94742
X3810Y114300
X11938Y114300
X20066Y114300
X28194Y114300
X36322Y114300
X44450Y114300
X52578Y114300
X60706Y153416
X3810Y133858
X11938Y133858
X20066Y133858
X28194Y133858
X36322Y133858
X44450Y133858
X52578Y133858
X60706Y133858
X3810Y153416
X11938Y153416
X20066Y153416
X28194Y153416
X36322Y153416
X44450Y153416
X52578Y153416
T2
X58166Y150876
X6350Y13970
X1270Y13970
X14478Y13970
X9398Y13970
X22606Y13970
X17526Y13970
X30734Y13970
X25654Y13970
X38862Y13970
X33782Y13970
X46990Y13970
X41910Y13970
X55118Y13970
X50038Y13970
X63246Y13970
X58166Y13970
X6350Y33528
X1270Y33528
X14478Y33528
X9398Y33528
X22606Y33528
X17526Y33528
X30734Y33528
X25654Y33528
X38862Y33528
X33782Y33528
X46990Y33528
X41910Y33528
X55118Y33528
X50038Y33528
X63246Y33528
X58166Y33528
X6350Y53086
X1270Y53086
X14478Y53086
X9398Y53086
X22606Y53086
X17526Y53086
X30734Y53086
X25654Y53086
X38862Y53086
X33782Y53086
X46990Y53086
X41910Y53086
X55118Y53086
X50038Y53086
X63246Y53086
X58166Y53086
X6350Y72644
X1270Y72644
X14478Y72644
X9398Y72644
X22606Y72644
X17526Y72644
X30734Y72644
X25654Y72644
X38862Y72644
X33782Y72644
X46990Y72644
X41910Y72644
X55118Y72644
X50038Y72644
X63246Y72644
X58166Y72644
X6350Y92202
X1270Y92202
X14478Y92202
X9398Y92202
X22606Y92202
X17526Y92202
X30734Y92202
X25654Y92202
X38862Y92202
X33782Y92202
X46990Y92202
X41910Y92202
X55118Y92202
X50038Y92202
X63246Y92202
X58166Y92202
X6350Y111760
X1270Y111760
X14478Y111760
X9398Y111760
X22606Y111760
X17526Y111760
X30734Y111760
X25654Y111760
X38862Y111760
X33782Y111760
X46990Y111760
X41910Y111760
X55118Y111760
X50038Y111760
X63246Y111760
X58166Y111760
X6350Y131318
X1270Y131318
X14478Y131318
X9398Y131318
X22606Y131318
X17526Y131318
X30734Y131318
X25654Y131318
X38862Y131318
X33782Y131318
X46990Y131318
X41910Y131318
X55118Y131318
X50038Y131318
X63246Y131318
X58166Y131318
X6350Y150876
X1270Y150876
X14478Y150876
X9398Y150876
X22606Y150876
X17526Y150876
X30734Y150876
X25654Y150876
X38862Y150876
X33782Y150876
X46990Y150876
X41910Y150876
X55118Y150876
X50038Y150876
X63246Y150876
T3
X59461Y7112
X63754Y5080
X60706Y12319
X59055Y12319
X60071Y3810
X62065Y9144
X59411Y10160
X62484Y3810
X61341Y3810
X61595Y7493
X60706Y10287
X63754Y5842
X63754Y9398
X57658Y9398
X57658Y5842
X63348Y12700
X2032Y23368
X3810Y20193
X5588Y20193
X2032Y20193
X6071Y22377
X3175Y30226
X2261Y28880
X4445Y30226
X2540Y33528
X762Y30607
X2565Y26670
X6858Y24638
X3810Y31877
X2159Y31877
X3175Y23368
X5169Y28702
X2515Y29718
X5588Y23368
X4445Y23368
X4699Y27051
X3810Y29845
X6858Y25400
X6858Y28956
X762Y28956
X762Y25400
X6452Y32258
X10160Y23368
X11938Y20193
X13716Y20193
X10160Y20193
X14199Y22377
X11303Y30226
X10389Y28880
X12573Y30226
X10668Y33528
X8890Y30607
X10693Y26670
X14986Y24638
X11938Y31877
X10287Y31877
X11303Y23368
X13297Y28702
X10643Y29718
X13716Y23368
X12573Y23368
X12827Y27051
X11938Y29845
X14986Y25400
X14986Y28956
X8890Y28956
X8890Y25400
X14580Y32258
X18288Y23368
X20066Y20193
X21844Y20193
X18288Y20193
X22327Y22377
X19431Y30226
X18517Y28880
X20701Y30226
X18796Y33528
X17018Y30607
X18821Y26670
X23114Y24638
X20066Y31877
X18415Y31877
X19431Y23368
X21425Y28702
X18771Y29718
X21844Y23368
X20701Y23368
X20955Y27051
X20066Y29845
X23114Y25400
X23114Y28956
X17018Y28956
X17018Y25400
X22708Y32258
X26416Y23368
X28194Y20193
X29972Y20193
X26416Y20193
X30455Y22377
X27559Y30226
X26645Y28880
X28829Y30226
X26924Y33528
X25146Y30607
X26949Y26670
X31242Y24638
X28194Y31877
X26543Y31877
X27559Y23368
X29553Y28702
X26899Y29718
X29972Y23368
X28829Y23368
X29083Y27051
X28194Y29845
X31242Y25400
X31242Y28956
X25146Y28956
X25146Y25400
X30836Y32258
X34544Y23368
X36322Y20193
X38100Y20193
X34544Y20193
X38583Y22377
X35687Y30226
X34773Y28880
X36957Y30226
X35052Y33528
X33274Y30607
X35077Y26670
X39370Y24638
X36322Y31877
X34671Y31877
X35687Y23368
X37681Y28702
X35027Y29718
X38100Y23368
X36957Y23368
X37211Y27051
X36322Y29845
X39370Y25400
X39370Y28956
X33274Y28956
X33274Y25400
X38964Y32258
X42672Y23368
X44450Y20193
X46228Y20193
X42672Y20193
X46711Y22377
X43815Y30226
X42901Y28880
X45085Y30226
X43180Y33528
X41402Y30607
X43205Y26670
X47498Y24638
X44450Y31877
X42799Y31877
X43815Y23368
X45809Y28702
X43155Y29718
X46228Y23368
X45085Y23368
X45339Y27051
X44450Y29845
X47498Y25400
X47498Y28956
X41402Y28956
X41402Y25400
X47092Y32258
X50800Y23368
X52578Y20193
X54356Y20193
X50800Y20193
X54839Y22377
X51943Y30226
X51029Y28880
X53213Y30226
X51308Y33528
X49530Y30607
X51333Y26670
X55626Y24638
X52578Y31877
X50927Y31877
X51943Y23368
X53937Y28702
X51283Y29718
X54356Y23368
X53213Y23368
X53467Y27051
X52578Y29845
X55626Y25400
X55626Y28956
X49530Y28956
X49530Y25400
X55220Y32258
X58928Y23368
X60706Y20193
X62484Y20193
X58928Y20193
X62967Y22377
X60071Y30226
X59157Y28880
X61341Y30226
X59436Y33528
X57658Y30607
X59461Y26670
X63754Y24638
X60706Y31877
X59055Y31877
X60071Y23368
X62065Y28702
X59411Y29718
X62484Y23368
X61341Y23368
X61595Y27051
X60706Y29845
X63754Y25400
X63754Y28956
X57658Y28956
X57658Y25400
X63348Y32258
X2032Y42926
X3810Y39751
X5588Y39751
X2032Y39751
X6071Y41935
X3175Y49784
X2261Y48438
X4445Y49784
X2540Y53086
X762Y50165
X2565Y46228
X6858Y44196
X3810Y51435
X2159Y51435
X3175Y42926
X5169Y48260
X2515Y49276
X5588Y42926
X4445Y42926
X4699Y46609
X3810Y49403
X6858Y44958
X6858Y48514
X762Y48514
X762Y44958
X6452Y51816
X10160Y42926
X11938Y39751
X13716Y39751
X10160Y39751
X14199Y41935
X11303Y49784
X10389Y48438
X12573Y49784
X10668Y53086
X8890Y50165
X10693Y46228
X14986Y44196
X11938Y51435
X10287Y51435
X11303Y42926
X13297Y48260
X10643Y49276
X13716Y42926
X12573Y42926
X12827Y46609
X11938Y49403
X14986Y44958
X14986Y48514
X8890Y48514
X8890Y44958
X14580Y51816
X18288Y42926
X20066Y39751
X21844Y39751
X18288Y39751
X22327Y41935
X19431Y49784
X18517Y48438
X20701Y49784
X18796Y53086
X17018Y50165
X18821Y46228
X23114Y44196
X20066Y51435
X18415Y51435
X19431Y42926
X21425Y48260
X18771Y49276
X21844Y42926
X20701Y42926
X20955Y46609
X20066Y49403
X23114Y44958
X23114Y48514
X17018Y48514
X17018Y44958
X22708Y51816
X26416Y42926
X28194Y39751
X29972Y39751
X26416Y39751
X30455Y41935
X27559Y49784
X26645Y48438
X28829Y49784
X26924Y53086
X25146Y50165
X26949Y46228
X31242Y44196
X28194Y51435
X26543Y51435
X27559Y42926
X29553Y48260
X26899Y49276
X29972Y42926
X28829Y42926
X29083Y46609
X28194Y49403
X31242Y44958
X31242Y48514
X25146Y48514
X25146Y44958
X30836Y51816
X34544Y42926
X36322Y39751
X38100Y39751
X34544Y39751
X38583Y41935
X35687Y49784
X34773Y48438
X36957Y49784
X35052Y53086
X33274Y50165
X35077Y46228
X39370Y44196
X36322Y51435
X34671Y51435
X35687Y42926
X37681Y48260
X35027Y49276
X38100Y42926
X36957Y42926
X37211Y46609
X36322Y49403
X39370Y44958
X39370Y48514
X33274Y48514
X33274Y44958
X38964Y51816
X42672Y42926
X44450Y39751
X46228Y39751
X42672Y39751
X46711Y41935
X43815Y49784
X42901Y48438
X45085Y49784
X43180Y53086
X41402Y50165
X43205Y46228
X47498Y44196
X44450Y51435
X42799Y51435
X43815Y42926
X45809Y48260
X43155Y49276
X46228Y42926
X45085Y42926
X45339Y46609
X44450Y49403
X47498Y44958
X47498Y48514
X41402Y48514
X41402Y44958
X47092Y51816
X50800Y42926
X52578Y39751
X54356Y39751
X50800Y39751
X54839Y41935
X51943Y49784
X51029Y48438
X53213Y49784
X51308Y53086
X49530Y50165
X51333Y46228
X55626Y44196
X52578Y51435
X50927Y51435
X51943Y42926
X53937Y48260
X51283Y49276
X54356Y42926
X53213Y42926
X53467Y46609
X52578Y49403
X55626Y44958
X55626Y48514
X49530Y48514
X49530Y44958
X55220Y51816
X58928Y42926
X60706Y39751
X62484Y39751
X58928Y39751
X62967Y41935
X60071Y49784
X59157Y48438
X61341Y49784
X59436Y53086
X57658Y50165
X59461Y46228
X63754Y44196
X60706Y51435
X59055Y51435
X60071Y42926
X62065Y48260
X59411Y49276
X62484Y42926
X61341Y42926
X61595Y46609
X60706Y49403
X63754Y44958
X63754Y48514
X57658Y48514
X57658Y44958
X63348Y51816
X2032Y62484
X3810Y59309
X5588Y59309
X2032Y59309
X6071Y61493
X3175Y69342
X2261Y67996
X4445Y69342
X2540Y72644
X762Y69723
X2565Y65786
X6858Y63754
X3810Y70993
X2159Y70993
X3175Y62484
X5169Y67818
X2515Y68834
X5588Y62484
X4445Y62484
X4699Y66167
X3810Y68961
X6858Y64516
X6858Y68072
X762Y68072
X762Y64516
X6452Y71374
X10160Y62484
X11938Y59309
X13716Y59309
X10160Y59309
X14199Y61493
X11303Y69342
X10389Y67996
X12573Y69342
X10668Y72644
X8890Y69723
X10693Y65786
X14986Y63754
X11938Y70993
X10287Y70993
X11303Y62484
X13297Y67818
X10643Y68834
X13716Y62484
X12573Y62484
X12827Y66167
X11938Y68961
X14986Y64516
X14986Y68072
X8890Y68072
X8890Y64516
X14580Y71374
X18288Y62484
X20066Y59309
X21844Y59309
X18288Y59309
X22327Y61493
X19431Y69342
X18517Y67996
X20701Y69342
X18796Y72644
X17018Y69723
X18821Y65786
X23114Y63754
X20066Y70993
X18415Y70993
X19431Y62484
X21425Y67818
X18771Y68834
X21844Y62484
X20701Y62484
X20955Y66167
X20066Y68961
X23114Y64516
X23114Y68072
X17018Y68072
X17018Y64516
X22708Y71374
X26416Y62484
X28194Y59309
X29972Y59309
X26416Y59309
X30455Y61493
X27559Y69342
X26645Y67996
X28829Y69342
X26924Y72644
X25146Y69723
X26949Y65786
X31242Y63754
X28194Y70993
X26543Y70993
X27559Y62484
X29553Y67818
X26899Y68834
X29972Y62484
X28829Y62484
X29083Y66167
X28194Y68961
X31242Y64516
X31242Y68072
X25146Y68072
X25146Y64516
X30836Y71374
X34544Y62484
X36322Y59309
X38100Y59309
X34544Y59309
X38583Y61493
X35687Y69342
X34773Y67996
X36957Y69342
X35052Y72644
X33274Y69723
X35077Y65786
X39370Y63754
X36322Y70993
X34671Y70993
X35687Y62484
X37681Y67818
X35027Y68834
X38100Y62484
X36957Y62484
X37211Y66167
X36322Y68961
X39370Y64516
X39370Y68072
X33274Y68072
X33274Y64516
X38964Y71374
X42672Y62484
X44450Y59309
X46228Y59309
X42672Y59309
X46711Y61493
X43815Y69342
X42901Y67996
X45085Y69342
X43180Y72644
X41402Y69723
X43205Y65786
X47498Y63754
X44450Y70993
X42799Y70993
X43815Y62484
X45809Y67818
X43155Y68834
X46228Y62484
X45085Y62484
X45339Y66167
X44450Y68961
X47498Y64516
X47498Y68072
X41402Y68072
X41402Y64516
X47092Y71374
X50800Y62484
X52578Y59309
X54356Y59309
X50800Y59309
X54839Y61493
X51943Y69342
X51029Y67996
X53213Y69342
X51308Y72644
X49530Y69723
X51333Y65786
X55626Y63754
X52578Y70993
X50927Y70993
X51943Y62484
X53937Y67818
X51283Y68834
X54356Y62484
X53213Y62484
X53467Y66167
X52578Y68961
X55626Y64516
X55626Y68072
X49530Y68072
X49530Y64516
X55220Y71374
X58928Y62484
X60706Y59309
X62484Y59309
X58928Y59309
X62967Y61493
X60071Y69342
X59157Y67996
X61341Y69342
X59436Y72644
X57658Y69723
X59461Y65786
X63754Y63754
X60706Y70993
X59055Y70993
X60071Y62484
X62065Y67818
X59411Y68834
X62484Y62484
X61341Y62484
X61595Y66167
X60706Y68961
X63754Y64516
X63754Y68072
X57658Y68072
X57658Y64516
X63348Y71374
X2032Y82042
X3810Y78867
X5588Y78867
X2032Y78867
X6071Y81051
X3175Y88900
X2261Y87554
X4445Y88900
X2540Y92202
X762Y89281
X2565Y85344
X6858Y83312
X3810Y90551
X2159Y90551
X3175Y82042
X5169Y87376
X2515Y88392
X5588Y82042
X4445Y82042
X4699Y85725
X3810Y88519
X6858Y84074
X6858Y87630
X762Y87630
X762Y84074
X6452Y90932
X10160Y82042
X11938Y78867
X13716Y78867
X10160Y78867
X14199Y81051
X11303Y88900
X10389Y87554
X12573Y88900
X10668Y92202
X8890Y89281
X10693Y85344
X14986Y83312
X11938Y90551
X10287Y90551
X11303Y82042
X13297Y87376
X10643Y88392
X13716Y82042
X12573Y82042
X12827Y85725
X11938Y88519
X14986Y84074
X14986Y87630
X8890Y87630
X8890Y84074
X14580Y90932
X18288Y82042
X20066Y78867
X21844Y78867
X18288Y78867
X22327Y81051
X19431Y88900
X18517Y87554
X20701Y88900
X18796Y92202
X17018Y89281
X18821Y85344
X23114Y83312
X20066Y90551
X18415Y90551
X19431Y82042
X21425Y87376
X18771Y88392
X21844Y82042
X20701Y82042
X20955Y85725
X20066Y88519
X23114Y84074
X23114Y87630
X17018Y87630
X17018Y84074
X22708Y90932
X26416Y82042
X28194Y78867
X29972Y78867
X26416Y78867
X30455Y81051
X27559Y88900
X26645Y87554
X28829Y88900
X26924Y92202
X25146Y89281
X26949Y85344
X31242Y83312
X28194Y90551
X26543Y90551
X27559Y82042
X29553Y87376
X26899Y88392
X29972Y82042
X28829Y82042
X29083Y85725
X28194Y88519
X31242Y84074
X31242Y87630
X25146Y87630
X25146Y84074
X30836Y90932
X34544Y82042
X36322Y78867
X38100Y78867
X34544Y78867
X38583Y81051
X35687Y88900
X34773Y87554
X36957Y88900
X35052Y92202
X33274Y89281
X35077Y85344
X39370Y83312
X36322Y90551
X34671Y90551
X35687Y82042
X37681Y87376
X35027Y88392
X38100Y82042
X36957Y82042
X37211Y85725
X36322Y88519
X39370Y84074
X39370Y87630
X33274Y87630
X33274Y84074
X38964Y90932
X42672Y82042
X44450Y78867
X46228Y78867
X42672Y78867
X46711Y81051
X43815Y88900
X42901Y87554
X45085Y88900
X43180Y92202
X41402Y89281
X43205Y85344
X47498Y83312
X44450Y90551
X42799Y90551
X43815Y82042
X45809Y87376
X43155Y88392
X46228Y82042
X45085Y82042
X45339Y85725
X44450Y88519
X47498Y84074
X47498Y87630
X41402Y87630
X41402Y84074
X47092Y90932
X50800Y82042
X52578Y78867
X54356Y78867
X50800Y78867
X54839Y81051
X51943Y88900
X51029Y87554
X53213Y88900
X51308Y92202
X49530Y89281
X51333Y85344
X55626Y83312
X52578Y90551
X50927Y90551
X51943Y82042
X53937Y87376
X51283Y88392
X54356Y82042
X53213Y82042
X53467Y85725
X52578Y88519
X55626Y84074
X55626Y87630
X49530Y87630
X49530Y84074
X55220Y90932
X58928Y82042
X60706Y78867
X62484Y78867
X58928Y78867
X62967Y81051
X60071Y88900
X59157Y87554
X61341Y88900
X59436Y92202
X57658Y89281
X59461Y85344
X63754Y83312
X60706Y90551
X59055Y90551
X60071Y82042
X62065Y87376
X59411Y88392
X62484Y82042
X61341Y82042
X61595Y85725
X60706Y88519
X63754Y84074
X63754Y87630
X57658Y87630
X57658Y84074
X63348Y90932
X2032Y101600
X3810Y98425
X5588Y98425
X2032Y98425
X6071Y100609
X3175Y108458
X2261Y107112
X4445Y108458
X2540Y111760
X762Y108839
X2565Y104902
X6858Y102870
X3810Y110109
X2159Y110109
X3175Y101600
X5169Y106934
X2515Y107950
X5588Y101600
X4445Y101600
X4699Y105283
X3810Y108077
X6858Y103632
X6858Y107188
X762Y107188
X762Y103632
X6452Y110490
X10160Y101600
X11938Y98425
X13716Y98425
X10160Y98425
X14199Y100609
X11303Y108458
X10389Y107112
X12573Y108458
X10668Y111760
X8890Y108839
X10693Y104902
X14986Y102870
X11938Y110109
X10287Y110109
X11303Y101600
X13297Y106934
X10643Y107950
X13716Y101600
X12573Y101600
X12827Y105283
X11938Y108077
X14986Y103632
X14986Y107188
X8890Y107188
X8890Y103632
X14580Y110490
X18288Y101600
X20066Y98425
X21844Y98425
X18288Y98425
X22327Y100609
X19431Y108458
X18517Y107112
X20701Y108458
X18796Y111760
X17018Y108839
X18821Y104902
X23114Y102870
X20066Y110109
X18415Y110109
X19431Y101600
X21425Y106934
X18771Y107950
X21844Y101600
X20701Y101600
X20955Y105283
X20066Y108077
X23114Y103632
X23114Y107188
X17018Y107188
X17018Y103632
X22708Y110490
X26416Y101600
X28194Y98425
X29972Y98425
X26416Y98425
X30455Y100609
X27559Y108458
X26645Y107112
X28829Y108458
X26924Y111760
X25146Y108839
X26949Y104902
X31242Y102870
X28194Y110109
X26543Y110109
X27559Y101600
X29553Y106934
X26899Y107950
X29972Y101600
X28829Y101600
X29083Y105283
X28194Y108077
X31242Y103632
X31242Y107188
X25146Y107188
X25146Y103632
X30836Y110490
X34544Y101600
X36322Y98425
X38100Y98425
X34544Y98425
X38583Y100609
X35687Y108458
X34773Y107112
X36957Y108458
X35052Y111760
X33274Y108839
X35077Y104902
X39370Y102870
X36322Y110109
X34671Y110109
X35687Y101600
X37681Y106934
X35027Y107950
X38100Y101600
X36957Y101600
X37211Y105283
X36322Y108077
X39370Y103632
X39370Y107188
X33274Y107188
X33274Y103632
X38964Y110490
X42672Y101600
X44450Y98425
X46228Y98425
X42672Y98425
X46711Y100609
X43815Y108458
X42901Y107112
X45085Y108458
X43180Y111760
X41402Y108839
X43205Y104902
X47498Y102870
X44450Y110109
X42799Y110109
X43815Y101600
X45809Y106934
X43155Y107950
X46228Y101600
X45085Y101600
X45339Y105283
X44450Y108077
X47498Y103632
X47498Y107188
X41402Y107188
X41402Y103632
X47092Y110490
X50800Y101600
X52578Y98425
X54356Y98425
X50800Y98425
X54839Y100609
X51943Y108458
X51029Y107112
X53213Y108458
X51308Y111760
X49530Y108839
X51333Y104902
X55626Y102870
X52578Y110109
X50927Y110109
X51943Y101600
X53937Y106934
X51283Y107950
X54356Y101600
X53213Y101600
X53467Y105283
X52578Y108077
X55626Y103632
X55626Y107188
X49530Y107188
X49530Y103632
X55220Y110490
X58928Y101600
X60706Y98425
X62484Y98425
X58928Y98425
X62967Y100609
X60071Y108458
X59157Y107112
X61341Y108458
X59436Y111760
X57658Y108839
X59461Y104902
X63754Y102870
X60706Y110109
X59055Y110109
X60071Y101600
X62065Y106934
X59411Y107950
X62484Y101600
X61341Y101600
X61595Y105283
X60706Y108077
X63754Y103632
X63754Y107188
X57658Y107188
X57658Y103632
X63348Y110490
X2032Y121158
X3810Y117983
X5588Y117983
X2032Y117983
X6071Y120167
X3175Y128016
X2261Y126670
X4445Y128016
X2540Y131318
X762Y128397
X2565Y124460
X6858Y122428
X3810Y129667
X2159Y129667
X3175Y121158
X5169Y126492
X2515Y127508
X5588Y121158
X4445Y121158
X4699Y124841
X3810Y127635
X6858Y123190
X6858Y126746
X762Y126746
X762Y123190
X6452Y130048
X10160Y121158
X11938Y117983
X13716Y117983
X10160Y117983
X14199Y120167
X11303Y128016
X10389Y126670
X12573Y128016
X10668Y131318
X8890Y128397
X10693Y124460
X14986Y122428
X11938Y129667
X10287Y129667
X11303Y121158
X13297Y126492
X10643Y127508
X13716Y121158
X12573Y121158
X12827Y124841
X11938Y127635
X14986Y123190
X14986Y126746
X8890Y126746
X8890Y123190
X14580Y130048
X18288Y121158
X20066Y117983
X21844Y117983
X18288Y117983
X22327Y120167
X19431Y128016
X18517Y126670
X20701Y128016
X18796Y131318
X17018Y128397
X18821Y124460
X23114Y122428
X20066Y129667
X18415Y129667
X19431Y121158
X21425Y126492
X18771Y127508
X21844Y121158
X20701Y121158
X20955Y124841
X20066Y127635
X23114Y123190
X23114Y126746
X17018Y126746
X17018Y123190
X22708Y130048
X26416Y121158
X28194Y117983
X29972Y117983
X26416Y117983
X30455Y120167
X27559Y128016
X26645Y126670
X28829Y128016
X26924Y131318
X25146Y128397
X26949Y124460
X31242Y122428
X28194Y129667
X26543Y129667
X27559Y121158
X29553Y126492
X26899Y127508
X29972Y121158
X28829Y121158
X29083Y124841
X28194Y127635
X31242Y123190
X31242Y126746
X25146Y126746
X25146Y123190
X30836Y130048
X34544Y121158
X36322Y117983
X38100Y117983
X34544Y117983
X38583Y120167
X35687Y128016
X34773Y126670
X36957Y128016
X35052Y131318
X33274Y128397
X35077Y124460
X39370Y122428
X36322Y129667
X34671Y129667
X35687Y121158
X37681Y126492
X35027Y127508
X38100Y121158
X36957Y121158
X37211Y124841
X36322Y127635
X39370Y123190
X39370Y126746
X33274Y126746
X33274Y123190
X38964Y130048
X42672Y121158
X44450Y117983
X46228Y117983
X42672Y117983
X46711Y120167
X43815Y128016
X42901Y126670
X45085Y128016
X43180Y131318
X41402Y128397
X43205Y124460
X47498Y122428
X44450Y129667
X2032Y3810
X43815Y121158
X45809Y126492
X43155Y127508
X46228Y121158
X45085Y121158
X45339Y124841
X44450Y127635
X47498Y123190
X47498Y126746
X41402Y126746
X41402Y123190
X47092Y130048
X50800Y121158
X52578Y117983
X54356Y117983
X50800Y117983
X54839Y120167
X51943Y128016
X51029Y126670
X53213Y128016
X51308Y131318
X49530Y128397
X51333Y124460
X55626Y122428
X52578Y129667
X50927Y129667
X51943Y121158
X53937Y126492
X51283Y127508
X54356Y121158
X53213Y121158
X53467Y124841
X52578Y127635
X55626Y123190
X55626Y126746
X49530Y126746
X49530Y123190
X55220Y130048
X58928Y121158
X60706Y117983
X62484Y117983
X58928Y117983
X62967Y120167
X60071Y128016
X59157Y126670
X61341Y128016
X59436Y131318
X57658Y128397
X59461Y124460
X63754Y122428
X60706Y129667
X59055Y129667
X60071Y121158
X62065Y126492
X59411Y127508
X62484Y121158
X61341Y121158
X61595Y124841
X60706Y127635
X63754Y123190
X63754Y126746
X57658Y126746
X57658Y123190
X63348Y130048
X2032Y140716
X3810Y137541
X5588Y137541
X2032Y137541
X6071Y139725
X3175Y147574
X2261Y146228
X4445Y147574
X2540Y150876
X762Y147955
X2565Y144018
X6858Y141986
X3810Y149225
X2159Y149225
X3175Y140716
X5169Y146050
X2515Y147066
X5588Y140716
X4445Y140716
X4699Y144399
X3810Y147193
X6858Y142748
X6858Y146304
X762Y146304
X762Y142748
X6452Y149606
X10160Y140716
X11938Y137541
X13716Y137541
X10160Y137541
X14199Y139725
X11303Y147574
X10389Y146228
X12573Y147574
X10668Y150876
X8890Y147955
X10693Y144018
X14986Y141986
X11938Y149225
X10287Y149225
X11303Y140716
X13297Y146050
X10643Y147066
X13716Y140716
X12573Y140716
X12827Y144399
X11938Y147193
X14986Y142748
X14986Y146304
X8890Y146304
X8890Y142748
X14580Y149606
X18288Y140716
X20066Y137541
X21844Y137541
X18288Y137541
X22327Y139725
X19431Y147574
X18517Y146228
X20701Y147574
X18796Y150876
X17018Y147955
X18821Y144018
X23114Y141986
X20066Y149225
X18415Y149225
X19431Y140716
X21425Y146050
X18771Y147066
X21844Y140716
X20701Y140716
X20955Y144399
X20066Y147193
X23114Y142748
X23114Y146304
X17018Y146304
X17018Y142748
X22708Y149606
X26416Y140716
X28194Y137541
X29972Y137541
X26416Y137541
X30455Y139725
X27559Y147574
X26645Y146228
X28829Y147574
X26924Y150876
X25146Y147955
X26949Y144018
X31242Y141986
X28194Y149225
X26543Y149225
X27559Y140716
X29553Y146050
X26899Y147066
X29972Y140716
X28829Y140716
X29083Y144399
X28194Y147193
X31242Y142748
X31242Y146304
X25146Y146304
X25146Y142748
X30836Y149606
X34544Y140716
X36322Y137541
X38100Y137541
X34544Y137541
X38583Y139725
X35687Y147574
X34773Y146228
X36957Y147574
X35052Y150876
X33274Y147955
X35077Y144018
X39370Y141986
X36322Y149225
X34671Y149225
X35687Y140716
X37681Y146050
X35027Y147066
X38100Y140716
X36957Y140716
X37211Y144399
X36322Y147193
X39370Y142748
X39370Y146304
X33274Y146304
X33274Y142748
X38964Y149606
X42672Y140716
X44450Y137541
X46228Y137541
X42672Y137541
X46711Y139725
X43815Y147574
X42901Y146228
X45085Y147574
X43180Y150876
X41402Y147955
X43205Y144018
X47498Y141986
X44450Y149225
X42799Y149225
X43815Y140716
X45809Y146050
X43155Y147066
X46228Y140716
X45085Y140716
X45339Y144399
X44450Y147193
X47498Y142748
X47498Y146304
X41402Y146304
X41402Y142748
X47092Y149606
X50800Y140716
X52578Y137541
X54356Y137541
X50800Y137541
X54839Y139725
X51943Y147574
X51029Y146228
X53213Y147574
X51308Y150876
X49530Y147955
X51333Y144018
X42799Y129667
X52578Y149225
X50927Y149225
X51943Y140716
X53937Y146050
X51283Y147066
X54356Y140716
X53213Y140716
X53467Y144399
X52578Y147193
X55626Y142748
X55626Y146304
X49530Y146304
X49530Y142748
X55220Y149606
X58928Y140716
X60706Y137541
X62484Y137541
X58928Y137541
X62967Y139725
X60071Y147574
X59157Y146228
X61341Y147574
X59436Y150876
X57658Y147955
X59461Y144018
X63754Y141986
X60706Y149225
X59055Y149225
X60071Y140716
X62065Y146050
X59411Y147066
X62484Y140716
X61341Y140716
X61595Y144399
X60706Y147193
X63754Y142748
X63754Y146304
X57658Y146304
X57658Y142748
X63348Y149606
X3810Y635
X5588Y635
X2032Y635
X6071Y2819
X3175Y10668
X2261Y9322
X4445Y10668
X2540Y13970
X762Y11049
X2565Y7112
X6858Y5080
X3810Y12319
X2159Y12319
X3175Y3810
X5169Y9144
X2515Y10160
X5588Y3810
X4445Y3810
X4699Y7493
X3810Y10287
X6858Y5842
X6858Y9398
X762Y9398
X762Y5842
X6452Y12700
X10160Y3810
X11938Y635
X13716Y635
X10160Y635
X14199Y2819
X11303Y10668
X10389Y9322
X12573Y10668
X10668Y13970
X8890Y11049
X10693Y7112
X14986Y5080
X11938Y12319
X10287Y12319
X11303Y3810
X13297Y9144
X10643Y10160
X13716Y3810
X12573Y3810
X12827Y7493
X11938Y10287
X14986Y5842
X14986Y9398
X8890Y9398
X8890Y5842
X14580Y12700
X18288Y3810
X20066Y635
X21844Y635
X18288Y635
X22327Y2819
X19431Y10668
X18517Y9322
X20701Y10668
X18796Y13970
X17018Y11049
X18821Y7112
X23114Y5080
X20066Y12319
X18415Y12319
X19431Y3810
X21425Y9144
X18771Y10160
X21844Y3810
X20701Y3810
X20955Y7493
X20066Y10287
X23114Y5842
X23114Y9398
X17018Y9398
X17018Y5842
X22708Y12700
X26416Y3810
X28194Y635
X29972Y635
X26416Y635
X30455Y2819
X27559Y10668
X26645Y9322
X28829Y10668
X26924Y13970
X25146Y11049
X26949Y7112
X31242Y5080
X28194Y12319
X26543Y12319
X27559Y3810
X29553Y9144
X26899Y10160
X29972Y3810
X28829Y3810
X29083Y7493
X28194Y10287
X31242Y5842
X31242Y9398
X25146Y9398
X25146Y5842
X30836Y12700
X34544Y3810
X36322Y635
X38100Y635
X34544Y635
X38583Y2819
X35687Y10668
X34773Y9322
X36957Y10668
X35052Y13970
X33274Y11049
X35077Y7112
X39370Y5080
X36322Y12319
X34671Y12319
X35687Y3810
X37681Y9144
X35027Y10160
X38100Y3810
X36957Y3810
X37211Y7493
X36322Y10287
X39370Y5842
X39370Y9398
X33274Y9398
X33274Y5842
X38964Y12700
X42672Y3810
X44450Y635
X46228Y635
X42672Y635
X46711Y2819
X43815Y10668
X42901Y9322
X45085Y10668
X43180Y13970
X41402Y11049
X43205Y7112
X47498Y5080
X44450Y12319
X42799Y12319
X43815Y3810
X45809Y9144
X43155Y10160
X46228Y3810
X45085Y3810
X45339Y7493
X44450Y10287
X47498Y5842
X47498Y9398
X41402Y9398
X41402Y5842
X47092Y12700
X50800Y3810
X52578Y635
X54356Y635
X50800Y635
X54839Y2819
X51943Y10668
X51029Y9322
X53213Y10668
X51308Y13970
X49530Y11049
X51333Y7112
X55626Y5080
X52578Y12319
X50927Y12319
X51943Y3810
X53937Y9144
X51283Y10160
X54356Y3810
X53213Y3810
X53467Y7493
X52578Y10287
X55626Y5842
X55626Y9398
X49530Y9398
X49530Y5842
X55220Y12700
X58928Y3810
X60706Y635
X62484Y635
X58928Y635
X62967Y2819
X60071Y10668
X59157Y9322
X61341Y10668
X59436Y13970
X57658Y11049
X55626Y141986
M30