M48
;GenerationSoftware,Autodesk,EAGLE,9.6.2*%
;CreationDate,2022-10-13T20:06:27Z*%
FMAT,2
ICI,OFF
METRIC,TZ,000.000
T3C0.305
T2C1.016
T1C3.302
%
G90
M71
T1
X74676Y28448
X152400Y80264
X2540Y22860
X22860Y22860
X22860Y2540
X2540Y2540
X28448Y22860
X48768Y22860
X48768Y2540
X28448Y2540
X54356Y22860
X74676Y22860
X74676Y2540
X54356Y2540
X80264Y22860
X100584Y22860
X100584Y2540
X80264Y2540
X106172Y22860
X126492Y22860
X126492Y2540
X106172Y2540
X132080Y22860
X152400Y22860
X152400Y2540
X132080Y2540
X2540Y48768
X22860Y48768
X22860Y28448
X2540Y28448
X28448Y48768
X48768Y48768
X48768Y28448
X28448Y28448
X54356Y48768
X74676Y48768
X152400Y54356
X54356Y28448
X80264Y48768
X100584Y48768
X100584Y28448
X80264Y28448
X106172Y48768
X126492Y48768
X126492Y28448
X106172Y28448
X132080Y48768
X152400Y48768
X152400Y28448
X132080Y28448
X2540Y74676
X22860Y74676
X22860Y54356
X2540Y54356
X28448Y74676
X48768Y74676
X48768Y54356
X28448Y54356
X54356Y74676
X74676Y74676
X74676Y54356
X54356Y54356
X80264Y74676
X100584Y74676
X100584Y54356
X80264Y54356
X106172Y74676
X126492Y74676
X126492Y54356
X106172Y54356
X132080Y74676
X152400Y74676
X132080Y80264
X132080Y54356
X2540Y100584
X22860Y100584
X22860Y80264
X2540Y80264
X28448Y100584
X48768Y100584
X48768Y80264
X28448Y80264
X54356Y100584
X74676Y100584
X74676Y80264
X54356Y80264
X80264Y100584
X100584Y100584
X100584Y80264
X80264Y80264
X106172Y100584
X126492Y100584
X126492Y80264
X106172Y80264
X132080Y100584
X152400Y100584
T2
X11430Y1270
X140970Y101854
X6350Y1270
X8890Y1270
X13970Y1270
X16510Y1270
X19050Y1270
X13970Y24130
X11430Y24130
X32258Y1270
X34798Y1270
X37338Y1270
X39878Y1270
X42418Y1270
X44958Y1270
X39878Y24130
X37338Y24130
X58166Y1270
X60706Y1270
X63246Y1270
X65786Y1270
X68326Y1270
X70866Y1270
X65786Y24130
X63246Y24130
X84074Y1270
X86614Y1270
X89154Y1270
X91694Y1270
X94234Y1270
X96774Y1270
X91694Y24130
X89154Y24130
X109982Y1270
X112522Y1270
X115062Y1270
X117602Y1270
X120142Y1270
X122682Y1270
X117602Y24130
X115062Y24130
X135890Y1270
X138430Y1270
X140970Y1270
X143510Y1270
X146050Y1270
X148590Y1270
X143510Y24130
X140970Y24130
X6350Y27178
X8890Y27178
X11430Y27178
X13970Y27178
X16510Y27178
X19050Y27178
X13970Y50038
X11430Y50038
X32258Y27178
X34798Y27178
X37338Y27178
X39878Y27178
X42418Y27178
X44958Y27178
X39878Y50038
X37338Y50038
X58166Y27178
X60706Y27178
X63246Y27178
X65786Y27178
X68326Y27178
X70866Y27178
X65786Y50038
X63246Y50038
X84074Y27178
X86614Y27178
X89154Y27178
X91694Y27178
X94234Y27178
X96774Y27178
X91694Y50038
X89154Y50038
X109982Y27178
X112522Y27178
X115062Y27178
X117602Y27178
X120142Y27178
X122682Y27178
X117602Y50038
X115062Y50038
X135890Y27178
X138430Y27178
X140970Y27178
X143510Y27178
X146050Y27178
X148590Y27178
X143510Y50038
X140970Y50038
X6350Y53086
X8890Y53086
X11430Y53086
X13970Y53086
X16510Y53086
X19050Y53086
X13970Y75946
X11430Y75946
X32258Y53086
X34798Y53086
X37338Y53086
X39878Y53086
X42418Y53086
X44958Y53086
X39878Y75946
X37338Y75946
X58166Y53086
X60706Y53086
X63246Y53086
X65786Y53086
X68326Y53086
X70866Y53086
X65786Y75946
X63246Y75946
X84074Y53086
X86614Y53086
X89154Y53086
X91694Y53086
X94234Y53086
X96774Y53086
X91694Y75946
X89154Y75946
X109982Y53086
X112522Y53086
X115062Y53086
X117602Y53086
X120142Y53086
X122682Y53086
X117602Y75946
X115062Y75946
X135890Y53086
X138430Y53086
X140970Y53086
X143510Y53086
X146050Y53086
X148590Y53086
X143510Y75946
X140970Y75946
X6350Y78994
X8890Y78994
X11430Y78994
X13970Y78994
X16510Y78994
X19050Y78994
X13970Y101854
X11430Y101854
X32258Y78994
X34798Y78994
X37338Y78994
X39878Y78994
X42418Y78994
X44958Y78994
X39878Y101854
X37338Y101854
X58166Y78994
X60706Y78994
X63246Y78994
X65786Y78994
X68326Y78994
X70866Y78994
X65786Y101854
X63246Y101854
X84074Y78994
X86614Y78994
X89154Y78994
X91694Y78994
X94234Y78994
X96774Y78994
X91694Y101854
X89154Y101854
X109982Y78994
X112522Y78994
X115062Y78994
X117602Y78994
X120142Y78994
X122682Y78994
X117602Y101854
X115062Y101854
X135890Y78994
X138430Y78994
X140970Y78994
X143510Y78994
X146050Y78994
X148590Y78994
X143510Y101854
T3
X133350Y13208
X151130Y12192
X140462Y13462
X137160Y11176
X147320Y14224
X143510Y7620
X135890Y12192
X148590Y13208
X140970Y6350
X147320Y8890
X144158Y11443
X142240Y3429
X140360Y10160
X144120Y10160
X140360Y15240
X144120Y15240
X150495Y19050
X151003Y6350
X3810Y40132
X10922Y38481
X6858Y38862
X16510Y39878
X20320Y36068
X12700Y28448
X17780Y28448
X15240Y28448
X15240Y33528
X10160Y28448
X20320Y28448
X24130Y30988
X1270Y30988
X1270Y46228
X5080Y50038
X20320Y50038
X24003Y46355
X24130Y38608
X1270Y38608
X10160Y48768
X15240Y48768
X11430Y44958
X13970Y44958
X9779Y39878
X18415Y36957
X8890Y34798
X5080Y36068
X8890Y32258
X17780Y33528
X15240Y31623
X17780Y30353
X21336Y34671
X12700Y34798
X3810Y39116
X21590Y38100
X10922Y39370
X7620Y37084
X17780Y40132
X13970Y33528
X6350Y38100
X19050Y39116
X11430Y32258
X17780Y34798
X14618Y37351
X12700Y29337
X10820Y36068
X14580Y36068
X10820Y41148
X14580Y41148
X20955Y44958
X21463Y32258
X29718Y40132
X36830Y38481
X32766Y38862
X42418Y39878
X46228Y36068
X38608Y28448
X43688Y28448
X41148Y28448
X41148Y33528
X36068Y28448
X46228Y28448
X50038Y30988
X27178Y30988
X27178Y46228
X30988Y50038
X46228Y50038
X49911Y46355
X50038Y38608
X27178Y38608
X36068Y48768
X41148Y48768
X37338Y44958
X39878Y44958
X35687Y39878
X44323Y36957
X34798Y34798
X30988Y36068
X34798Y32258
X43688Y33528
X41148Y31623
X43688Y30353
X47244Y34671
X38608Y34798
X29718Y39116
X47498Y38100
X36830Y39370
X33528Y37084
X43688Y40132
X39878Y33528
X32258Y38100
X44958Y39116
X37338Y32258
X43688Y34798
X40526Y37351
X38608Y29337
X36728Y36068
X40488Y36068
X36728Y41148
X40488Y41148
X46863Y44958
X47371Y32258
X55626Y40132
X62738Y38481
X58674Y38862
X68326Y39878
X72136Y36068
X64516Y28448
X69596Y28448
X67056Y28448
X67056Y33528
X61976Y28448
X72136Y28448
X75946Y30988
X53086Y30988
X53086Y46228
X56896Y50038
X72136Y50038
X75819Y46355
X75946Y38608
X53086Y38608
X61976Y48768
X67056Y48768
X63246Y44958
X65786Y44958
X61595Y39878
X70231Y36957
X60706Y34798
X56896Y36068
X60706Y32258
X69596Y33528
X67056Y31623
X69596Y30353
X73152Y34671
X64516Y34798
X55626Y39116
X73406Y38100
X62738Y39370
X59436Y37084
X69596Y40132
X65786Y33528
X58166Y38100
X70866Y39116
X63246Y32258
X69596Y34798
X66434Y37351
X64516Y29337
X62636Y36068
X66396Y36068
X62636Y41148
X66396Y41148
X72771Y44958
X73279Y32258
X81534Y40132
X88646Y38481
X84582Y38862
X94234Y39878
X98044Y36068
X90424Y28448
X95504Y28448
X92964Y28448
X92964Y33528
X87884Y28448
X98044Y28448
X101854Y30988
X78994Y30988
X78994Y46228
X82804Y50038
X98044Y50038
X101727Y46355
X101854Y38608
X78994Y38608
X87884Y48768
X92964Y48768
X89154Y44958
X91694Y44958
X87503Y39878
X96139Y36957
X86614Y34798
X82804Y36068
X86614Y32258
X95504Y33528
X92964Y31623
X95504Y30353
X99060Y34671
X90424Y34798
X81534Y39116
X99314Y38100
X88646Y39370
X85344Y37084
X95504Y40132
X91694Y33528
X84074Y38100
X96774Y39116
X89154Y32258
X95504Y34798
X92342Y37351
X90424Y29337
X88544Y36068
X92304Y36068
X88544Y41148
X92304Y41148
X98679Y44958
X99187Y32258
X107442Y40132
X114554Y38481
X110490Y38862
X120142Y39878
X123952Y36068
X116332Y28448
X121412Y28448
X118872Y28448
X118872Y33528
X113792Y28448
X123952Y28448
X127762Y30988
X104902Y30988
X104902Y46228
X108712Y50038
X123952Y50038
X127635Y46355
X127762Y38608
X104902Y38608
X113792Y48768
X118872Y48768
X115062Y44958
X117602Y44958
X113411Y39878
X122047Y36957
X112522Y34798
X108712Y36068
X112522Y32258
X121412Y33528
X118872Y31623
X121412Y30353
X124968Y34671
X116332Y34798
X107442Y39116
X125222Y38100
X114554Y39370
X111252Y37084
X121412Y40132
X117602Y33528
X109982Y38100
X122682Y39116
X115062Y32258
X121412Y34798
X118250Y37351
X116332Y29337
X114452Y36068
X118212Y36068
X114452Y41148
X118212Y41148
X124587Y44958
X125095Y32258
X133350Y40132
X140462Y38481
X136398Y38862
X146050Y39878
X149860Y36068
X142240Y28448
X147320Y28448
X144780Y28448
X144780Y33528
X139700Y28448
X149860Y28448
X153670Y30988
X130810Y30988
X130810Y46228
X134620Y50038
X149860Y50038
X153543Y46355
X153670Y38608
X130810Y38608
X139700Y48768
X144780Y48768
X140970Y44958
X143510Y44958
X139319Y39878
X147955Y36957
X138430Y34798
X134620Y36068
X138430Y32258
X147320Y33528
X144780Y31623
X147320Y30353
X150876Y34671
X142240Y34798
X133350Y39116
X151130Y38100
X140462Y39370
X137160Y37084
X147320Y40132
X143510Y33528
X135890Y38100
X148590Y39116
X140970Y32258
X147320Y34798
X144158Y37351
X142240Y29337
X140360Y36068
X144120Y36068
X140360Y41148
X144120Y41148
X150495Y44958
X151003Y32258
X3810Y66040
X10922Y64389
X6858Y64770
X16510Y65786
X20320Y61976
X12700Y54356
X17780Y54356
X15240Y54356
X15240Y59436
X10160Y54356
X20320Y54356
X24130Y56896
X1270Y56896
X1270Y72136
X5080Y75946
X20320Y75946
X24003Y72263
X24130Y64516
X1270Y64516
X10160Y74676
X15240Y74676
X11430Y70866
X13970Y70866
X9779Y65786
X18415Y62865
X8890Y60706
X5080Y61976
X8890Y58166
X17780Y59436
X15240Y57531
X17780Y56261
X21336Y60579
X12700Y60706
X3810Y65024
X21590Y64008
X10922Y65278
X7620Y62992
X17780Y66040
X13970Y59436
X6350Y64008
X19050Y65024
X11430Y58166
X17780Y60706
X14618Y63259
X12700Y55245
X10820Y61976
X14580Y61976
X10820Y67056
X14580Y67056
X20955Y70866
X21463Y58166
X29718Y66040
X36830Y64389
X32766Y64770
X42418Y65786
X46228Y61976
X38608Y54356
X43688Y54356
X41148Y54356
X41148Y59436
X36068Y54356
X46228Y54356
X50038Y56896
X27178Y56896
X27178Y72136
X30988Y75946
X46228Y75946
X49911Y72263
X50038Y64516
X27178Y64516
X36068Y74676
X41148Y74676
X37338Y70866
X39878Y70866
X35687Y65786
X44323Y62865
X34798Y60706
X30988Y61976
X34798Y58166
X43688Y59436
X41148Y57531
X43688Y56261
X47244Y60579
X38608Y60706
X29718Y65024
X47498Y64008
X36830Y65278
X33528Y62992
X43688Y66040
X39878Y59436
X32258Y64008
X44958Y65024
X37338Y58166
X43688Y60706
X40526Y63259
X38608Y55245
X36728Y61976
X40488Y61976
X36728Y67056
X40488Y67056
X46863Y70866
X47371Y58166
X55626Y66040
X62738Y64389
X58674Y64770
X68326Y65786
X72136Y61976
X64516Y54356
X69596Y54356
X67056Y54356
X67056Y59436
X61976Y54356
X72136Y54356
X75946Y56896
X53086Y56896
X53086Y72136
X56896Y75946
X72136Y75946
X75819Y72263
X75946Y64516
X53086Y64516
X61976Y74676
X67056Y74676
X63246Y70866
X65786Y70866
X61595Y65786
X70231Y62865
X60706Y60706
X56896Y61976
X60706Y58166
X69596Y59436
X67056Y57531
X69596Y56261
X73152Y60579
X64516Y60706
X55626Y65024
X73406Y64008
X62738Y65278
X59436Y62992
X69596Y66040
X65786Y59436
X58166Y64008
X70866Y65024
X63246Y58166
X85344Y11176
X66434Y63259
X64516Y55245
X62636Y61976
X66396Y61976
X62636Y67056
X66396Y67056
X72771Y70866
X73279Y58166
X81534Y66040
X88646Y64389
X84582Y64770
X94234Y65786
X98044Y61976
X90424Y54356
X95504Y54356
X92964Y54356
X92964Y59436
X87884Y54356
X98044Y54356
X101854Y56896
X78994Y56896
X78994Y72136
X82804Y75946
X98044Y75946
X101727Y72263
X101854Y64516
X78994Y64516
X87884Y74676
X92964Y74676
X89154Y70866
X91694Y70866
X87503Y65786
X96139Y62865
X86614Y60706
X82804Y61976
X86614Y58166
X95504Y59436
X92964Y57531
X95504Y56261
X99060Y60579
X90424Y60706
X81534Y65024
X99314Y64008
X88646Y65278
X85344Y62992
X95504Y66040
X91694Y59436
X84074Y64008
X96774Y65024
X89154Y58166
X95504Y60706
X92342Y63259
X90424Y55245
X88544Y61976
X92304Y61976
X88544Y67056
X92304Y67056
X98679Y70866
X99187Y58166
X107442Y66040
X114554Y64389
X110490Y64770
X120142Y65786
X123952Y61976
X116332Y54356
X121412Y54356
X118872Y54356
X118872Y59436
X113792Y54356
X123952Y54356
X127762Y56896
X104902Y56896
X104902Y72136
X108712Y75946
X123952Y75946
X127635Y72263
X127762Y64516
X104902Y64516
X113792Y74676
X118872Y74676
X115062Y70866
X117602Y70866
X113411Y65786
X122047Y62865
X112522Y60706
X108712Y61976
X112522Y58166
X121412Y59436
X118872Y57531
X121412Y56261
X124968Y60579
X116332Y60706
X107442Y65024
X125222Y64008
X114554Y65278
X111252Y62992
X121412Y66040
X117602Y59436
X109982Y64008
X122682Y65024
X115062Y58166
X121412Y60706
X118250Y63259
X116332Y55245
X114452Y61976
X118212Y61976
X114452Y67056
X118212Y67056
X124587Y70866
X125095Y58166
X133350Y66040
X140462Y64389
X136398Y64770
X146050Y65786
X149860Y61976
X142240Y54356
X147320Y54356
X144780Y54356
X144780Y59436
X139700Y54356
X149860Y54356
X153670Y56896
X130810Y56896
X130810Y72136
X134620Y75946
X149860Y75946
X153543Y72263
X153670Y64516
X130810Y64516
X139700Y74676
X144780Y74676
X140970Y70866
X143510Y70866
X139319Y65786
X147955Y62865
X138430Y60706
X134620Y61976
X138430Y58166
X147320Y59436
X144780Y57531
X147320Y56261
X150876Y60579
X142240Y60706
X133350Y65024
X151130Y64008
X140462Y65278
X137160Y62992
X147320Y66040
X143510Y59436
X135890Y64008
X148590Y65024
X140970Y58166
X147320Y60706
X144158Y63259
X142240Y55245
X140360Y61976
X144120Y61976
X140360Y67056
X144120Y67056
X150495Y70866
X151003Y58166
X3810Y91948
X10922Y90297
X6858Y90678
X16510Y91694
X20320Y87884
X12700Y80264
X17780Y80264
X15240Y80264
X15240Y85344
X10160Y80264
X20320Y80264
X24130Y82804
X1270Y82804
X1270Y98044
X5080Y101854
X20320Y101854
X24003Y98171
X24130Y90424
X1270Y90424
X10160Y100584
X15240Y100584
X11430Y96774
X13970Y96774
X9779Y91694
X18415Y88773
X8890Y86614
X5080Y87884
X8890Y84074
X17780Y85344
X15240Y83439
X17780Y82169
X21336Y86487
X12700Y86614
X3810Y90932
X21590Y89916
X10922Y91186
X7620Y88900
X17780Y91948
X13970Y85344
X6350Y89916
X19050Y90932
X11430Y84074
X17780Y86614
X14618Y89167
X12700Y81153
X10820Y87884
X14580Y87884
X10820Y92964
X14580Y92964
X20955Y96774
X21463Y84074
X29718Y91948
X36830Y90297
X32766Y90678
X42418Y91694
X46228Y87884
X38608Y80264
X43688Y80264
X41148Y80264
X41148Y85344
X36068Y80264
X46228Y80264
X50038Y82804
X27178Y82804
X27178Y98044
X30988Y101854
X46228Y101854
X49911Y98171
X50038Y90424
X27178Y90424
X36068Y100584
X41148Y100584
X37338Y96774
X39878Y96774
X35687Y91694
X44323Y88773
X34798Y86614
X30988Y87884
X34798Y84074
X43688Y85344
X41148Y83439
X43688Y82169
X47244Y86487
X38608Y86614
X29718Y90932
X47498Y89916
X36830Y91186
X33528Y88900
X43688Y91948
X39878Y85344
X32258Y89916
X44958Y90932
X37338Y84074
X43688Y86614
X40526Y89167
X38608Y81153
X36728Y87884
X40488Y87884
X36728Y92964
X40488Y92964
X46863Y96774
X47371Y84074
X55626Y91948
X62738Y90297
X58674Y90678
X68326Y91694
X72136Y87884
X64516Y80264
X69596Y80264
X67056Y80264
X67056Y85344
X61976Y80264
X72136Y80264
X75946Y82804
X53086Y82804
X53086Y98044
X56896Y101854
X72136Y101854
X75819Y98171
X75946Y90424
X53086Y90424
X61976Y100584
X67056Y100584
X63246Y96774
X65786Y96774
X61595Y91694
X70231Y88773
X60706Y86614
X56896Y87884
X60706Y84074
X69596Y85344
X67056Y83439
X69596Y82169
X73152Y86487
X64516Y86614
X55626Y90932
X73406Y89916
X62738Y91186
X59436Y88900
X69596Y91948
X65786Y85344
X58166Y89916
X70866Y90932
X63246Y84074
X69596Y86614
X66434Y89167
X64516Y81153
X62636Y87884
X66396Y87884
X62636Y92964
X66396Y92964
X72771Y96774
X73279Y84074
X81534Y91948
X88646Y90297
X84582Y90678
X94234Y91694
X98044Y87884
X90424Y80264
X95504Y80264
X92964Y80264
X92964Y85344
X87884Y80264
X98044Y80264
X101854Y82804
X78994Y82804
X78994Y98044
X82804Y101854
X98044Y101854
X101727Y98171
X101854Y90424
X78994Y90424
X87884Y100584
X92964Y100584
X89154Y96774
X91694Y96774
X87503Y91694
X96139Y88773
X86614Y86614
X82804Y87884
X86614Y84074
X95504Y85344
X92964Y83439
X95504Y82169
X99060Y86487
X90424Y86614
X81534Y90932
X99314Y89916
X88646Y91186
X85344Y88900
X95504Y91948
X91694Y85344
X84074Y89916
X96774Y90932
X89154Y84074
X95504Y86614
X92342Y89167
X90424Y81153
X88544Y87884
X92304Y87884
X88544Y92964
X92304Y92964
X98679Y96774
X99187Y84074
X107442Y91948
X114554Y90297
X110490Y90678
X120142Y91694
X123952Y87884
X116332Y80264
X121412Y80264
X118872Y80264
X118872Y85344
X113792Y80264
X123952Y80264
X3810Y14224
X104902Y82804
X104902Y98044
X108712Y101854
X123952Y101854
X127635Y98171
X127762Y90424
X104902Y90424
X113792Y100584
X118872Y100584
X115062Y96774
X117602Y96774
X113411Y91694
X122047Y88773
X112522Y86614
X108712Y87884
X112522Y84074
X121412Y85344
X118872Y83439
X121412Y82169
X124968Y86487
X116332Y86614
X107442Y90932
X125222Y89916
X114554Y91186
X111252Y88900
X121412Y91948
X117602Y85344
X109982Y89916
X122682Y90932
X115062Y84074
X121412Y86614
X118250Y89167
X116332Y81153
X114452Y87884
X118212Y87884
X114452Y92964
X118212Y92964
X124587Y96774
X125095Y84074
X133350Y91948
X140462Y90297
X136398Y90678
X146050Y91694
X149860Y87884
X142240Y80264
X147320Y80264
X144780Y80264
X144780Y85344
X139700Y80264
X149860Y80264
X153670Y82804
X130810Y82804
X130810Y98044
X134620Y101854
X149860Y101854
X153543Y98171
X153670Y90424
X130810Y90424
X139700Y100584
X144780Y100584
X140970Y96774
X143510Y96774
X139319Y91694
X147955Y88773
X138430Y86614
X134620Y87884
X138430Y84074
X147320Y85344
X144780Y83439
X147320Y82169
X150876Y86487
X142240Y86614
X133350Y90932
X151130Y89916
X140462Y91186
X137160Y88900
X147320Y91948
X143510Y85344
X135890Y89916
X148590Y90932
X140970Y84074
X147320Y86614
X144158Y89167
X142240Y81153
X140360Y87884
X144120Y87884
X140360Y92964
X144120Y92964
X150495Y96774
X151003Y84074
X10922Y12573
X6858Y12954
X16510Y13970
X20320Y10160
X12700Y2540
X17780Y2540
X15240Y2540
X15240Y7620
X10160Y2540
X20320Y2540
X24130Y5080
X1270Y5080
X1270Y20320
X5080Y24130
X20320Y24130
X24003Y20447
X24130Y12700
X1270Y12700
X10160Y22860
X15240Y22860
X11430Y19050
X13970Y19050
X9779Y13970
X18415Y11049
X8890Y8890
X5080Y10160
X8890Y6350
X17780Y7620
X15240Y5715
X17780Y4445
X21336Y8763
X12700Y8890
X3810Y13208
X21590Y12192
X10922Y13462
X7620Y11176
X17780Y14224
X13970Y7620
X6350Y12192
X19050Y13208
X11430Y6350
X17780Y8890
X14618Y11443
X12700Y3429
X10820Y10160
X14580Y10160
X10820Y15240
X14580Y15240
X20955Y19050
X21463Y6350
X29718Y14224
X36830Y12573
X32766Y12954
X42418Y13970
X46228Y10160
X38608Y2540
X43688Y2540
X41148Y2540
X41148Y7620
X36068Y2540
X46228Y2540
X50038Y5080
X27178Y5080
X27178Y20320
X30988Y24130
X46228Y24130
X49911Y20447
X50038Y12700
X27178Y12700
X36068Y22860
X41148Y22860
X37338Y19050
X39878Y19050
X35687Y13970
X44323Y11049
X34798Y8890
X30988Y10160
X34798Y6350
X43688Y7620
X41148Y5715
X43688Y4445
X47244Y8763
X38608Y8890
X29718Y13208
X47498Y12192
X36830Y13462
X33528Y11176
X43688Y14224
X39878Y7620
X32258Y12192
X44958Y13208
X37338Y6350
X43688Y8890
X40526Y11443
X38608Y3429
X36728Y10160
X40488Y10160
X36728Y15240
X69596Y60706
X40488Y15240
X46863Y19050
X47371Y6350
X55626Y14224
X62738Y12573
X58674Y12954
X68326Y13970
X72136Y10160
X64516Y2540
X69596Y2540
X67056Y2540
X67056Y7620
X61976Y2540
X72136Y2540
X75946Y5080
X53086Y5080
X53086Y20320
X56896Y24130
X72136Y24130
X75819Y20447
X75946Y12700
X53086Y12700
X61976Y22860
X67056Y22860
X63246Y19050
X65786Y19050
X61595Y13970
X70231Y11049
X60706Y8890
X56896Y10160
X60706Y6350
X69596Y7620
X67056Y5715
X69596Y4445
X73152Y8763
X64516Y8890
X55626Y13208
X73406Y12192
X62738Y13462
X59436Y11176
X69596Y14224
X65786Y7620
X58166Y12192
X70866Y13208
X63246Y6350
X69596Y8890
X66434Y11443
X64516Y3429
X62636Y10160
X66396Y10160
X62636Y15240
X66396Y15240
X72771Y19050
X73279Y6350
X81534Y14224
X88646Y12573
X84582Y12954
X94234Y13970
X98044Y10160
X90424Y2540
X95504Y2540
X92964Y2540
X92964Y7620
X87884Y2540
X98044Y2540
X101854Y5080
X78994Y5080
X78994Y20320
X82804Y24130
X98044Y24130
X101727Y20447
X101854Y12700
X78994Y12700
X87884Y22860
X92964Y22860
X89154Y19050
X91694Y19050
X87503Y13970
X96139Y11049
X86614Y8890
X82804Y10160
X86614Y6350
X95504Y7620
X92964Y5715
X95504Y4445
X99060Y8763
X90424Y8890
X81534Y13208
X99314Y12192
X88646Y13462
X95504Y14224
X91694Y7620
X84074Y12192
X96774Y13208
X89154Y6350
X95504Y8890
X92342Y11443
X90424Y3429
X88544Y10160
X92304Y10160
X88544Y15240
X92304Y15240
X98679Y19050
X99187Y6350
X107442Y14224
X114554Y12573
X110490Y12954
X120142Y13970
X123952Y10160
X116332Y2540
X121412Y2540
X118872Y2540
X118872Y7620
X113792Y2540
X123952Y2540
X127762Y5080
X104902Y5080
X104902Y20320
X108712Y24130
X123952Y24130
X127635Y20447
X127762Y12700
X104902Y12700
X113792Y22860
X118872Y22860
X115062Y19050
X117602Y19050
X113411Y13970
X122047Y11049
X112522Y8890
X108712Y10160
X112522Y6350
X121412Y7620
X118872Y5715
X121412Y4445
X124968Y8763
X116332Y8890
X107442Y13208
X125222Y12192
X114554Y13462
X111252Y11176
X121412Y14224
X117602Y7620
X109982Y12192
X122682Y13208
X115062Y6350
X121412Y8890
X118250Y11443
X116332Y3429
X114452Y10160
X118212Y10160
X114452Y15240
X118212Y15240
X124587Y19050
X125095Y6350
X133350Y14224
X140462Y12573
X136398Y12954
X146050Y13970
X149860Y10160
X142240Y2540
X147320Y2540
X144780Y2540
X144780Y7620
X139700Y2540
X149860Y2540
X153670Y5080
X130810Y5080
X130810Y20320
X134620Y24130
X149860Y24130
X153543Y20447
X153670Y12700
X130810Y12700
X139700Y22860
X144780Y22860
X140970Y19050
X143510Y19050
X139319Y13970
X147955Y11049
X138430Y8890
X134620Y10160
X138430Y6350
X147320Y7620
X144780Y5715
X147320Y4445
X150876Y8763
X142240Y8890
X127762Y82804
M30