G04 EAGLE Gerber RS-274X export*
G75*
%MOMM*%
%FSLAX34Y34*%
%LPD*%
%INSoldermask Top*%
%IPPOS*%
%AMOC8*
5,1,8,0,0,1.08239X$1,22.5*%
G01*
%ADD10R,0.450000X0.400000*%
%ADD11R,0.400000X0.450000*%
%ADD12C,0.243431*%
%ADD13C,0.255816*%
%ADD14C,1.152400*%
%ADD15C,3.454400*%
%ADD16C,2.032000*%
%ADD17C,0.253525*%
%ADD18C,0.449434*%
%ADD19C,1.270000*%
%ADD20C,1.652400*%


D10*
X134750Y134500D03*
X134750Y129500D03*
X134750Y124500D03*
X134750Y119500D03*
D11*
X129500Y134750D03*
X124500Y134750D03*
D10*
X119250Y119500D03*
X119250Y124500D03*
X119250Y129500D03*
X119250Y134500D03*
D11*
X124500Y119250D03*
X129500Y119250D03*
D12*
X4505Y149455D02*
X4505Y160545D01*
X23595Y160545D01*
X23595Y149455D01*
X4505Y149455D01*
X4505Y151767D02*
X23595Y151767D01*
X23595Y154079D02*
X4505Y154079D01*
X4505Y156391D02*
X23595Y156391D01*
X23595Y158703D02*
X4505Y158703D01*
X4505Y104545D02*
X4505Y93455D01*
X4505Y104545D02*
X23595Y104545D01*
X23595Y93455D01*
X4505Y93455D01*
X4505Y95767D02*
X23595Y95767D01*
X23595Y98079D02*
X4505Y98079D01*
X4505Y100391D02*
X23595Y100391D01*
X23595Y102703D02*
X4505Y102703D01*
D13*
X44567Y139517D02*
X44567Y144483D01*
X57033Y144483D01*
X57033Y139517D01*
X44567Y139517D01*
X44567Y141947D02*
X57033Y141947D01*
X57033Y144377D02*
X44567Y144377D01*
X44567Y134483D02*
X44567Y129517D01*
X44567Y134483D02*
X57033Y134483D01*
X57033Y129517D01*
X44567Y129517D01*
X44567Y131947D02*
X57033Y131947D01*
X57033Y134377D02*
X44567Y134377D01*
X44567Y124483D02*
X44567Y119517D01*
X44567Y124483D02*
X57033Y124483D01*
X57033Y119517D01*
X44567Y119517D01*
X44567Y121947D02*
X57033Y121947D01*
X57033Y124377D02*
X44567Y124377D01*
X44567Y114483D02*
X44567Y109517D01*
X44567Y114483D02*
X57033Y114483D01*
X57033Y109517D01*
X44567Y109517D01*
X44567Y111947D02*
X57033Y111947D01*
X57033Y114377D02*
X44567Y114377D01*
D12*
X249495Y104545D02*
X249495Y93455D01*
X230405Y93455D01*
X230405Y104545D01*
X249495Y104545D01*
X249495Y95767D02*
X230405Y95767D01*
X230405Y98079D02*
X249495Y98079D01*
X249495Y100391D02*
X230405Y100391D01*
X230405Y102703D02*
X249495Y102703D01*
X249495Y149455D02*
X249495Y160545D01*
X249495Y149455D02*
X230405Y149455D01*
X230405Y160545D01*
X249495Y160545D01*
X249495Y151767D02*
X230405Y151767D01*
X230405Y154079D02*
X249495Y154079D01*
X249495Y156391D02*
X230405Y156391D01*
X230405Y158703D02*
X249495Y158703D01*
D13*
X209433Y114483D02*
X209433Y109517D01*
X196967Y109517D01*
X196967Y114483D01*
X209433Y114483D01*
X209433Y111947D02*
X196967Y111947D01*
X196967Y114377D02*
X209433Y114377D01*
X209433Y119517D02*
X209433Y124483D01*
X209433Y119517D02*
X196967Y119517D01*
X196967Y124483D01*
X209433Y124483D01*
X209433Y121947D02*
X196967Y121947D01*
X196967Y124377D02*
X209433Y124377D01*
X209433Y129517D02*
X209433Y134483D01*
X209433Y129517D02*
X196967Y129517D01*
X196967Y134483D01*
X209433Y134483D01*
X209433Y131947D02*
X196967Y131947D01*
X196967Y134377D02*
X209433Y134377D01*
X209433Y139517D02*
X209433Y144483D01*
X209433Y139517D02*
X196967Y139517D01*
X196967Y144483D01*
X209433Y144483D01*
X209433Y141947D02*
X196967Y141947D01*
X196967Y144377D02*
X209433Y144377D01*
D14*
X203200Y215900D03*
X12700Y63500D03*
D15*
X25400Y228600D03*
X228600Y228600D03*
X228600Y25400D03*
X25400Y25400D03*
D16*
X63500Y12700D03*
X88900Y12700D03*
X114300Y12700D03*
X139700Y12700D03*
X165100Y12700D03*
X190500Y12700D03*
X139700Y241300D03*
X114300Y241300D03*
D17*
X151605Y122505D02*
X161595Y122505D01*
X151605Y122505D02*
X151605Y131495D01*
X161595Y131495D01*
X161595Y122505D01*
X161595Y124913D02*
X151605Y124913D01*
X151605Y127321D02*
X161595Y127321D01*
X161595Y129729D02*
X151605Y129729D01*
X168605Y122505D02*
X178595Y122505D01*
X168605Y122505D02*
X168605Y131495D01*
X178595Y131495D01*
X178595Y122505D01*
X178595Y124913D02*
X168605Y124913D01*
X168605Y127321D02*
X178595Y127321D01*
X178595Y129729D02*
X168605Y129729D01*
X102395Y131495D02*
X92405Y131495D01*
X102395Y131495D02*
X102395Y122505D01*
X92405Y122505D01*
X92405Y131495D01*
X92405Y124913D02*
X102395Y124913D01*
X102395Y127321D02*
X92405Y127321D01*
X92405Y129729D02*
X102395Y129729D01*
X85395Y131495D02*
X75405Y131495D01*
X85395Y131495D02*
X85395Y122505D01*
X75405Y122505D01*
X75405Y131495D01*
X75405Y124913D02*
X85395Y124913D01*
X85395Y127321D02*
X75405Y127321D01*
X75405Y129729D02*
X85395Y129729D01*
D18*
X233855Y186985D02*
X233855Y194015D01*
X240885Y194015D01*
X240885Y186985D01*
X233855Y186985D01*
X233855Y191254D02*
X240885Y191254D01*
X216315Y194015D02*
X216315Y186985D01*
X216315Y194015D02*
X223345Y194015D01*
X223345Y186985D01*
X216315Y186985D01*
X216315Y191254D02*
X223345Y191254D01*
D17*
X225095Y166955D02*
X215105Y166955D01*
X215105Y175945D01*
X225095Y175945D01*
X225095Y166955D01*
X225095Y169363D02*
X215105Y169363D01*
X215105Y171771D02*
X225095Y171771D01*
X225095Y174179D02*
X215105Y174179D01*
X232105Y166955D02*
X242095Y166955D01*
X232105Y166955D02*
X232105Y175945D01*
X242095Y175945D01*
X242095Y166955D01*
X242095Y169363D02*
X232105Y169363D01*
X232105Y171771D02*
X242095Y171771D01*
X242095Y174179D02*
X232105Y174179D01*
X85395Y97105D02*
X75405Y97105D01*
X75405Y106095D01*
X85395Y106095D01*
X85395Y97105D01*
X85395Y99513D02*
X75405Y99513D01*
X75405Y101921D02*
X85395Y101921D01*
X85395Y104329D02*
X75405Y104329D01*
X92405Y97105D02*
X102395Y97105D01*
X92405Y97105D02*
X92405Y106095D01*
X102395Y106095D01*
X102395Y97105D01*
X102395Y99513D02*
X92405Y99513D01*
X92405Y101921D02*
X102395Y101921D01*
X102395Y104329D02*
X92405Y104329D01*
X151605Y97105D02*
X161595Y97105D01*
X151605Y97105D02*
X151605Y106095D01*
X161595Y106095D01*
X161595Y97105D01*
X161595Y99513D02*
X151605Y99513D01*
X151605Y101921D02*
X161595Y101921D01*
X161595Y104329D02*
X151605Y104329D01*
X168605Y97105D02*
X178595Y97105D01*
X168605Y97105D02*
X168605Y106095D01*
X178595Y106095D01*
X178595Y97105D01*
X178595Y99513D02*
X168605Y99513D01*
X168605Y101921D02*
X178595Y101921D01*
X178595Y104329D02*
X168605Y104329D01*
X168605Y156895D02*
X178595Y156895D01*
X178595Y147905D01*
X168605Y147905D01*
X168605Y156895D01*
X168605Y150313D02*
X178595Y150313D01*
X178595Y152721D02*
X168605Y152721D01*
X168605Y155129D02*
X178595Y155129D01*
X161595Y156895D02*
X151605Y156895D01*
X161595Y156895D02*
X161595Y147905D01*
X151605Y147905D01*
X151605Y156895D01*
X151605Y150313D02*
X161595Y150313D01*
X161595Y152721D02*
X151605Y152721D01*
X151605Y155129D02*
X161595Y155129D01*
X102395Y156895D02*
X92405Y156895D01*
X102395Y156895D02*
X102395Y147905D01*
X92405Y147905D01*
X92405Y156895D01*
X92405Y150313D02*
X102395Y150313D01*
X102395Y152721D02*
X92405Y152721D01*
X92405Y155129D02*
X102395Y155129D01*
X85395Y156895D02*
X75405Y156895D01*
X85395Y156895D02*
X85395Y147905D01*
X75405Y147905D01*
X75405Y156895D01*
X75405Y150313D02*
X85395Y150313D01*
X85395Y152721D02*
X75405Y152721D01*
X75405Y155129D02*
X85395Y155129D01*
X177005Y59005D02*
X186995Y59005D01*
X177005Y59005D02*
X177005Y67995D01*
X186995Y67995D01*
X186995Y59005D01*
X186995Y61413D02*
X177005Y61413D01*
X177005Y63821D02*
X186995Y63821D01*
X186995Y66229D02*
X177005Y66229D01*
X194005Y59005D02*
X203995Y59005D01*
X194005Y59005D02*
X194005Y67995D01*
X203995Y67995D01*
X203995Y59005D01*
X203995Y61413D02*
X194005Y61413D01*
X194005Y63821D02*
X203995Y63821D01*
X203995Y66229D02*
X194005Y66229D01*
D10*
X393830Y134500D03*
X393830Y129500D03*
X393830Y124500D03*
X393830Y119500D03*
D11*
X388580Y134750D03*
X383580Y134750D03*
D10*
X378330Y119500D03*
X378330Y124500D03*
X378330Y129500D03*
X378330Y134500D03*
D11*
X383580Y119250D03*
X388580Y119250D03*
D12*
X263585Y149455D02*
X263585Y160545D01*
X282675Y160545D01*
X282675Y149455D01*
X263585Y149455D01*
X263585Y151767D02*
X282675Y151767D01*
X282675Y154079D02*
X263585Y154079D01*
X263585Y156391D02*
X282675Y156391D01*
X282675Y158703D02*
X263585Y158703D01*
X263585Y104545D02*
X263585Y93455D01*
X263585Y104545D02*
X282675Y104545D01*
X282675Y93455D01*
X263585Y93455D01*
X263585Y95767D02*
X282675Y95767D01*
X282675Y98079D02*
X263585Y98079D01*
X263585Y100391D02*
X282675Y100391D01*
X282675Y102703D02*
X263585Y102703D01*
D13*
X303647Y139517D02*
X303647Y144483D01*
X316113Y144483D01*
X316113Y139517D01*
X303647Y139517D01*
X303647Y141947D02*
X316113Y141947D01*
X316113Y144377D02*
X303647Y144377D01*
X303647Y134483D02*
X303647Y129517D01*
X303647Y134483D02*
X316113Y134483D01*
X316113Y129517D01*
X303647Y129517D01*
X303647Y131947D02*
X316113Y131947D01*
X316113Y134377D02*
X303647Y134377D01*
X303647Y124483D02*
X303647Y119517D01*
X303647Y124483D02*
X316113Y124483D01*
X316113Y119517D01*
X303647Y119517D01*
X303647Y121947D02*
X316113Y121947D01*
X316113Y124377D02*
X303647Y124377D01*
X303647Y114483D02*
X303647Y109517D01*
X303647Y114483D02*
X316113Y114483D01*
X316113Y109517D01*
X303647Y109517D01*
X303647Y111947D02*
X316113Y111947D01*
X316113Y114377D02*
X303647Y114377D01*
D12*
X508575Y104545D02*
X508575Y93455D01*
X489485Y93455D01*
X489485Y104545D01*
X508575Y104545D01*
X508575Y95767D02*
X489485Y95767D01*
X489485Y98079D02*
X508575Y98079D01*
X508575Y100391D02*
X489485Y100391D01*
X489485Y102703D02*
X508575Y102703D01*
X508575Y149455D02*
X508575Y160545D01*
X508575Y149455D02*
X489485Y149455D01*
X489485Y160545D01*
X508575Y160545D01*
X508575Y151767D02*
X489485Y151767D01*
X489485Y154079D02*
X508575Y154079D01*
X508575Y156391D02*
X489485Y156391D01*
X489485Y158703D02*
X508575Y158703D01*
D13*
X468513Y114483D02*
X468513Y109517D01*
X456047Y109517D01*
X456047Y114483D01*
X468513Y114483D01*
X468513Y111947D02*
X456047Y111947D01*
X456047Y114377D02*
X468513Y114377D01*
X468513Y119517D02*
X468513Y124483D01*
X468513Y119517D02*
X456047Y119517D01*
X456047Y124483D01*
X468513Y124483D01*
X468513Y121947D02*
X456047Y121947D01*
X456047Y124377D02*
X468513Y124377D01*
X468513Y129517D02*
X468513Y134483D01*
X468513Y129517D02*
X456047Y129517D01*
X456047Y134483D01*
X468513Y134483D01*
X468513Y131947D02*
X456047Y131947D01*
X456047Y134377D02*
X468513Y134377D01*
X468513Y139517D02*
X468513Y144483D01*
X468513Y139517D02*
X456047Y139517D01*
X456047Y144483D01*
X468513Y144483D01*
X468513Y141947D02*
X456047Y141947D01*
X456047Y144377D02*
X468513Y144377D01*
D14*
X462280Y215900D03*
X271780Y63500D03*
D15*
X284480Y228600D03*
X487680Y228600D03*
X487680Y25400D03*
X284480Y25400D03*
D16*
X322580Y12700D03*
X347980Y12700D03*
X373380Y12700D03*
X398780Y12700D03*
X424180Y12700D03*
X449580Y12700D03*
X398780Y241300D03*
X373380Y241300D03*
D17*
X410685Y122505D02*
X420675Y122505D01*
X410685Y122505D02*
X410685Y131495D01*
X420675Y131495D01*
X420675Y122505D01*
X420675Y124913D02*
X410685Y124913D01*
X410685Y127321D02*
X420675Y127321D01*
X420675Y129729D02*
X410685Y129729D01*
X427685Y122505D02*
X437675Y122505D01*
X427685Y122505D02*
X427685Y131495D01*
X437675Y131495D01*
X437675Y122505D01*
X437675Y124913D02*
X427685Y124913D01*
X427685Y127321D02*
X437675Y127321D01*
X437675Y129729D02*
X427685Y129729D01*
X361475Y131495D02*
X351485Y131495D01*
X361475Y131495D02*
X361475Y122505D01*
X351485Y122505D01*
X351485Y131495D01*
X351485Y124913D02*
X361475Y124913D01*
X361475Y127321D02*
X351485Y127321D01*
X351485Y129729D02*
X361475Y129729D01*
X344475Y131495D02*
X334485Y131495D01*
X344475Y131495D02*
X344475Y122505D01*
X334485Y122505D01*
X334485Y131495D01*
X334485Y124913D02*
X344475Y124913D01*
X344475Y127321D02*
X334485Y127321D01*
X334485Y129729D02*
X344475Y129729D01*
D18*
X492935Y186985D02*
X492935Y194015D01*
X499965Y194015D01*
X499965Y186985D01*
X492935Y186985D01*
X492935Y191254D02*
X499965Y191254D01*
X475395Y194015D02*
X475395Y186985D01*
X475395Y194015D02*
X482425Y194015D01*
X482425Y186985D01*
X475395Y186985D01*
X475395Y191254D02*
X482425Y191254D01*
D17*
X484175Y166955D02*
X474185Y166955D01*
X474185Y175945D01*
X484175Y175945D01*
X484175Y166955D01*
X484175Y169363D02*
X474185Y169363D01*
X474185Y171771D02*
X484175Y171771D01*
X484175Y174179D02*
X474185Y174179D01*
X491185Y166955D02*
X501175Y166955D01*
X491185Y166955D02*
X491185Y175945D01*
X501175Y175945D01*
X501175Y166955D01*
X501175Y169363D02*
X491185Y169363D01*
X491185Y171771D02*
X501175Y171771D01*
X501175Y174179D02*
X491185Y174179D01*
X344475Y97105D02*
X334485Y97105D01*
X334485Y106095D01*
X344475Y106095D01*
X344475Y97105D01*
X344475Y99513D02*
X334485Y99513D01*
X334485Y101921D02*
X344475Y101921D01*
X344475Y104329D02*
X334485Y104329D01*
X351485Y97105D02*
X361475Y97105D01*
X351485Y97105D02*
X351485Y106095D01*
X361475Y106095D01*
X361475Y97105D01*
X361475Y99513D02*
X351485Y99513D01*
X351485Y101921D02*
X361475Y101921D01*
X361475Y104329D02*
X351485Y104329D01*
X410685Y97105D02*
X420675Y97105D01*
X410685Y97105D02*
X410685Y106095D01*
X420675Y106095D01*
X420675Y97105D01*
X420675Y99513D02*
X410685Y99513D01*
X410685Y101921D02*
X420675Y101921D01*
X420675Y104329D02*
X410685Y104329D01*
X427685Y97105D02*
X437675Y97105D01*
X427685Y97105D02*
X427685Y106095D01*
X437675Y106095D01*
X437675Y97105D01*
X437675Y99513D02*
X427685Y99513D01*
X427685Y101921D02*
X437675Y101921D01*
X437675Y104329D02*
X427685Y104329D01*
X427685Y156895D02*
X437675Y156895D01*
X437675Y147905D01*
X427685Y147905D01*
X427685Y156895D01*
X427685Y150313D02*
X437675Y150313D01*
X437675Y152721D02*
X427685Y152721D01*
X427685Y155129D02*
X437675Y155129D01*
X420675Y156895D02*
X410685Y156895D01*
X420675Y156895D02*
X420675Y147905D01*
X410685Y147905D01*
X410685Y156895D01*
X410685Y150313D02*
X420675Y150313D01*
X420675Y152721D02*
X410685Y152721D01*
X410685Y155129D02*
X420675Y155129D01*
X361475Y156895D02*
X351485Y156895D01*
X361475Y156895D02*
X361475Y147905D01*
X351485Y147905D01*
X351485Y156895D01*
X351485Y150313D02*
X361475Y150313D01*
X361475Y152721D02*
X351485Y152721D01*
X351485Y155129D02*
X361475Y155129D01*
X344475Y156895D02*
X334485Y156895D01*
X344475Y156895D02*
X344475Y147905D01*
X334485Y147905D01*
X334485Y156895D01*
X334485Y150313D02*
X344475Y150313D01*
X344475Y152721D02*
X334485Y152721D01*
X334485Y155129D02*
X344475Y155129D01*
X436085Y59005D02*
X446075Y59005D01*
X436085Y59005D02*
X436085Y67995D01*
X446075Y67995D01*
X446075Y59005D01*
X446075Y61413D02*
X436085Y61413D01*
X436085Y63821D02*
X446075Y63821D01*
X446075Y66229D02*
X436085Y66229D01*
X453085Y59005D02*
X463075Y59005D01*
X453085Y59005D02*
X453085Y67995D01*
X463075Y67995D01*
X463075Y59005D01*
X463075Y61413D02*
X453085Y61413D01*
X453085Y63821D02*
X463075Y63821D01*
X463075Y66229D02*
X453085Y66229D01*
D10*
X652910Y134500D03*
X652910Y129500D03*
X652910Y124500D03*
X652910Y119500D03*
D11*
X647660Y134750D03*
X642660Y134750D03*
D10*
X637410Y119500D03*
X637410Y124500D03*
X637410Y129500D03*
X637410Y134500D03*
D11*
X642660Y119250D03*
X647660Y119250D03*
D12*
X522665Y149455D02*
X522665Y160545D01*
X541755Y160545D01*
X541755Y149455D01*
X522665Y149455D01*
X522665Y151767D02*
X541755Y151767D01*
X541755Y154079D02*
X522665Y154079D01*
X522665Y156391D02*
X541755Y156391D01*
X541755Y158703D02*
X522665Y158703D01*
X522665Y104545D02*
X522665Y93455D01*
X522665Y104545D02*
X541755Y104545D01*
X541755Y93455D01*
X522665Y93455D01*
X522665Y95767D02*
X541755Y95767D01*
X541755Y98079D02*
X522665Y98079D01*
X522665Y100391D02*
X541755Y100391D01*
X541755Y102703D02*
X522665Y102703D01*
D13*
X562727Y139517D02*
X562727Y144483D01*
X575193Y144483D01*
X575193Y139517D01*
X562727Y139517D01*
X562727Y141947D02*
X575193Y141947D01*
X575193Y144377D02*
X562727Y144377D01*
X562727Y134483D02*
X562727Y129517D01*
X562727Y134483D02*
X575193Y134483D01*
X575193Y129517D01*
X562727Y129517D01*
X562727Y131947D02*
X575193Y131947D01*
X575193Y134377D02*
X562727Y134377D01*
X562727Y124483D02*
X562727Y119517D01*
X562727Y124483D02*
X575193Y124483D01*
X575193Y119517D01*
X562727Y119517D01*
X562727Y121947D02*
X575193Y121947D01*
X575193Y124377D02*
X562727Y124377D01*
X562727Y114483D02*
X562727Y109517D01*
X562727Y114483D02*
X575193Y114483D01*
X575193Y109517D01*
X562727Y109517D01*
X562727Y111947D02*
X575193Y111947D01*
X575193Y114377D02*
X562727Y114377D01*
D12*
X767655Y104545D02*
X767655Y93455D01*
X748565Y93455D01*
X748565Y104545D01*
X767655Y104545D01*
X767655Y95767D02*
X748565Y95767D01*
X748565Y98079D02*
X767655Y98079D01*
X767655Y100391D02*
X748565Y100391D01*
X748565Y102703D02*
X767655Y102703D01*
X767655Y149455D02*
X767655Y160545D01*
X767655Y149455D02*
X748565Y149455D01*
X748565Y160545D01*
X767655Y160545D01*
X767655Y151767D02*
X748565Y151767D01*
X748565Y154079D02*
X767655Y154079D01*
X767655Y156391D02*
X748565Y156391D01*
X748565Y158703D02*
X767655Y158703D01*
D13*
X727593Y114483D02*
X727593Y109517D01*
X715127Y109517D01*
X715127Y114483D01*
X727593Y114483D01*
X727593Y111947D02*
X715127Y111947D01*
X715127Y114377D02*
X727593Y114377D01*
X727593Y119517D02*
X727593Y124483D01*
X727593Y119517D02*
X715127Y119517D01*
X715127Y124483D01*
X727593Y124483D01*
X727593Y121947D02*
X715127Y121947D01*
X715127Y124377D02*
X727593Y124377D01*
X727593Y129517D02*
X727593Y134483D01*
X727593Y129517D02*
X715127Y129517D01*
X715127Y134483D01*
X727593Y134483D01*
X727593Y131947D02*
X715127Y131947D01*
X715127Y134377D02*
X727593Y134377D01*
X727593Y139517D02*
X727593Y144483D01*
X727593Y139517D02*
X715127Y139517D01*
X715127Y144483D01*
X727593Y144483D01*
X727593Y141947D02*
X715127Y141947D01*
X715127Y144377D02*
X727593Y144377D01*
D14*
X721360Y215900D03*
X530860Y63500D03*
D15*
X543560Y228600D03*
X746760Y228600D03*
X746760Y25400D03*
X543560Y25400D03*
D16*
X581660Y12700D03*
X607060Y12700D03*
X632460Y12700D03*
X657860Y12700D03*
X683260Y12700D03*
X708660Y12700D03*
X657860Y241300D03*
X632460Y241300D03*
D17*
X669765Y122505D02*
X679755Y122505D01*
X669765Y122505D02*
X669765Y131495D01*
X679755Y131495D01*
X679755Y122505D01*
X679755Y124913D02*
X669765Y124913D01*
X669765Y127321D02*
X679755Y127321D01*
X679755Y129729D02*
X669765Y129729D01*
X686765Y122505D02*
X696755Y122505D01*
X686765Y122505D02*
X686765Y131495D01*
X696755Y131495D01*
X696755Y122505D01*
X696755Y124913D02*
X686765Y124913D01*
X686765Y127321D02*
X696755Y127321D01*
X696755Y129729D02*
X686765Y129729D01*
X620555Y131495D02*
X610565Y131495D01*
X620555Y131495D02*
X620555Y122505D01*
X610565Y122505D01*
X610565Y131495D01*
X610565Y124913D02*
X620555Y124913D01*
X620555Y127321D02*
X610565Y127321D01*
X610565Y129729D02*
X620555Y129729D01*
X603555Y131495D02*
X593565Y131495D01*
X603555Y131495D02*
X603555Y122505D01*
X593565Y122505D01*
X593565Y131495D01*
X593565Y124913D02*
X603555Y124913D01*
X603555Y127321D02*
X593565Y127321D01*
X593565Y129729D02*
X603555Y129729D01*
D18*
X752015Y186985D02*
X752015Y194015D01*
X759045Y194015D01*
X759045Y186985D01*
X752015Y186985D01*
X752015Y191254D02*
X759045Y191254D01*
X734475Y194015D02*
X734475Y186985D01*
X734475Y194015D02*
X741505Y194015D01*
X741505Y186985D01*
X734475Y186985D01*
X734475Y191254D02*
X741505Y191254D01*
D17*
X743255Y166955D02*
X733265Y166955D01*
X733265Y175945D01*
X743255Y175945D01*
X743255Y166955D01*
X743255Y169363D02*
X733265Y169363D01*
X733265Y171771D02*
X743255Y171771D01*
X743255Y174179D02*
X733265Y174179D01*
X750265Y166955D02*
X760255Y166955D01*
X750265Y166955D02*
X750265Y175945D01*
X760255Y175945D01*
X760255Y166955D01*
X760255Y169363D02*
X750265Y169363D01*
X750265Y171771D02*
X760255Y171771D01*
X760255Y174179D02*
X750265Y174179D01*
X603555Y97105D02*
X593565Y97105D01*
X593565Y106095D01*
X603555Y106095D01*
X603555Y97105D01*
X603555Y99513D02*
X593565Y99513D01*
X593565Y101921D02*
X603555Y101921D01*
X603555Y104329D02*
X593565Y104329D01*
X610565Y97105D02*
X620555Y97105D01*
X610565Y97105D02*
X610565Y106095D01*
X620555Y106095D01*
X620555Y97105D01*
X620555Y99513D02*
X610565Y99513D01*
X610565Y101921D02*
X620555Y101921D01*
X620555Y104329D02*
X610565Y104329D01*
X669765Y97105D02*
X679755Y97105D01*
X669765Y97105D02*
X669765Y106095D01*
X679755Y106095D01*
X679755Y97105D01*
X679755Y99513D02*
X669765Y99513D01*
X669765Y101921D02*
X679755Y101921D01*
X679755Y104329D02*
X669765Y104329D01*
X686765Y97105D02*
X696755Y97105D01*
X686765Y97105D02*
X686765Y106095D01*
X696755Y106095D01*
X696755Y97105D01*
X696755Y99513D02*
X686765Y99513D01*
X686765Y101921D02*
X696755Y101921D01*
X696755Y104329D02*
X686765Y104329D01*
X686765Y156895D02*
X696755Y156895D01*
X696755Y147905D01*
X686765Y147905D01*
X686765Y156895D01*
X686765Y150313D02*
X696755Y150313D01*
X696755Y152721D02*
X686765Y152721D01*
X686765Y155129D02*
X696755Y155129D01*
X679755Y156895D02*
X669765Y156895D01*
X679755Y156895D02*
X679755Y147905D01*
X669765Y147905D01*
X669765Y156895D01*
X669765Y150313D02*
X679755Y150313D01*
X679755Y152721D02*
X669765Y152721D01*
X669765Y155129D02*
X679755Y155129D01*
X620555Y156895D02*
X610565Y156895D01*
X620555Y156895D02*
X620555Y147905D01*
X610565Y147905D01*
X610565Y156895D01*
X610565Y150313D02*
X620555Y150313D01*
X620555Y152721D02*
X610565Y152721D01*
X610565Y155129D02*
X620555Y155129D01*
X603555Y156895D02*
X593565Y156895D01*
X603555Y156895D02*
X603555Y147905D01*
X593565Y147905D01*
X593565Y156895D01*
X593565Y150313D02*
X603555Y150313D01*
X603555Y152721D02*
X593565Y152721D01*
X593565Y155129D02*
X603555Y155129D01*
X695165Y59005D02*
X705155Y59005D01*
X695165Y59005D02*
X695165Y67995D01*
X705155Y67995D01*
X705155Y59005D01*
X705155Y61413D02*
X695165Y61413D01*
X695165Y63821D02*
X705155Y63821D01*
X705155Y66229D02*
X695165Y66229D01*
X712165Y59005D02*
X722155Y59005D01*
X712165Y59005D02*
X712165Y67995D01*
X722155Y67995D01*
X722155Y59005D01*
X722155Y61413D02*
X712165Y61413D01*
X712165Y63821D02*
X722155Y63821D01*
X722155Y66229D02*
X712165Y66229D01*
D10*
X911990Y134500D03*
X911990Y129500D03*
X911990Y124500D03*
X911990Y119500D03*
D11*
X906740Y134750D03*
X901740Y134750D03*
D10*
X896490Y119500D03*
X896490Y124500D03*
X896490Y129500D03*
X896490Y134500D03*
D11*
X901740Y119250D03*
X906740Y119250D03*
D12*
X781745Y149455D02*
X781745Y160545D01*
X800835Y160545D01*
X800835Y149455D01*
X781745Y149455D01*
X781745Y151767D02*
X800835Y151767D01*
X800835Y154079D02*
X781745Y154079D01*
X781745Y156391D02*
X800835Y156391D01*
X800835Y158703D02*
X781745Y158703D01*
X781745Y104545D02*
X781745Y93455D01*
X781745Y104545D02*
X800835Y104545D01*
X800835Y93455D01*
X781745Y93455D01*
X781745Y95767D02*
X800835Y95767D01*
X800835Y98079D02*
X781745Y98079D01*
X781745Y100391D02*
X800835Y100391D01*
X800835Y102703D02*
X781745Y102703D01*
D13*
X821807Y139517D02*
X821807Y144483D01*
X834273Y144483D01*
X834273Y139517D01*
X821807Y139517D01*
X821807Y141947D02*
X834273Y141947D01*
X834273Y144377D02*
X821807Y144377D01*
X821807Y134483D02*
X821807Y129517D01*
X821807Y134483D02*
X834273Y134483D01*
X834273Y129517D01*
X821807Y129517D01*
X821807Y131947D02*
X834273Y131947D01*
X834273Y134377D02*
X821807Y134377D01*
X821807Y124483D02*
X821807Y119517D01*
X821807Y124483D02*
X834273Y124483D01*
X834273Y119517D01*
X821807Y119517D01*
X821807Y121947D02*
X834273Y121947D01*
X834273Y124377D02*
X821807Y124377D01*
X821807Y114483D02*
X821807Y109517D01*
X821807Y114483D02*
X834273Y114483D01*
X834273Y109517D01*
X821807Y109517D01*
X821807Y111947D02*
X834273Y111947D01*
X834273Y114377D02*
X821807Y114377D01*
D12*
X1026735Y104545D02*
X1026735Y93455D01*
X1007645Y93455D01*
X1007645Y104545D01*
X1026735Y104545D01*
X1026735Y95767D02*
X1007645Y95767D01*
X1007645Y98079D02*
X1026735Y98079D01*
X1026735Y100391D02*
X1007645Y100391D01*
X1007645Y102703D02*
X1026735Y102703D01*
X1026735Y149455D02*
X1026735Y160545D01*
X1026735Y149455D02*
X1007645Y149455D01*
X1007645Y160545D01*
X1026735Y160545D01*
X1026735Y151767D02*
X1007645Y151767D01*
X1007645Y154079D02*
X1026735Y154079D01*
X1026735Y156391D02*
X1007645Y156391D01*
X1007645Y158703D02*
X1026735Y158703D01*
D13*
X986673Y114483D02*
X986673Y109517D01*
X974207Y109517D01*
X974207Y114483D01*
X986673Y114483D01*
X986673Y111947D02*
X974207Y111947D01*
X974207Y114377D02*
X986673Y114377D01*
X986673Y119517D02*
X986673Y124483D01*
X986673Y119517D02*
X974207Y119517D01*
X974207Y124483D01*
X986673Y124483D01*
X986673Y121947D02*
X974207Y121947D01*
X974207Y124377D02*
X986673Y124377D01*
X986673Y129517D02*
X986673Y134483D01*
X986673Y129517D02*
X974207Y129517D01*
X974207Y134483D01*
X986673Y134483D01*
X986673Y131947D02*
X974207Y131947D01*
X974207Y134377D02*
X986673Y134377D01*
X986673Y139517D02*
X986673Y144483D01*
X986673Y139517D02*
X974207Y139517D01*
X974207Y144483D01*
X986673Y144483D01*
X986673Y141947D02*
X974207Y141947D01*
X974207Y144377D02*
X986673Y144377D01*
D14*
X980440Y215900D03*
X789940Y63500D03*
D15*
X802640Y228600D03*
X1005840Y228600D03*
X1005840Y25400D03*
X802640Y25400D03*
D16*
X840740Y12700D03*
X866140Y12700D03*
X891540Y12700D03*
X916940Y12700D03*
X942340Y12700D03*
X967740Y12700D03*
X916940Y241300D03*
X891540Y241300D03*
D17*
X928845Y122505D02*
X938835Y122505D01*
X928845Y122505D02*
X928845Y131495D01*
X938835Y131495D01*
X938835Y122505D01*
X938835Y124913D02*
X928845Y124913D01*
X928845Y127321D02*
X938835Y127321D01*
X938835Y129729D02*
X928845Y129729D01*
X945845Y122505D02*
X955835Y122505D01*
X945845Y122505D02*
X945845Y131495D01*
X955835Y131495D01*
X955835Y122505D01*
X955835Y124913D02*
X945845Y124913D01*
X945845Y127321D02*
X955835Y127321D01*
X955835Y129729D02*
X945845Y129729D01*
X879635Y131495D02*
X869645Y131495D01*
X879635Y131495D02*
X879635Y122505D01*
X869645Y122505D01*
X869645Y131495D01*
X869645Y124913D02*
X879635Y124913D01*
X879635Y127321D02*
X869645Y127321D01*
X869645Y129729D02*
X879635Y129729D01*
X862635Y131495D02*
X852645Y131495D01*
X862635Y131495D02*
X862635Y122505D01*
X852645Y122505D01*
X852645Y131495D01*
X852645Y124913D02*
X862635Y124913D01*
X862635Y127321D02*
X852645Y127321D01*
X852645Y129729D02*
X862635Y129729D01*
D18*
X1011095Y186985D02*
X1011095Y194015D01*
X1018125Y194015D01*
X1018125Y186985D01*
X1011095Y186985D01*
X1011095Y191254D02*
X1018125Y191254D01*
X993555Y194015D02*
X993555Y186985D01*
X993555Y194015D02*
X1000585Y194015D01*
X1000585Y186985D01*
X993555Y186985D01*
X993555Y191254D02*
X1000585Y191254D01*
D17*
X1002335Y166955D02*
X992345Y166955D01*
X992345Y175945D01*
X1002335Y175945D01*
X1002335Y166955D01*
X1002335Y169363D02*
X992345Y169363D01*
X992345Y171771D02*
X1002335Y171771D01*
X1002335Y174179D02*
X992345Y174179D01*
X1009345Y166955D02*
X1019335Y166955D01*
X1009345Y166955D02*
X1009345Y175945D01*
X1019335Y175945D01*
X1019335Y166955D01*
X1019335Y169363D02*
X1009345Y169363D01*
X1009345Y171771D02*
X1019335Y171771D01*
X1019335Y174179D02*
X1009345Y174179D01*
X862635Y97105D02*
X852645Y97105D01*
X852645Y106095D01*
X862635Y106095D01*
X862635Y97105D01*
X862635Y99513D02*
X852645Y99513D01*
X852645Y101921D02*
X862635Y101921D01*
X862635Y104329D02*
X852645Y104329D01*
X869645Y97105D02*
X879635Y97105D01*
X869645Y97105D02*
X869645Y106095D01*
X879635Y106095D01*
X879635Y97105D01*
X879635Y99513D02*
X869645Y99513D01*
X869645Y101921D02*
X879635Y101921D01*
X879635Y104329D02*
X869645Y104329D01*
X928845Y97105D02*
X938835Y97105D01*
X928845Y97105D02*
X928845Y106095D01*
X938835Y106095D01*
X938835Y97105D01*
X938835Y99513D02*
X928845Y99513D01*
X928845Y101921D02*
X938835Y101921D01*
X938835Y104329D02*
X928845Y104329D01*
X945845Y97105D02*
X955835Y97105D01*
X945845Y97105D02*
X945845Y106095D01*
X955835Y106095D01*
X955835Y97105D01*
X955835Y99513D02*
X945845Y99513D01*
X945845Y101921D02*
X955835Y101921D01*
X955835Y104329D02*
X945845Y104329D01*
X945845Y156895D02*
X955835Y156895D01*
X955835Y147905D01*
X945845Y147905D01*
X945845Y156895D01*
X945845Y150313D02*
X955835Y150313D01*
X955835Y152721D02*
X945845Y152721D01*
X945845Y155129D02*
X955835Y155129D01*
X938835Y156895D02*
X928845Y156895D01*
X938835Y156895D02*
X938835Y147905D01*
X928845Y147905D01*
X928845Y156895D01*
X928845Y150313D02*
X938835Y150313D01*
X938835Y152721D02*
X928845Y152721D01*
X928845Y155129D02*
X938835Y155129D01*
X879635Y156895D02*
X869645Y156895D01*
X879635Y156895D02*
X879635Y147905D01*
X869645Y147905D01*
X869645Y156895D01*
X869645Y150313D02*
X879635Y150313D01*
X879635Y152721D02*
X869645Y152721D01*
X869645Y155129D02*
X879635Y155129D01*
X862635Y156895D02*
X852645Y156895D01*
X862635Y156895D02*
X862635Y147905D01*
X852645Y147905D01*
X852645Y156895D01*
X852645Y150313D02*
X862635Y150313D01*
X862635Y152721D02*
X852645Y152721D01*
X852645Y155129D02*
X862635Y155129D01*
X954245Y59005D02*
X964235Y59005D01*
X954245Y59005D02*
X954245Y67995D01*
X964235Y67995D01*
X964235Y59005D01*
X964235Y61413D02*
X954245Y61413D01*
X954245Y63821D02*
X964235Y63821D01*
X964235Y66229D02*
X954245Y66229D01*
X971245Y59005D02*
X981235Y59005D01*
X971245Y59005D02*
X971245Y67995D01*
X981235Y67995D01*
X981235Y59005D01*
X981235Y61413D02*
X971245Y61413D01*
X971245Y63821D02*
X981235Y63821D01*
X981235Y66229D02*
X971245Y66229D01*
D10*
X1171070Y134500D03*
X1171070Y129500D03*
X1171070Y124500D03*
X1171070Y119500D03*
D11*
X1165820Y134750D03*
X1160820Y134750D03*
D10*
X1155570Y119500D03*
X1155570Y124500D03*
X1155570Y129500D03*
X1155570Y134500D03*
D11*
X1160820Y119250D03*
X1165820Y119250D03*
D12*
X1040825Y149455D02*
X1040825Y160545D01*
X1059915Y160545D01*
X1059915Y149455D01*
X1040825Y149455D01*
X1040825Y151767D02*
X1059915Y151767D01*
X1059915Y154079D02*
X1040825Y154079D01*
X1040825Y156391D02*
X1059915Y156391D01*
X1059915Y158703D02*
X1040825Y158703D01*
X1040825Y104545D02*
X1040825Y93455D01*
X1040825Y104545D02*
X1059915Y104545D01*
X1059915Y93455D01*
X1040825Y93455D01*
X1040825Y95767D02*
X1059915Y95767D01*
X1059915Y98079D02*
X1040825Y98079D01*
X1040825Y100391D02*
X1059915Y100391D01*
X1059915Y102703D02*
X1040825Y102703D01*
D13*
X1080887Y139517D02*
X1080887Y144483D01*
X1093353Y144483D01*
X1093353Y139517D01*
X1080887Y139517D01*
X1080887Y141947D02*
X1093353Y141947D01*
X1093353Y144377D02*
X1080887Y144377D01*
X1080887Y134483D02*
X1080887Y129517D01*
X1080887Y134483D02*
X1093353Y134483D01*
X1093353Y129517D01*
X1080887Y129517D01*
X1080887Y131947D02*
X1093353Y131947D01*
X1093353Y134377D02*
X1080887Y134377D01*
X1080887Y124483D02*
X1080887Y119517D01*
X1080887Y124483D02*
X1093353Y124483D01*
X1093353Y119517D01*
X1080887Y119517D01*
X1080887Y121947D02*
X1093353Y121947D01*
X1093353Y124377D02*
X1080887Y124377D01*
X1080887Y114483D02*
X1080887Y109517D01*
X1080887Y114483D02*
X1093353Y114483D01*
X1093353Y109517D01*
X1080887Y109517D01*
X1080887Y111947D02*
X1093353Y111947D01*
X1093353Y114377D02*
X1080887Y114377D01*
D12*
X1285815Y104545D02*
X1285815Y93455D01*
X1266725Y93455D01*
X1266725Y104545D01*
X1285815Y104545D01*
X1285815Y95767D02*
X1266725Y95767D01*
X1266725Y98079D02*
X1285815Y98079D01*
X1285815Y100391D02*
X1266725Y100391D01*
X1266725Y102703D02*
X1285815Y102703D01*
X1285815Y149455D02*
X1285815Y160545D01*
X1285815Y149455D02*
X1266725Y149455D01*
X1266725Y160545D01*
X1285815Y160545D01*
X1285815Y151767D02*
X1266725Y151767D01*
X1266725Y154079D02*
X1285815Y154079D01*
X1285815Y156391D02*
X1266725Y156391D01*
X1266725Y158703D02*
X1285815Y158703D01*
D13*
X1245753Y114483D02*
X1245753Y109517D01*
X1233287Y109517D01*
X1233287Y114483D01*
X1245753Y114483D01*
X1245753Y111947D02*
X1233287Y111947D01*
X1233287Y114377D02*
X1245753Y114377D01*
X1245753Y119517D02*
X1245753Y124483D01*
X1245753Y119517D02*
X1233287Y119517D01*
X1233287Y124483D01*
X1245753Y124483D01*
X1245753Y121947D02*
X1233287Y121947D01*
X1233287Y124377D02*
X1245753Y124377D01*
X1245753Y129517D02*
X1245753Y134483D01*
X1245753Y129517D02*
X1233287Y129517D01*
X1233287Y134483D01*
X1245753Y134483D01*
X1245753Y131947D02*
X1233287Y131947D01*
X1233287Y134377D02*
X1245753Y134377D01*
X1245753Y139517D02*
X1245753Y144483D01*
X1245753Y139517D02*
X1233287Y139517D01*
X1233287Y144483D01*
X1245753Y144483D01*
X1245753Y141947D02*
X1233287Y141947D01*
X1233287Y144377D02*
X1245753Y144377D01*
D14*
X1239520Y215900D03*
X1049020Y63500D03*
D15*
X1061720Y228600D03*
X1264920Y228600D03*
X1264920Y25400D03*
X1061720Y25400D03*
D16*
X1099820Y12700D03*
X1125220Y12700D03*
X1150620Y12700D03*
X1176020Y12700D03*
X1201420Y12700D03*
X1226820Y12700D03*
X1176020Y241300D03*
X1150620Y241300D03*
D17*
X1187925Y122505D02*
X1197915Y122505D01*
X1187925Y122505D02*
X1187925Y131495D01*
X1197915Y131495D01*
X1197915Y122505D01*
X1197915Y124913D02*
X1187925Y124913D01*
X1187925Y127321D02*
X1197915Y127321D01*
X1197915Y129729D02*
X1187925Y129729D01*
X1204925Y122505D02*
X1214915Y122505D01*
X1204925Y122505D02*
X1204925Y131495D01*
X1214915Y131495D01*
X1214915Y122505D01*
X1214915Y124913D02*
X1204925Y124913D01*
X1204925Y127321D02*
X1214915Y127321D01*
X1214915Y129729D02*
X1204925Y129729D01*
X1138715Y131495D02*
X1128725Y131495D01*
X1138715Y131495D02*
X1138715Y122505D01*
X1128725Y122505D01*
X1128725Y131495D01*
X1128725Y124913D02*
X1138715Y124913D01*
X1138715Y127321D02*
X1128725Y127321D01*
X1128725Y129729D02*
X1138715Y129729D01*
X1121715Y131495D02*
X1111725Y131495D01*
X1121715Y131495D02*
X1121715Y122505D01*
X1111725Y122505D01*
X1111725Y131495D01*
X1111725Y124913D02*
X1121715Y124913D01*
X1121715Y127321D02*
X1111725Y127321D01*
X1111725Y129729D02*
X1121715Y129729D01*
D18*
X1270175Y186985D02*
X1270175Y194015D01*
X1277205Y194015D01*
X1277205Y186985D01*
X1270175Y186985D01*
X1270175Y191254D02*
X1277205Y191254D01*
X1252635Y194015D02*
X1252635Y186985D01*
X1252635Y194015D02*
X1259665Y194015D01*
X1259665Y186985D01*
X1252635Y186985D01*
X1252635Y191254D02*
X1259665Y191254D01*
D17*
X1261415Y166955D02*
X1251425Y166955D01*
X1251425Y175945D01*
X1261415Y175945D01*
X1261415Y166955D01*
X1261415Y169363D02*
X1251425Y169363D01*
X1251425Y171771D02*
X1261415Y171771D01*
X1261415Y174179D02*
X1251425Y174179D01*
X1268425Y166955D02*
X1278415Y166955D01*
X1268425Y166955D02*
X1268425Y175945D01*
X1278415Y175945D01*
X1278415Y166955D01*
X1278415Y169363D02*
X1268425Y169363D01*
X1268425Y171771D02*
X1278415Y171771D01*
X1278415Y174179D02*
X1268425Y174179D01*
X1121715Y97105D02*
X1111725Y97105D01*
X1111725Y106095D01*
X1121715Y106095D01*
X1121715Y97105D01*
X1121715Y99513D02*
X1111725Y99513D01*
X1111725Y101921D02*
X1121715Y101921D01*
X1121715Y104329D02*
X1111725Y104329D01*
X1128725Y97105D02*
X1138715Y97105D01*
X1128725Y97105D02*
X1128725Y106095D01*
X1138715Y106095D01*
X1138715Y97105D01*
X1138715Y99513D02*
X1128725Y99513D01*
X1128725Y101921D02*
X1138715Y101921D01*
X1138715Y104329D02*
X1128725Y104329D01*
X1187925Y97105D02*
X1197915Y97105D01*
X1187925Y97105D02*
X1187925Y106095D01*
X1197915Y106095D01*
X1197915Y97105D01*
X1197915Y99513D02*
X1187925Y99513D01*
X1187925Y101921D02*
X1197915Y101921D01*
X1197915Y104329D02*
X1187925Y104329D01*
X1204925Y97105D02*
X1214915Y97105D01*
X1204925Y97105D02*
X1204925Y106095D01*
X1214915Y106095D01*
X1214915Y97105D01*
X1214915Y99513D02*
X1204925Y99513D01*
X1204925Y101921D02*
X1214915Y101921D01*
X1214915Y104329D02*
X1204925Y104329D01*
X1204925Y156895D02*
X1214915Y156895D01*
X1214915Y147905D01*
X1204925Y147905D01*
X1204925Y156895D01*
X1204925Y150313D02*
X1214915Y150313D01*
X1214915Y152721D02*
X1204925Y152721D01*
X1204925Y155129D02*
X1214915Y155129D01*
X1197915Y156895D02*
X1187925Y156895D01*
X1197915Y156895D02*
X1197915Y147905D01*
X1187925Y147905D01*
X1187925Y156895D01*
X1187925Y150313D02*
X1197915Y150313D01*
X1197915Y152721D02*
X1187925Y152721D01*
X1187925Y155129D02*
X1197915Y155129D01*
X1138715Y156895D02*
X1128725Y156895D01*
X1138715Y156895D02*
X1138715Y147905D01*
X1128725Y147905D01*
X1128725Y156895D01*
X1128725Y150313D02*
X1138715Y150313D01*
X1138715Y152721D02*
X1128725Y152721D01*
X1128725Y155129D02*
X1138715Y155129D01*
X1121715Y156895D02*
X1111725Y156895D01*
X1121715Y156895D02*
X1121715Y147905D01*
X1111725Y147905D01*
X1111725Y156895D01*
X1111725Y150313D02*
X1121715Y150313D01*
X1121715Y152721D02*
X1111725Y152721D01*
X1111725Y155129D02*
X1121715Y155129D01*
X1213325Y59005D02*
X1223315Y59005D01*
X1213325Y59005D02*
X1213325Y67995D01*
X1223315Y67995D01*
X1223315Y59005D01*
X1223315Y61413D02*
X1213325Y61413D01*
X1213325Y63821D02*
X1223315Y63821D01*
X1223315Y66229D02*
X1213325Y66229D01*
X1230325Y59005D02*
X1240315Y59005D01*
X1230325Y59005D02*
X1230325Y67995D01*
X1240315Y67995D01*
X1240315Y59005D01*
X1240315Y61413D02*
X1230325Y61413D01*
X1230325Y63821D02*
X1240315Y63821D01*
X1240315Y66229D02*
X1230325Y66229D01*
D10*
X1430150Y134500D03*
X1430150Y129500D03*
X1430150Y124500D03*
X1430150Y119500D03*
D11*
X1424900Y134750D03*
X1419900Y134750D03*
D10*
X1414650Y119500D03*
X1414650Y124500D03*
X1414650Y129500D03*
X1414650Y134500D03*
D11*
X1419900Y119250D03*
X1424900Y119250D03*
D12*
X1299905Y149455D02*
X1299905Y160545D01*
X1318995Y160545D01*
X1318995Y149455D01*
X1299905Y149455D01*
X1299905Y151767D02*
X1318995Y151767D01*
X1318995Y154079D02*
X1299905Y154079D01*
X1299905Y156391D02*
X1318995Y156391D01*
X1318995Y158703D02*
X1299905Y158703D01*
X1299905Y104545D02*
X1299905Y93455D01*
X1299905Y104545D02*
X1318995Y104545D01*
X1318995Y93455D01*
X1299905Y93455D01*
X1299905Y95767D02*
X1318995Y95767D01*
X1318995Y98079D02*
X1299905Y98079D01*
X1299905Y100391D02*
X1318995Y100391D01*
X1318995Y102703D02*
X1299905Y102703D01*
D13*
X1339967Y139517D02*
X1339967Y144483D01*
X1352433Y144483D01*
X1352433Y139517D01*
X1339967Y139517D01*
X1339967Y141947D02*
X1352433Y141947D01*
X1352433Y144377D02*
X1339967Y144377D01*
X1339967Y134483D02*
X1339967Y129517D01*
X1339967Y134483D02*
X1352433Y134483D01*
X1352433Y129517D01*
X1339967Y129517D01*
X1339967Y131947D02*
X1352433Y131947D01*
X1352433Y134377D02*
X1339967Y134377D01*
X1339967Y124483D02*
X1339967Y119517D01*
X1339967Y124483D02*
X1352433Y124483D01*
X1352433Y119517D01*
X1339967Y119517D01*
X1339967Y121947D02*
X1352433Y121947D01*
X1352433Y124377D02*
X1339967Y124377D01*
X1339967Y114483D02*
X1339967Y109517D01*
X1339967Y114483D02*
X1352433Y114483D01*
X1352433Y109517D01*
X1339967Y109517D01*
X1339967Y111947D02*
X1352433Y111947D01*
X1352433Y114377D02*
X1339967Y114377D01*
D12*
X1544895Y104545D02*
X1544895Y93455D01*
X1525805Y93455D01*
X1525805Y104545D01*
X1544895Y104545D01*
X1544895Y95767D02*
X1525805Y95767D01*
X1525805Y98079D02*
X1544895Y98079D01*
X1544895Y100391D02*
X1525805Y100391D01*
X1525805Y102703D02*
X1544895Y102703D01*
X1544895Y149455D02*
X1544895Y160545D01*
X1544895Y149455D02*
X1525805Y149455D01*
X1525805Y160545D01*
X1544895Y160545D01*
X1544895Y151767D02*
X1525805Y151767D01*
X1525805Y154079D02*
X1544895Y154079D01*
X1544895Y156391D02*
X1525805Y156391D01*
X1525805Y158703D02*
X1544895Y158703D01*
D13*
X1504833Y114483D02*
X1504833Y109517D01*
X1492367Y109517D01*
X1492367Y114483D01*
X1504833Y114483D01*
X1504833Y111947D02*
X1492367Y111947D01*
X1492367Y114377D02*
X1504833Y114377D01*
X1504833Y119517D02*
X1504833Y124483D01*
X1504833Y119517D02*
X1492367Y119517D01*
X1492367Y124483D01*
X1504833Y124483D01*
X1504833Y121947D02*
X1492367Y121947D01*
X1492367Y124377D02*
X1504833Y124377D01*
X1504833Y129517D02*
X1504833Y134483D01*
X1504833Y129517D02*
X1492367Y129517D01*
X1492367Y134483D01*
X1504833Y134483D01*
X1504833Y131947D02*
X1492367Y131947D01*
X1492367Y134377D02*
X1504833Y134377D01*
X1504833Y139517D02*
X1504833Y144483D01*
X1504833Y139517D02*
X1492367Y139517D01*
X1492367Y144483D01*
X1504833Y144483D01*
X1504833Y141947D02*
X1492367Y141947D01*
X1492367Y144377D02*
X1504833Y144377D01*
D14*
X1498600Y215900D03*
X1308100Y63500D03*
D15*
X1320800Y228600D03*
X1524000Y228600D03*
X1524000Y25400D03*
X1320800Y25400D03*
D16*
X1358900Y12700D03*
X1384300Y12700D03*
X1409700Y12700D03*
X1435100Y12700D03*
X1460500Y12700D03*
X1485900Y12700D03*
X1435100Y241300D03*
X1409700Y241300D03*
D17*
X1447005Y122505D02*
X1456995Y122505D01*
X1447005Y122505D02*
X1447005Y131495D01*
X1456995Y131495D01*
X1456995Y122505D01*
X1456995Y124913D02*
X1447005Y124913D01*
X1447005Y127321D02*
X1456995Y127321D01*
X1456995Y129729D02*
X1447005Y129729D01*
X1464005Y122505D02*
X1473995Y122505D01*
X1464005Y122505D02*
X1464005Y131495D01*
X1473995Y131495D01*
X1473995Y122505D01*
X1473995Y124913D02*
X1464005Y124913D01*
X1464005Y127321D02*
X1473995Y127321D01*
X1473995Y129729D02*
X1464005Y129729D01*
X1397795Y131495D02*
X1387805Y131495D01*
X1397795Y131495D02*
X1397795Y122505D01*
X1387805Y122505D01*
X1387805Y131495D01*
X1387805Y124913D02*
X1397795Y124913D01*
X1397795Y127321D02*
X1387805Y127321D01*
X1387805Y129729D02*
X1397795Y129729D01*
X1380795Y131495D02*
X1370805Y131495D01*
X1380795Y131495D02*
X1380795Y122505D01*
X1370805Y122505D01*
X1370805Y131495D01*
X1370805Y124913D02*
X1380795Y124913D01*
X1380795Y127321D02*
X1370805Y127321D01*
X1370805Y129729D02*
X1380795Y129729D01*
D18*
X1529255Y186985D02*
X1529255Y194015D01*
X1536285Y194015D01*
X1536285Y186985D01*
X1529255Y186985D01*
X1529255Y191254D02*
X1536285Y191254D01*
X1511715Y194015D02*
X1511715Y186985D01*
X1511715Y194015D02*
X1518745Y194015D01*
X1518745Y186985D01*
X1511715Y186985D01*
X1511715Y191254D02*
X1518745Y191254D01*
D17*
X1520495Y166955D02*
X1510505Y166955D01*
X1510505Y175945D01*
X1520495Y175945D01*
X1520495Y166955D01*
X1520495Y169363D02*
X1510505Y169363D01*
X1510505Y171771D02*
X1520495Y171771D01*
X1520495Y174179D02*
X1510505Y174179D01*
X1527505Y166955D02*
X1537495Y166955D01*
X1527505Y166955D02*
X1527505Y175945D01*
X1537495Y175945D01*
X1537495Y166955D01*
X1537495Y169363D02*
X1527505Y169363D01*
X1527505Y171771D02*
X1537495Y171771D01*
X1537495Y174179D02*
X1527505Y174179D01*
X1380795Y97105D02*
X1370805Y97105D01*
X1370805Y106095D01*
X1380795Y106095D01*
X1380795Y97105D01*
X1380795Y99513D02*
X1370805Y99513D01*
X1370805Y101921D02*
X1380795Y101921D01*
X1380795Y104329D02*
X1370805Y104329D01*
X1387805Y97105D02*
X1397795Y97105D01*
X1387805Y97105D02*
X1387805Y106095D01*
X1397795Y106095D01*
X1397795Y97105D01*
X1397795Y99513D02*
X1387805Y99513D01*
X1387805Y101921D02*
X1397795Y101921D01*
X1397795Y104329D02*
X1387805Y104329D01*
X1447005Y97105D02*
X1456995Y97105D01*
X1447005Y97105D02*
X1447005Y106095D01*
X1456995Y106095D01*
X1456995Y97105D01*
X1456995Y99513D02*
X1447005Y99513D01*
X1447005Y101921D02*
X1456995Y101921D01*
X1456995Y104329D02*
X1447005Y104329D01*
X1464005Y97105D02*
X1473995Y97105D01*
X1464005Y97105D02*
X1464005Y106095D01*
X1473995Y106095D01*
X1473995Y97105D01*
X1473995Y99513D02*
X1464005Y99513D01*
X1464005Y101921D02*
X1473995Y101921D01*
X1473995Y104329D02*
X1464005Y104329D01*
X1464005Y156895D02*
X1473995Y156895D01*
X1473995Y147905D01*
X1464005Y147905D01*
X1464005Y156895D01*
X1464005Y150313D02*
X1473995Y150313D01*
X1473995Y152721D02*
X1464005Y152721D01*
X1464005Y155129D02*
X1473995Y155129D01*
X1456995Y156895D02*
X1447005Y156895D01*
X1456995Y156895D02*
X1456995Y147905D01*
X1447005Y147905D01*
X1447005Y156895D01*
X1447005Y150313D02*
X1456995Y150313D01*
X1456995Y152721D02*
X1447005Y152721D01*
X1447005Y155129D02*
X1456995Y155129D01*
X1397795Y156895D02*
X1387805Y156895D01*
X1397795Y156895D02*
X1397795Y147905D01*
X1387805Y147905D01*
X1387805Y156895D01*
X1387805Y150313D02*
X1397795Y150313D01*
X1397795Y152721D02*
X1387805Y152721D01*
X1387805Y155129D02*
X1397795Y155129D01*
X1380795Y156895D02*
X1370805Y156895D01*
X1380795Y156895D02*
X1380795Y147905D01*
X1370805Y147905D01*
X1370805Y156895D01*
X1370805Y150313D02*
X1380795Y150313D01*
X1380795Y152721D02*
X1370805Y152721D01*
X1370805Y155129D02*
X1380795Y155129D01*
X1472405Y59005D02*
X1482395Y59005D01*
X1472405Y59005D02*
X1472405Y67995D01*
X1482395Y67995D01*
X1482395Y59005D01*
X1482395Y61413D02*
X1472405Y61413D01*
X1472405Y63821D02*
X1482395Y63821D01*
X1482395Y66229D02*
X1472405Y66229D01*
X1489405Y59005D02*
X1499395Y59005D01*
X1489405Y59005D02*
X1489405Y67995D01*
X1499395Y67995D01*
X1499395Y59005D01*
X1499395Y61413D02*
X1489405Y61413D01*
X1489405Y63821D02*
X1499395Y63821D01*
X1499395Y66229D02*
X1489405Y66229D01*
D10*
X134750Y393580D03*
X134750Y388580D03*
X134750Y383580D03*
X134750Y378580D03*
D11*
X129500Y393830D03*
X124500Y393830D03*
D10*
X119250Y378580D03*
X119250Y383580D03*
X119250Y388580D03*
X119250Y393580D03*
D11*
X124500Y378330D03*
X129500Y378330D03*
D12*
X4505Y408535D02*
X4505Y419625D01*
X23595Y419625D01*
X23595Y408535D01*
X4505Y408535D01*
X4505Y410847D02*
X23595Y410847D01*
X23595Y413159D02*
X4505Y413159D01*
X4505Y415471D02*
X23595Y415471D01*
X23595Y417783D02*
X4505Y417783D01*
X4505Y363625D02*
X4505Y352535D01*
X4505Y363625D02*
X23595Y363625D01*
X23595Y352535D01*
X4505Y352535D01*
X4505Y354847D02*
X23595Y354847D01*
X23595Y357159D02*
X4505Y357159D01*
X4505Y359471D02*
X23595Y359471D01*
X23595Y361783D02*
X4505Y361783D01*
D13*
X44567Y398597D02*
X44567Y403563D01*
X57033Y403563D01*
X57033Y398597D01*
X44567Y398597D01*
X44567Y401027D02*
X57033Y401027D01*
X57033Y403457D02*
X44567Y403457D01*
X44567Y393563D02*
X44567Y388597D01*
X44567Y393563D02*
X57033Y393563D01*
X57033Y388597D01*
X44567Y388597D01*
X44567Y391027D02*
X57033Y391027D01*
X57033Y393457D02*
X44567Y393457D01*
X44567Y383563D02*
X44567Y378597D01*
X44567Y383563D02*
X57033Y383563D01*
X57033Y378597D01*
X44567Y378597D01*
X44567Y381027D02*
X57033Y381027D01*
X57033Y383457D02*
X44567Y383457D01*
X44567Y373563D02*
X44567Y368597D01*
X44567Y373563D02*
X57033Y373563D01*
X57033Y368597D01*
X44567Y368597D01*
X44567Y371027D02*
X57033Y371027D01*
X57033Y373457D02*
X44567Y373457D01*
D12*
X249495Y363625D02*
X249495Y352535D01*
X230405Y352535D01*
X230405Y363625D01*
X249495Y363625D01*
X249495Y354847D02*
X230405Y354847D01*
X230405Y357159D02*
X249495Y357159D01*
X249495Y359471D02*
X230405Y359471D01*
X230405Y361783D02*
X249495Y361783D01*
X249495Y408535D02*
X249495Y419625D01*
X249495Y408535D02*
X230405Y408535D01*
X230405Y419625D01*
X249495Y419625D01*
X249495Y410847D02*
X230405Y410847D01*
X230405Y413159D02*
X249495Y413159D01*
X249495Y415471D02*
X230405Y415471D01*
X230405Y417783D02*
X249495Y417783D01*
D13*
X209433Y373563D02*
X209433Y368597D01*
X196967Y368597D01*
X196967Y373563D01*
X209433Y373563D01*
X209433Y371027D02*
X196967Y371027D01*
X196967Y373457D02*
X209433Y373457D01*
X209433Y378597D02*
X209433Y383563D01*
X209433Y378597D02*
X196967Y378597D01*
X196967Y383563D01*
X209433Y383563D01*
X209433Y381027D02*
X196967Y381027D01*
X196967Y383457D02*
X209433Y383457D01*
X209433Y388597D02*
X209433Y393563D01*
X209433Y388597D02*
X196967Y388597D01*
X196967Y393563D01*
X209433Y393563D01*
X209433Y391027D02*
X196967Y391027D01*
X196967Y393457D02*
X209433Y393457D01*
X209433Y398597D02*
X209433Y403563D01*
X209433Y398597D02*
X196967Y398597D01*
X196967Y403563D01*
X209433Y403563D01*
X209433Y401027D02*
X196967Y401027D01*
X196967Y403457D02*
X209433Y403457D01*
D14*
X203200Y474980D03*
X12700Y322580D03*
D15*
X25400Y487680D03*
X228600Y487680D03*
X228600Y284480D03*
X25400Y284480D03*
D16*
X63500Y271780D03*
X88900Y271780D03*
X114300Y271780D03*
X139700Y271780D03*
X165100Y271780D03*
X190500Y271780D03*
X139700Y500380D03*
X114300Y500380D03*
D17*
X151605Y381585D02*
X161595Y381585D01*
X151605Y381585D02*
X151605Y390575D01*
X161595Y390575D01*
X161595Y381585D01*
X161595Y383993D02*
X151605Y383993D01*
X151605Y386401D02*
X161595Y386401D01*
X161595Y388809D02*
X151605Y388809D01*
X168605Y381585D02*
X178595Y381585D01*
X168605Y381585D02*
X168605Y390575D01*
X178595Y390575D01*
X178595Y381585D01*
X178595Y383993D02*
X168605Y383993D01*
X168605Y386401D02*
X178595Y386401D01*
X178595Y388809D02*
X168605Y388809D01*
X102395Y390575D02*
X92405Y390575D01*
X102395Y390575D02*
X102395Y381585D01*
X92405Y381585D01*
X92405Y390575D01*
X92405Y383993D02*
X102395Y383993D01*
X102395Y386401D02*
X92405Y386401D01*
X92405Y388809D02*
X102395Y388809D01*
X85395Y390575D02*
X75405Y390575D01*
X85395Y390575D02*
X85395Y381585D01*
X75405Y381585D01*
X75405Y390575D01*
X75405Y383993D02*
X85395Y383993D01*
X85395Y386401D02*
X75405Y386401D01*
X75405Y388809D02*
X85395Y388809D01*
D18*
X233855Y446065D02*
X233855Y453095D01*
X240885Y453095D01*
X240885Y446065D01*
X233855Y446065D01*
X233855Y450334D02*
X240885Y450334D01*
X216315Y453095D02*
X216315Y446065D01*
X216315Y453095D02*
X223345Y453095D01*
X223345Y446065D01*
X216315Y446065D01*
X216315Y450334D02*
X223345Y450334D01*
D17*
X225095Y426035D02*
X215105Y426035D01*
X215105Y435025D01*
X225095Y435025D01*
X225095Y426035D01*
X225095Y428443D02*
X215105Y428443D01*
X215105Y430851D02*
X225095Y430851D01*
X225095Y433259D02*
X215105Y433259D01*
X232105Y426035D02*
X242095Y426035D01*
X232105Y426035D02*
X232105Y435025D01*
X242095Y435025D01*
X242095Y426035D01*
X242095Y428443D02*
X232105Y428443D01*
X232105Y430851D02*
X242095Y430851D01*
X242095Y433259D02*
X232105Y433259D01*
X85395Y356185D02*
X75405Y356185D01*
X75405Y365175D01*
X85395Y365175D01*
X85395Y356185D01*
X85395Y358593D02*
X75405Y358593D01*
X75405Y361001D02*
X85395Y361001D01*
X85395Y363409D02*
X75405Y363409D01*
X92405Y356185D02*
X102395Y356185D01*
X92405Y356185D02*
X92405Y365175D01*
X102395Y365175D01*
X102395Y356185D01*
X102395Y358593D02*
X92405Y358593D01*
X92405Y361001D02*
X102395Y361001D01*
X102395Y363409D02*
X92405Y363409D01*
X151605Y356185D02*
X161595Y356185D01*
X151605Y356185D02*
X151605Y365175D01*
X161595Y365175D01*
X161595Y356185D01*
X161595Y358593D02*
X151605Y358593D01*
X151605Y361001D02*
X161595Y361001D01*
X161595Y363409D02*
X151605Y363409D01*
X168605Y356185D02*
X178595Y356185D01*
X168605Y356185D02*
X168605Y365175D01*
X178595Y365175D01*
X178595Y356185D01*
X178595Y358593D02*
X168605Y358593D01*
X168605Y361001D02*
X178595Y361001D01*
X178595Y363409D02*
X168605Y363409D01*
X168605Y415975D02*
X178595Y415975D01*
X178595Y406985D01*
X168605Y406985D01*
X168605Y415975D01*
X168605Y409393D02*
X178595Y409393D01*
X178595Y411801D02*
X168605Y411801D01*
X168605Y414209D02*
X178595Y414209D01*
X161595Y415975D02*
X151605Y415975D01*
X161595Y415975D02*
X161595Y406985D01*
X151605Y406985D01*
X151605Y415975D01*
X151605Y409393D02*
X161595Y409393D01*
X161595Y411801D02*
X151605Y411801D01*
X151605Y414209D02*
X161595Y414209D01*
X102395Y415975D02*
X92405Y415975D01*
X102395Y415975D02*
X102395Y406985D01*
X92405Y406985D01*
X92405Y415975D01*
X92405Y409393D02*
X102395Y409393D01*
X102395Y411801D02*
X92405Y411801D01*
X92405Y414209D02*
X102395Y414209D01*
X85395Y415975D02*
X75405Y415975D01*
X85395Y415975D02*
X85395Y406985D01*
X75405Y406985D01*
X75405Y415975D01*
X75405Y409393D02*
X85395Y409393D01*
X85395Y411801D02*
X75405Y411801D01*
X75405Y414209D02*
X85395Y414209D01*
X177005Y318085D02*
X186995Y318085D01*
X177005Y318085D02*
X177005Y327075D01*
X186995Y327075D01*
X186995Y318085D01*
X186995Y320493D02*
X177005Y320493D01*
X177005Y322901D02*
X186995Y322901D01*
X186995Y325309D02*
X177005Y325309D01*
X194005Y318085D02*
X203995Y318085D01*
X194005Y318085D02*
X194005Y327075D01*
X203995Y327075D01*
X203995Y318085D01*
X203995Y320493D02*
X194005Y320493D01*
X194005Y322901D02*
X203995Y322901D01*
X203995Y325309D02*
X194005Y325309D01*
D10*
X393830Y393580D03*
X393830Y388580D03*
X393830Y383580D03*
X393830Y378580D03*
D11*
X388580Y393830D03*
X383580Y393830D03*
D10*
X378330Y378580D03*
X378330Y383580D03*
X378330Y388580D03*
X378330Y393580D03*
D11*
X383580Y378330D03*
X388580Y378330D03*
D12*
X263585Y408535D02*
X263585Y419625D01*
X282675Y419625D01*
X282675Y408535D01*
X263585Y408535D01*
X263585Y410847D02*
X282675Y410847D01*
X282675Y413159D02*
X263585Y413159D01*
X263585Y415471D02*
X282675Y415471D01*
X282675Y417783D02*
X263585Y417783D01*
X263585Y363625D02*
X263585Y352535D01*
X263585Y363625D02*
X282675Y363625D01*
X282675Y352535D01*
X263585Y352535D01*
X263585Y354847D02*
X282675Y354847D01*
X282675Y357159D02*
X263585Y357159D01*
X263585Y359471D02*
X282675Y359471D01*
X282675Y361783D02*
X263585Y361783D01*
D13*
X303647Y398597D02*
X303647Y403563D01*
X316113Y403563D01*
X316113Y398597D01*
X303647Y398597D01*
X303647Y401027D02*
X316113Y401027D01*
X316113Y403457D02*
X303647Y403457D01*
X303647Y393563D02*
X303647Y388597D01*
X303647Y393563D02*
X316113Y393563D01*
X316113Y388597D01*
X303647Y388597D01*
X303647Y391027D02*
X316113Y391027D01*
X316113Y393457D02*
X303647Y393457D01*
X303647Y383563D02*
X303647Y378597D01*
X303647Y383563D02*
X316113Y383563D01*
X316113Y378597D01*
X303647Y378597D01*
X303647Y381027D02*
X316113Y381027D01*
X316113Y383457D02*
X303647Y383457D01*
X303647Y373563D02*
X303647Y368597D01*
X303647Y373563D02*
X316113Y373563D01*
X316113Y368597D01*
X303647Y368597D01*
X303647Y371027D02*
X316113Y371027D01*
X316113Y373457D02*
X303647Y373457D01*
D12*
X508575Y363625D02*
X508575Y352535D01*
X489485Y352535D01*
X489485Y363625D01*
X508575Y363625D01*
X508575Y354847D02*
X489485Y354847D01*
X489485Y357159D02*
X508575Y357159D01*
X508575Y359471D02*
X489485Y359471D01*
X489485Y361783D02*
X508575Y361783D01*
X508575Y408535D02*
X508575Y419625D01*
X508575Y408535D02*
X489485Y408535D01*
X489485Y419625D01*
X508575Y419625D01*
X508575Y410847D02*
X489485Y410847D01*
X489485Y413159D02*
X508575Y413159D01*
X508575Y415471D02*
X489485Y415471D01*
X489485Y417783D02*
X508575Y417783D01*
D13*
X468513Y373563D02*
X468513Y368597D01*
X456047Y368597D01*
X456047Y373563D01*
X468513Y373563D01*
X468513Y371027D02*
X456047Y371027D01*
X456047Y373457D02*
X468513Y373457D01*
X468513Y378597D02*
X468513Y383563D01*
X468513Y378597D02*
X456047Y378597D01*
X456047Y383563D01*
X468513Y383563D01*
X468513Y381027D02*
X456047Y381027D01*
X456047Y383457D02*
X468513Y383457D01*
X468513Y388597D02*
X468513Y393563D01*
X468513Y388597D02*
X456047Y388597D01*
X456047Y393563D01*
X468513Y393563D01*
X468513Y391027D02*
X456047Y391027D01*
X456047Y393457D02*
X468513Y393457D01*
X468513Y398597D02*
X468513Y403563D01*
X468513Y398597D02*
X456047Y398597D01*
X456047Y403563D01*
X468513Y403563D01*
X468513Y401027D02*
X456047Y401027D01*
X456047Y403457D02*
X468513Y403457D01*
D14*
X462280Y474980D03*
X271780Y322580D03*
D15*
X284480Y487680D03*
X487680Y487680D03*
X487680Y284480D03*
X284480Y284480D03*
D16*
X322580Y271780D03*
X347980Y271780D03*
X373380Y271780D03*
X398780Y271780D03*
X424180Y271780D03*
X449580Y271780D03*
X398780Y500380D03*
X373380Y500380D03*
D17*
X410685Y381585D02*
X420675Y381585D01*
X410685Y381585D02*
X410685Y390575D01*
X420675Y390575D01*
X420675Y381585D01*
X420675Y383993D02*
X410685Y383993D01*
X410685Y386401D02*
X420675Y386401D01*
X420675Y388809D02*
X410685Y388809D01*
X427685Y381585D02*
X437675Y381585D01*
X427685Y381585D02*
X427685Y390575D01*
X437675Y390575D01*
X437675Y381585D01*
X437675Y383993D02*
X427685Y383993D01*
X427685Y386401D02*
X437675Y386401D01*
X437675Y388809D02*
X427685Y388809D01*
X361475Y390575D02*
X351485Y390575D01*
X361475Y390575D02*
X361475Y381585D01*
X351485Y381585D01*
X351485Y390575D01*
X351485Y383993D02*
X361475Y383993D01*
X361475Y386401D02*
X351485Y386401D01*
X351485Y388809D02*
X361475Y388809D01*
X344475Y390575D02*
X334485Y390575D01*
X344475Y390575D02*
X344475Y381585D01*
X334485Y381585D01*
X334485Y390575D01*
X334485Y383993D02*
X344475Y383993D01*
X344475Y386401D02*
X334485Y386401D01*
X334485Y388809D02*
X344475Y388809D01*
D18*
X492935Y446065D02*
X492935Y453095D01*
X499965Y453095D01*
X499965Y446065D01*
X492935Y446065D01*
X492935Y450334D02*
X499965Y450334D01*
X475395Y453095D02*
X475395Y446065D01*
X475395Y453095D02*
X482425Y453095D01*
X482425Y446065D01*
X475395Y446065D01*
X475395Y450334D02*
X482425Y450334D01*
D17*
X484175Y426035D02*
X474185Y426035D01*
X474185Y435025D01*
X484175Y435025D01*
X484175Y426035D01*
X484175Y428443D02*
X474185Y428443D01*
X474185Y430851D02*
X484175Y430851D01*
X484175Y433259D02*
X474185Y433259D01*
X491185Y426035D02*
X501175Y426035D01*
X491185Y426035D02*
X491185Y435025D01*
X501175Y435025D01*
X501175Y426035D01*
X501175Y428443D02*
X491185Y428443D01*
X491185Y430851D02*
X501175Y430851D01*
X501175Y433259D02*
X491185Y433259D01*
X344475Y356185D02*
X334485Y356185D01*
X334485Y365175D01*
X344475Y365175D01*
X344475Y356185D01*
X344475Y358593D02*
X334485Y358593D01*
X334485Y361001D02*
X344475Y361001D01*
X344475Y363409D02*
X334485Y363409D01*
X351485Y356185D02*
X361475Y356185D01*
X351485Y356185D02*
X351485Y365175D01*
X361475Y365175D01*
X361475Y356185D01*
X361475Y358593D02*
X351485Y358593D01*
X351485Y361001D02*
X361475Y361001D01*
X361475Y363409D02*
X351485Y363409D01*
X410685Y356185D02*
X420675Y356185D01*
X410685Y356185D02*
X410685Y365175D01*
X420675Y365175D01*
X420675Y356185D01*
X420675Y358593D02*
X410685Y358593D01*
X410685Y361001D02*
X420675Y361001D01*
X420675Y363409D02*
X410685Y363409D01*
X427685Y356185D02*
X437675Y356185D01*
X427685Y356185D02*
X427685Y365175D01*
X437675Y365175D01*
X437675Y356185D01*
X437675Y358593D02*
X427685Y358593D01*
X427685Y361001D02*
X437675Y361001D01*
X437675Y363409D02*
X427685Y363409D01*
X427685Y415975D02*
X437675Y415975D01*
X437675Y406985D01*
X427685Y406985D01*
X427685Y415975D01*
X427685Y409393D02*
X437675Y409393D01*
X437675Y411801D02*
X427685Y411801D01*
X427685Y414209D02*
X437675Y414209D01*
X420675Y415975D02*
X410685Y415975D01*
X420675Y415975D02*
X420675Y406985D01*
X410685Y406985D01*
X410685Y415975D01*
X410685Y409393D02*
X420675Y409393D01*
X420675Y411801D02*
X410685Y411801D01*
X410685Y414209D02*
X420675Y414209D01*
X361475Y415975D02*
X351485Y415975D01*
X361475Y415975D02*
X361475Y406985D01*
X351485Y406985D01*
X351485Y415975D01*
X351485Y409393D02*
X361475Y409393D01*
X361475Y411801D02*
X351485Y411801D01*
X351485Y414209D02*
X361475Y414209D01*
X344475Y415975D02*
X334485Y415975D01*
X344475Y415975D02*
X344475Y406985D01*
X334485Y406985D01*
X334485Y415975D01*
X334485Y409393D02*
X344475Y409393D01*
X344475Y411801D02*
X334485Y411801D01*
X334485Y414209D02*
X344475Y414209D01*
X436085Y318085D02*
X446075Y318085D01*
X436085Y318085D02*
X436085Y327075D01*
X446075Y327075D01*
X446075Y318085D01*
X446075Y320493D02*
X436085Y320493D01*
X436085Y322901D02*
X446075Y322901D01*
X446075Y325309D02*
X436085Y325309D01*
X453085Y318085D02*
X463075Y318085D01*
X453085Y318085D02*
X453085Y327075D01*
X463075Y327075D01*
X463075Y318085D01*
X463075Y320493D02*
X453085Y320493D01*
X453085Y322901D02*
X463075Y322901D01*
X463075Y325309D02*
X453085Y325309D01*
D10*
X652910Y393580D03*
X652910Y388580D03*
X652910Y383580D03*
X652910Y378580D03*
D11*
X647660Y393830D03*
X642660Y393830D03*
D10*
X637410Y378580D03*
X637410Y383580D03*
X637410Y388580D03*
X637410Y393580D03*
D11*
X642660Y378330D03*
X647660Y378330D03*
D12*
X522665Y408535D02*
X522665Y419625D01*
X541755Y419625D01*
X541755Y408535D01*
X522665Y408535D01*
X522665Y410847D02*
X541755Y410847D01*
X541755Y413159D02*
X522665Y413159D01*
X522665Y415471D02*
X541755Y415471D01*
X541755Y417783D02*
X522665Y417783D01*
X522665Y363625D02*
X522665Y352535D01*
X522665Y363625D02*
X541755Y363625D01*
X541755Y352535D01*
X522665Y352535D01*
X522665Y354847D02*
X541755Y354847D01*
X541755Y357159D02*
X522665Y357159D01*
X522665Y359471D02*
X541755Y359471D01*
X541755Y361783D02*
X522665Y361783D01*
D13*
X562727Y398597D02*
X562727Y403563D01*
X575193Y403563D01*
X575193Y398597D01*
X562727Y398597D01*
X562727Y401027D02*
X575193Y401027D01*
X575193Y403457D02*
X562727Y403457D01*
X562727Y393563D02*
X562727Y388597D01*
X562727Y393563D02*
X575193Y393563D01*
X575193Y388597D01*
X562727Y388597D01*
X562727Y391027D02*
X575193Y391027D01*
X575193Y393457D02*
X562727Y393457D01*
X562727Y383563D02*
X562727Y378597D01*
X562727Y383563D02*
X575193Y383563D01*
X575193Y378597D01*
X562727Y378597D01*
X562727Y381027D02*
X575193Y381027D01*
X575193Y383457D02*
X562727Y383457D01*
X562727Y373563D02*
X562727Y368597D01*
X562727Y373563D02*
X575193Y373563D01*
X575193Y368597D01*
X562727Y368597D01*
X562727Y371027D02*
X575193Y371027D01*
X575193Y373457D02*
X562727Y373457D01*
D12*
X767655Y363625D02*
X767655Y352535D01*
X748565Y352535D01*
X748565Y363625D01*
X767655Y363625D01*
X767655Y354847D02*
X748565Y354847D01*
X748565Y357159D02*
X767655Y357159D01*
X767655Y359471D02*
X748565Y359471D01*
X748565Y361783D02*
X767655Y361783D01*
X767655Y408535D02*
X767655Y419625D01*
X767655Y408535D02*
X748565Y408535D01*
X748565Y419625D01*
X767655Y419625D01*
X767655Y410847D02*
X748565Y410847D01*
X748565Y413159D02*
X767655Y413159D01*
X767655Y415471D02*
X748565Y415471D01*
X748565Y417783D02*
X767655Y417783D01*
D13*
X727593Y373563D02*
X727593Y368597D01*
X715127Y368597D01*
X715127Y373563D01*
X727593Y373563D01*
X727593Y371027D02*
X715127Y371027D01*
X715127Y373457D02*
X727593Y373457D01*
X727593Y378597D02*
X727593Y383563D01*
X727593Y378597D02*
X715127Y378597D01*
X715127Y383563D01*
X727593Y383563D01*
X727593Y381027D02*
X715127Y381027D01*
X715127Y383457D02*
X727593Y383457D01*
X727593Y388597D02*
X727593Y393563D01*
X727593Y388597D02*
X715127Y388597D01*
X715127Y393563D01*
X727593Y393563D01*
X727593Y391027D02*
X715127Y391027D01*
X715127Y393457D02*
X727593Y393457D01*
X727593Y398597D02*
X727593Y403563D01*
X727593Y398597D02*
X715127Y398597D01*
X715127Y403563D01*
X727593Y403563D01*
X727593Y401027D02*
X715127Y401027D01*
X715127Y403457D02*
X727593Y403457D01*
D14*
X721360Y474980D03*
X530860Y322580D03*
D15*
X543560Y487680D03*
X746760Y487680D03*
X746760Y284480D03*
X543560Y284480D03*
D16*
X581660Y271780D03*
X607060Y271780D03*
X632460Y271780D03*
X657860Y271780D03*
X683260Y271780D03*
X708660Y271780D03*
X657860Y500380D03*
X632460Y500380D03*
D17*
X669765Y381585D02*
X679755Y381585D01*
X669765Y381585D02*
X669765Y390575D01*
X679755Y390575D01*
X679755Y381585D01*
X679755Y383993D02*
X669765Y383993D01*
X669765Y386401D02*
X679755Y386401D01*
X679755Y388809D02*
X669765Y388809D01*
X686765Y381585D02*
X696755Y381585D01*
X686765Y381585D02*
X686765Y390575D01*
X696755Y390575D01*
X696755Y381585D01*
X696755Y383993D02*
X686765Y383993D01*
X686765Y386401D02*
X696755Y386401D01*
X696755Y388809D02*
X686765Y388809D01*
X620555Y390575D02*
X610565Y390575D01*
X620555Y390575D02*
X620555Y381585D01*
X610565Y381585D01*
X610565Y390575D01*
X610565Y383993D02*
X620555Y383993D01*
X620555Y386401D02*
X610565Y386401D01*
X610565Y388809D02*
X620555Y388809D01*
X603555Y390575D02*
X593565Y390575D01*
X603555Y390575D02*
X603555Y381585D01*
X593565Y381585D01*
X593565Y390575D01*
X593565Y383993D02*
X603555Y383993D01*
X603555Y386401D02*
X593565Y386401D01*
X593565Y388809D02*
X603555Y388809D01*
D18*
X752015Y446065D02*
X752015Y453095D01*
X759045Y453095D01*
X759045Y446065D01*
X752015Y446065D01*
X752015Y450334D02*
X759045Y450334D01*
X734475Y453095D02*
X734475Y446065D01*
X734475Y453095D02*
X741505Y453095D01*
X741505Y446065D01*
X734475Y446065D01*
X734475Y450334D02*
X741505Y450334D01*
D17*
X743255Y426035D02*
X733265Y426035D01*
X733265Y435025D01*
X743255Y435025D01*
X743255Y426035D01*
X743255Y428443D02*
X733265Y428443D01*
X733265Y430851D02*
X743255Y430851D01*
X743255Y433259D02*
X733265Y433259D01*
X750265Y426035D02*
X760255Y426035D01*
X750265Y426035D02*
X750265Y435025D01*
X760255Y435025D01*
X760255Y426035D01*
X760255Y428443D02*
X750265Y428443D01*
X750265Y430851D02*
X760255Y430851D01*
X760255Y433259D02*
X750265Y433259D01*
X603555Y356185D02*
X593565Y356185D01*
X593565Y365175D01*
X603555Y365175D01*
X603555Y356185D01*
X603555Y358593D02*
X593565Y358593D01*
X593565Y361001D02*
X603555Y361001D01*
X603555Y363409D02*
X593565Y363409D01*
X610565Y356185D02*
X620555Y356185D01*
X610565Y356185D02*
X610565Y365175D01*
X620555Y365175D01*
X620555Y356185D01*
X620555Y358593D02*
X610565Y358593D01*
X610565Y361001D02*
X620555Y361001D01*
X620555Y363409D02*
X610565Y363409D01*
X669765Y356185D02*
X679755Y356185D01*
X669765Y356185D02*
X669765Y365175D01*
X679755Y365175D01*
X679755Y356185D01*
X679755Y358593D02*
X669765Y358593D01*
X669765Y361001D02*
X679755Y361001D01*
X679755Y363409D02*
X669765Y363409D01*
X686765Y356185D02*
X696755Y356185D01*
X686765Y356185D02*
X686765Y365175D01*
X696755Y365175D01*
X696755Y356185D01*
X696755Y358593D02*
X686765Y358593D01*
X686765Y361001D02*
X696755Y361001D01*
X696755Y363409D02*
X686765Y363409D01*
X686765Y415975D02*
X696755Y415975D01*
X696755Y406985D01*
X686765Y406985D01*
X686765Y415975D01*
X686765Y409393D02*
X696755Y409393D01*
X696755Y411801D02*
X686765Y411801D01*
X686765Y414209D02*
X696755Y414209D01*
X679755Y415975D02*
X669765Y415975D01*
X679755Y415975D02*
X679755Y406985D01*
X669765Y406985D01*
X669765Y415975D01*
X669765Y409393D02*
X679755Y409393D01*
X679755Y411801D02*
X669765Y411801D01*
X669765Y414209D02*
X679755Y414209D01*
X620555Y415975D02*
X610565Y415975D01*
X620555Y415975D02*
X620555Y406985D01*
X610565Y406985D01*
X610565Y415975D01*
X610565Y409393D02*
X620555Y409393D01*
X620555Y411801D02*
X610565Y411801D01*
X610565Y414209D02*
X620555Y414209D01*
X603555Y415975D02*
X593565Y415975D01*
X603555Y415975D02*
X603555Y406985D01*
X593565Y406985D01*
X593565Y415975D01*
X593565Y409393D02*
X603555Y409393D01*
X603555Y411801D02*
X593565Y411801D01*
X593565Y414209D02*
X603555Y414209D01*
X695165Y318085D02*
X705155Y318085D01*
X695165Y318085D02*
X695165Y327075D01*
X705155Y327075D01*
X705155Y318085D01*
X705155Y320493D02*
X695165Y320493D01*
X695165Y322901D02*
X705155Y322901D01*
X705155Y325309D02*
X695165Y325309D01*
X712165Y318085D02*
X722155Y318085D01*
X712165Y318085D02*
X712165Y327075D01*
X722155Y327075D01*
X722155Y318085D01*
X722155Y320493D02*
X712165Y320493D01*
X712165Y322901D02*
X722155Y322901D01*
X722155Y325309D02*
X712165Y325309D01*
D10*
X911990Y393580D03*
X911990Y388580D03*
X911990Y383580D03*
X911990Y378580D03*
D11*
X906740Y393830D03*
X901740Y393830D03*
D10*
X896490Y378580D03*
X896490Y383580D03*
X896490Y388580D03*
X896490Y393580D03*
D11*
X901740Y378330D03*
X906740Y378330D03*
D12*
X781745Y408535D02*
X781745Y419625D01*
X800835Y419625D01*
X800835Y408535D01*
X781745Y408535D01*
X781745Y410847D02*
X800835Y410847D01*
X800835Y413159D02*
X781745Y413159D01*
X781745Y415471D02*
X800835Y415471D01*
X800835Y417783D02*
X781745Y417783D01*
X781745Y363625D02*
X781745Y352535D01*
X781745Y363625D02*
X800835Y363625D01*
X800835Y352535D01*
X781745Y352535D01*
X781745Y354847D02*
X800835Y354847D01*
X800835Y357159D02*
X781745Y357159D01*
X781745Y359471D02*
X800835Y359471D01*
X800835Y361783D02*
X781745Y361783D01*
D13*
X821807Y398597D02*
X821807Y403563D01*
X834273Y403563D01*
X834273Y398597D01*
X821807Y398597D01*
X821807Y401027D02*
X834273Y401027D01*
X834273Y403457D02*
X821807Y403457D01*
X821807Y393563D02*
X821807Y388597D01*
X821807Y393563D02*
X834273Y393563D01*
X834273Y388597D01*
X821807Y388597D01*
X821807Y391027D02*
X834273Y391027D01*
X834273Y393457D02*
X821807Y393457D01*
X821807Y383563D02*
X821807Y378597D01*
X821807Y383563D02*
X834273Y383563D01*
X834273Y378597D01*
X821807Y378597D01*
X821807Y381027D02*
X834273Y381027D01*
X834273Y383457D02*
X821807Y383457D01*
X821807Y373563D02*
X821807Y368597D01*
X821807Y373563D02*
X834273Y373563D01*
X834273Y368597D01*
X821807Y368597D01*
X821807Y371027D02*
X834273Y371027D01*
X834273Y373457D02*
X821807Y373457D01*
D12*
X1026735Y363625D02*
X1026735Y352535D01*
X1007645Y352535D01*
X1007645Y363625D01*
X1026735Y363625D01*
X1026735Y354847D02*
X1007645Y354847D01*
X1007645Y357159D02*
X1026735Y357159D01*
X1026735Y359471D02*
X1007645Y359471D01*
X1007645Y361783D02*
X1026735Y361783D01*
X1026735Y408535D02*
X1026735Y419625D01*
X1026735Y408535D02*
X1007645Y408535D01*
X1007645Y419625D01*
X1026735Y419625D01*
X1026735Y410847D02*
X1007645Y410847D01*
X1007645Y413159D02*
X1026735Y413159D01*
X1026735Y415471D02*
X1007645Y415471D01*
X1007645Y417783D02*
X1026735Y417783D01*
D13*
X986673Y373563D02*
X986673Y368597D01*
X974207Y368597D01*
X974207Y373563D01*
X986673Y373563D01*
X986673Y371027D02*
X974207Y371027D01*
X974207Y373457D02*
X986673Y373457D01*
X986673Y378597D02*
X986673Y383563D01*
X986673Y378597D02*
X974207Y378597D01*
X974207Y383563D01*
X986673Y383563D01*
X986673Y381027D02*
X974207Y381027D01*
X974207Y383457D02*
X986673Y383457D01*
X986673Y388597D02*
X986673Y393563D01*
X986673Y388597D02*
X974207Y388597D01*
X974207Y393563D01*
X986673Y393563D01*
X986673Y391027D02*
X974207Y391027D01*
X974207Y393457D02*
X986673Y393457D01*
X986673Y398597D02*
X986673Y403563D01*
X986673Y398597D02*
X974207Y398597D01*
X974207Y403563D01*
X986673Y403563D01*
X986673Y401027D02*
X974207Y401027D01*
X974207Y403457D02*
X986673Y403457D01*
D14*
X980440Y474980D03*
X789940Y322580D03*
D15*
X802640Y487680D03*
X1005840Y487680D03*
X1005840Y284480D03*
X802640Y284480D03*
D16*
X840740Y271780D03*
X866140Y271780D03*
X891540Y271780D03*
X916940Y271780D03*
X942340Y271780D03*
X967740Y271780D03*
X916940Y500380D03*
X891540Y500380D03*
D17*
X928845Y381585D02*
X938835Y381585D01*
X928845Y381585D02*
X928845Y390575D01*
X938835Y390575D01*
X938835Y381585D01*
X938835Y383993D02*
X928845Y383993D01*
X928845Y386401D02*
X938835Y386401D01*
X938835Y388809D02*
X928845Y388809D01*
X945845Y381585D02*
X955835Y381585D01*
X945845Y381585D02*
X945845Y390575D01*
X955835Y390575D01*
X955835Y381585D01*
X955835Y383993D02*
X945845Y383993D01*
X945845Y386401D02*
X955835Y386401D01*
X955835Y388809D02*
X945845Y388809D01*
X879635Y390575D02*
X869645Y390575D01*
X879635Y390575D02*
X879635Y381585D01*
X869645Y381585D01*
X869645Y390575D01*
X869645Y383993D02*
X879635Y383993D01*
X879635Y386401D02*
X869645Y386401D01*
X869645Y388809D02*
X879635Y388809D01*
X862635Y390575D02*
X852645Y390575D01*
X862635Y390575D02*
X862635Y381585D01*
X852645Y381585D01*
X852645Y390575D01*
X852645Y383993D02*
X862635Y383993D01*
X862635Y386401D02*
X852645Y386401D01*
X852645Y388809D02*
X862635Y388809D01*
D18*
X1011095Y446065D02*
X1011095Y453095D01*
X1018125Y453095D01*
X1018125Y446065D01*
X1011095Y446065D01*
X1011095Y450334D02*
X1018125Y450334D01*
X993555Y453095D02*
X993555Y446065D01*
X993555Y453095D02*
X1000585Y453095D01*
X1000585Y446065D01*
X993555Y446065D01*
X993555Y450334D02*
X1000585Y450334D01*
D17*
X1002335Y426035D02*
X992345Y426035D01*
X992345Y435025D01*
X1002335Y435025D01*
X1002335Y426035D01*
X1002335Y428443D02*
X992345Y428443D01*
X992345Y430851D02*
X1002335Y430851D01*
X1002335Y433259D02*
X992345Y433259D01*
X1009345Y426035D02*
X1019335Y426035D01*
X1009345Y426035D02*
X1009345Y435025D01*
X1019335Y435025D01*
X1019335Y426035D01*
X1019335Y428443D02*
X1009345Y428443D01*
X1009345Y430851D02*
X1019335Y430851D01*
X1019335Y433259D02*
X1009345Y433259D01*
X862635Y356185D02*
X852645Y356185D01*
X852645Y365175D01*
X862635Y365175D01*
X862635Y356185D01*
X862635Y358593D02*
X852645Y358593D01*
X852645Y361001D02*
X862635Y361001D01*
X862635Y363409D02*
X852645Y363409D01*
X869645Y356185D02*
X879635Y356185D01*
X869645Y356185D02*
X869645Y365175D01*
X879635Y365175D01*
X879635Y356185D01*
X879635Y358593D02*
X869645Y358593D01*
X869645Y361001D02*
X879635Y361001D01*
X879635Y363409D02*
X869645Y363409D01*
X928845Y356185D02*
X938835Y356185D01*
X928845Y356185D02*
X928845Y365175D01*
X938835Y365175D01*
X938835Y356185D01*
X938835Y358593D02*
X928845Y358593D01*
X928845Y361001D02*
X938835Y361001D01*
X938835Y363409D02*
X928845Y363409D01*
X945845Y356185D02*
X955835Y356185D01*
X945845Y356185D02*
X945845Y365175D01*
X955835Y365175D01*
X955835Y356185D01*
X955835Y358593D02*
X945845Y358593D01*
X945845Y361001D02*
X955835Y361001D01*
X955835Y363409D02*
X945845Y363409D01*
X945845Y415975D02*
X955835Y415975D01*
X955835Y406985D01*
X945845Y406985D01*
X945845Y415975D01*
X945845Y409393D02*
X955835Y409393D01*
X955835Y411801D02*
X945845Y411801D01*
X945845Y414209D02*
X955835Y414209D01*
X938835Y415975D02*
X928845Y415975D01*
X938835Y415975D02*
X938835Y406985D01*
X928845Y406985D01*
X928845Y415975D01*
X928845Y409393D02*
X938835Y409393D01*
X938835Y411801D02*
X928845Y411801D01*
X928845Y414209D02*
X938835Y414209D01*
X879635Y415975D02*
X869645Y415975D01*
X879635Y415975D02*
X879635Y406985D01*
X869645Y406985D01*
X869645Y415975D01*
X869645Y409393D02*
X879635Y409393D01*
X879635Y411801D02*
X869645Y411801D01*
X869645Y414209D02*
X879635Y414209D01*
X862635Y415975D02*
X852645Y415975D01*
X862635Y415975D02*
X862635Y406985D01*
X852645Y406985D01*
X852645Y415975D01*
X852645Y409393D02*
X862635Y409393D01*
X862635Y411801D02*
X852645Y411801D01*
X852645Y414209D02*
X862635Y414209D01*
X954245Y318085D02*
X964235Y318085D01*
X954245Y318085D02*
X954245Y327075D01*
X964235Y327075D01*
X964235Y318085D01*
X964235Y320493D02*
X954245Y320493D01*
X954245Y322901D02*
X964235Y322901D01*
X964235Y325309D02*
X954245Y325309D01*
X971245Y318085D02*
X981235Y318085D01*
X971245Y318085D02*
X971245Y327075D01*
X981235Y327075D01*
X981235Y318085D01*
X981235Y320493D02*
X971245Y320493D01*
X971245Y322901D02*
X981235Y322901D01*
X981235Y325309D02*
X971245Y325309D01*
D10*
X1171070Y393580D03*
X1171070Y388580D03*
X1171070Y383580D03*
X1171070Y378580D03*
D11*
X1165820Y393830D03*
X1160820Y393830D03*
D10*
X1155570Y378580D03*
X1155570Y383580D03*
X1155570Y388580D03*
X1155570Y393580D03*
D11*
X1160820Y378330D03*
X1165820Y378330D03*
D12*
X1040825Y408535D02*
X1040825Y419625D01*
X1059915Y419625D01*
X1059915Y408535D01*
X1040825Y408535D01*
X1040825Y410847D02*
X1059915Y410847D01*
X1059915Y413159D02*
X1040825Y413159D01*
X1040825Y415471D02*
X1059915Y415471D01*
X1059915Y417783D02*
X1040825Y417783D01*
X1040825Y363625D02*
X1040825Y352535D01*
X1040825Y363625D02*
X1059915Y363625D01*
X1059915Y352535D01*
X1040825Y352535D01*
X1040825Y354847D02*
X1059915Y354847D01*
X1059915Y357159D02*
X1040825Y357159D01*
X1040825Y359471D02*
X1059915Y359471D01*
X1059915Y361783D02*
X1040825Y361783D01*
D13*
X1080887Y398597D02*
X1080887Y403563D01*
X1093353Y403563D01*
X1093353Y398597D01*
X1080887Y398597D01*
X1080887Y401027D02*
X1093353Y401027D01*
X1093353Y403457D02*
X1080887Y403457D01*
X1080887Y393563D02*
X1080887Y388597D01*
X1080887Y393563D02*
X1093353Y393563D01*
X1093353Y388597D01*
X1080887Y388597D01*
X1080887Y391027D02*
X1093353Y391027D01*
X1093353Y393457D02*
X1080887Y393457D01*
X1080887Y383563D02*
X1080887Y378597D01*
X1080887Y383563D02*
X1093353Y383563D01*
X1093353Y378597D01*
X1080887Y378597D01*
X1080887Y381027D02*
X1093353Y381027D01*
X1093353Y383457D02*
X1080887Y383457D01*
X1080887Y373563D02*
X1080887Y368597D01*
X1080887Y373563D02*
X1093353Y373563D01*
X1093353Y368597D01*
X1080887Y368597D01*
X1080887Y371027D02*
X1093353Y371027D01*
X1093353Y373457D02*
X1080887Y373457D01*
D12*
X1285815Y363625D02*
X1285815Y352535D01*
X1266725Y352535D01*
X1266725Y363625D01*
X1285815Y363625D01*
X1285815Y354847D02*
X1266725Y354847D01*
X1266725Y357159D02*
X1285815Y357159D01*
X1285815Y359471D02*
X1266725Y359471D01*
X1266725Y361783D02*
X1285815Y361783D01*
X1285815Y408535D02*
X1285815Y419625D01*
X1285815Y408535D02*
X1266725Y408535D01*
X1266725Y419625D01*
X1285815Y419625D01*
X1285815Y410847D02*
X1266725Y410847D01*
X1266725Y413159D02*
X1285815Y413159D01*
X1285815Y415471D02*
X1266725Y415471D01*
X1266725Y417783D02*
X1285815Y417783D01*
D13*
X1245753Y373563D02*
X1245753Y368597D01*
X1233287Y368597D01*
X1233287Y373563D01*
X1245753Y373563D01*
X1245753Y371027D02*
X1233287Y371027D01*
X1233287Y373457D02*
X1245753Y373457D01*
X1245753Y378597D02*
X1245753Y383563D01*
X1245753Y378597D02*
X1233287Y378597D01*
X1233287Y383563D01*
X1245753Y383563D01*
X1245753Y381027D02*
X1233287Y381027D01*
X1233287Y383457D02*
X1245753Y383457D01*
X1245753Y388597D02*
X1245753Y393563D01*
X1245753Y388597D02*
X1233287Y388597D01*
X1233287Y393563D01*
X1245753Y393563D01*
X1245753Y391027D02*
X1233287Y391027D01*
X1233287Y393457D02*
X1245753Y393457D01*
X1245753Y398597D02*
X1245753Y403563D01*
X1245753Y398597D02*
X1233287Y398597D01*
X1233287Y403563D01*
X1245753Y403563D01*
X1245753Y401027D02*
X1233287Y401027D01*
X1233287Y403457D02*
X1245753Y403457D01*
D14*
X1239520Y474980D03*
X1049020Y322580D03*
D15*
X1061720Y487680D03*
X1264920Y487680D03*
X1264920Y284480D03*
X1061720Y284480D03*
D16*
X1099820Y271780D03*
X1125220Y271780D03*
X1150620Y271780D03*
X1176020Y271780D03*
X1201420Y271780D03*
X1226820Y271780D03*
X1176020Y500380D03*
X1150620Y500380D03*
D17*
X1187925Y381585D02*
X1197915Y381585D01*
X1187925Y381585D02*
X1187925Y390575D01*
X1197915Y390575D01*
X1197915Y381585D01*
X1197915Y383993D02*
X1187925Y383993D01*
X1187925Y386401D02*
X1197915Y386401D01*
X1197915Y388809D02*
X1187925Y388809D01*
X1204925Y381585D02*
X1214915Y381585D01*
X1204925Y381585D02*
X1204925Y390575D01*
X1214915Y390575D01*
X1214915Y381585D01*
X1214915Y383993D02*
X1204925Y383993D01*
X1204925Y386401D02*
X1214915Y386401D01*
X1214915Y388809D02*
X1204925Y388809D01*
X1138715Y390575D02*
X1128725Y390575D01*
X1138715Y390575D02*
X1138715Y381585D01*
X1128725Y381585D01*
X1128725Y390575D01*
X1128725Y383993D02*
X1138715Y383993D01*
X1138715Y386401D02*
X1128725Y386401D01*
X1128725Y388809D02*
X1138715Y388809D01*
X1121715Y390575D02*
X1111725Y390575D01*
X1121715Y390575D02*
X1121715Y381585D01*
X1111725Y381585D01*
X1111725Y390575D01*
X1111725Y383993D02*
X1121715Y383993D01*
X1121715Y386401D02*
X1111725Y386401D01*
X1111725Y388809D02*
X1121715Y388809D01*
D18*
X1270175Y446065D02*
X1270175Y453095D01*
X1277205Y453095D01*
X1277205Y446065D01*
X1270175Y446065D01*
X1270175Y450334D02*
X1277205Y450334D01*
X1252635Y453095D02*
X1252635Y446065D01*
X1252635Y453095D02*
X1259665Y453095D01*
X1259665Y446065D01*
X1252635Y446065D01*
X1252635Y450334D02*
X1259665Y450334D01*
D17*
X1261415Y426035D02*
X1251425Y426035D01*
X1251425Y435025D01*
X1261415Y435025D01*
X1261415Y426035D01*
X1261415Y428443D02*
X1251425Y428443D01*
X1251425Y430851D02*
X1261415Y430851D01*
X1261415Y433259D02*
X1251425Y433259D01*
X1268425Y426035D02*
X1278415Y426035D01*
X1268425Y426035D02*
X1268425Y435025D01*
X1278415Y435025D01*
X1278415Y426035D01*
X1278415Y428443D02*
X1268425Y428443D01*
X1268425Y430851D02*
X1278415Y430851D01*
X1278415Y433259D02*
X1268425Y433259D01*
X1121715Y356185D02*
X1111725Y356185D01*
X1111725Y365175D01*
X1121715Y365175D01*
X1121715Y356185D01*
X1121715Y358593D02*
X1111725Y358593D01*
X1111725Y361001D02*
X1121715Y361001D01*
X1121715Y363409D02*
X1111725Y363409D01*
X1128725Y356185D02*
X1138715Y356185D01*
X1128725Y356185D02*
X1128725Y365175D01*
X1138715Y365175D01*
X1138715Y356185D01*
X1138715Y358593D02*
X1128725Y358593D01*
X1128725Y361001D02*
X1138715Y361001D01*
X1138715Y363409D02*
X1128725Y363409D01*
X1187925Y356185D02*
X1197915Y356185D01*
X1187925Y356185D02*
X1187925Y365175D01*
X1197915Y365175D01*
X1197915Y356185D01*
X1197915Y358593D02*
X1187925Y358593D01*
X1187925Y361001D02*
X1197915Y361001D01*
X1197915Y363409D02*
X1187925Y363409D01*
X1204925Y356185D02*
X1214915Y356185D01*
X1204925Y356185D02*
X1204925Y365175D01*
X1214915Y365175D01*
X1214915Y356185D01*
X1214915Y358593D02*
X1204925Y358593D01*
X1204925Y361001D02*
X1214915Y361001D01*
X1214915Y363409D02*
X1204925Y363409D01*
X1204925Y415975D02*
X1214915Y415975D01*
X1214915Y406985D01*
X1204925Y406985D01*
X1204925Y415975D01*
X1204925Y409393D02*
X1214915Y409393D01*
X1214915Y411801D02*
X1204925Y411801D01*
X1204925Y414209D02*
X1214915Y414209D01*
X1197915Y415975D02*
X1187925Y415975D01*
X1197915Y415975D02*
X1197915Y406985D01*
X1187925Y406985D01*
X1187925Y415975D01*
X1187925Y409393D02*
X1197915Y409393D01*
X1197915Y411801D02*
X1187925Y411801D01*
X1187925Y414209D02*
X1197915Y414209D01*
X1138715Y415975D02*
X1128725Y415975D01*
X1138715Y415975D02*
X1138715Y406985D01*
X1128725Y406985D01*
X1128725Y415975D01*
X1128725Y409393D02*
X1138715Y409393D01*
X1138715Y411801D02*
X1128725Y411801D01*
X1128725Y414209D02*
X1138715Y414209D01*
X1121715Y415975D02*
X1111725Y415975D01*
X1121715Y415975D02*
X1121715Y406985D01*
X1111725Y406985D01*
X1111725Y415975D01*
X1111725Y409393D02*
X1121715Y409393D01*
X1121715Y411801D02*
X1111725Y411801D01*
X1111725Y414209D02*
X1121715Y414209D01*
X1213325Y318085D02*
X1223315Y318085D01*
X1213325Y318085D02*
X1213325Y327075D01*
X1223315Y327075D01*
X1223315Y318085D01*
X1223315Y320493D02*
X1213325Y320493D01*
X1213325Y322901D02*
X1223315Y322901D01*
X1223315Y325309D02*
X1213325Y325309D01*
X1230325Y318085D02*
X1240315Y318085D01*
X1230325Y318085D02*
X1230325Y327075D01*
X1240315Y327075D01*
X1240315Y318085D01*
X1240315Y320493D02*
X1230325Y320493D01*
X1230325Y322901D02*
X1240315Y322901D01*
X1240315Y325309D02*
X1230325Y325309D01*
D10*
X1430150Y393580D03*
X1430150Y388580D03*
X1430150Y383580D03*
X1430150Y378580D03*
D11*
X1424900Y393830D03*
X1419900Y393830D03*
D10*
X1414650Y378580D03*
X1414650Y383580D03*
X1414650Y388580D03*
X1414650Y393580D03*
D11*
X1419900Y378330D03*
X1424900Y378330D03*
D12*
X1299905Y408535D02*
X1299905Y419625D01*
X1318995Y419625D01*
X1318995Y408535D01*
X1299905Y408535D01*
X1299905Y410847D02*
X1318995Y410847D01*
X1318995Y413159D02*
X1299905Y413159D01*
X1299905Y415471D02*
X1318995Y415471D01*
X1318995Y417783D02*
X1299905Y417783D01*
X1299905Y363625D02*
X1299905Y352535D01*
X1299905Y363625D02*
X1318995Y363625D01*
X1318995Y352535D01*
X1299905Y352535D01*
X1299905Y354847D02*
X1318995Y354847D01*
X1318995Y357159D02*
X1299905Y357159D01*
X1299905Y359471D02*
X1318995Y359471D01*
X1318995Y361783D02*
X1299905Y361783D01*
D13*
X1339967Y398597D02*
X1339967Y403563D01*
X1352433Y403563D01*
X1352433Y398597D01*
X1339967Y398597D01*
X1339967Y401027D02*
X1352433Y401027D01*
X1352433Y403457D02*
X1339967Y403457D01*
X1339967Y393563D02*
X1339967Y388597D01*
X1339967Y393563D02*
X1352433Y393563D01*
X1352433Y388597D01*
X1339967Y388597D01*
X1339967Y391027D02*
X1352433Y391027D01*
X1352433Y393457D02*
X1339967Y393457D01*
X1339967Y383563D02*
X1339967Y378597D01*
X1339967Y383563D02*
X1352433Y383563D01*
X1352433Y378597D01*
X1339967Y378597D01*
X1339967Y381027D02*
X1352433Y381027D01*
X1352433Y383457D02*
X1339967Y383457D01*
X1339967Y373563D02*
X1339967Y368597D01*
X1339967Y373563D02*
X1352433Y373563D01*
X1352433Y368597D01*
X1339967Y368597D01*
X1339967Y371027D02*
X1352433Y371027D01*
X1352433Y373457D02*
X1339967Y373457D01*
D12*
X1544895Y363625D02*
X1544895Y352535D01*
X1525805Y352535D01*
X1525805Y363625D01*
X1544895Y363625D01*
X1544895Y354847D02*
X1525805Y354847D01*
X1525805Y357159D02*
X1544895Y357159D01*
X1544895Y359471D02*
X1525805Y359471D01*
X1525805Y361783D02*
X1544895Y361783D01*
X1544895Y408535D02*
X1544895Y419625D01*
X1544895Y408535D02*
X1525805Y408535D01*
X1525805Y419625D01*
X1544895Y419625D01*
X1544895Y410847D02*
X1525805Y410847D01*
X1525805Y413159D02*
X1544895Y413159D01*
X1544895Y415471D02*
X1525805Y415471D01*
X1525805Y417783D02*
X1544895Y417783D01*
D13*
X1504833Y373563D02*
X1504833Y368597D01*
X1492367Y368597D01*
X1492367Y373563D01*
X1504833Y373563D01*
X1504833Y371027D02*
X1492367Y371027D01*
X1492367Y373457D02*
X1504833Y373457D01*
X1504833Y378597D02*
X1504833Y383563D01*
X1504833Y378597D02*
X1492367Y378597D01*
X1492367Y383563D01*
X1504833Y383563D01*
X1504833Y381027D02*
X1492367Y381027D01*
X1492367Y383457D02*
X1504833Y383457D01*
X1504833Y388597D02*
X1504833Y393563D01*
X1504833Y388597D02*
X1492367Y388597D01*
X1492367Y393563D01*
X1504833Y393563D01*
X1504833Y391027D02*
X1492367Y391027D01*
X1492367Y393457D02*
X1504833Y393457D01*
X1504833Y398597D02*
X1504833Y403563D01*
X1504833Y398597D02*
X1492367Y398597D01*
X1492367Y403563D01*
X1504833Y403563D01*
X1504833Y401027D02*
X1492367Y401027D01*
X1492367Y403457D02*
X1504833Y403457D01*
D14*
X1498600Y474980D03*
X1308100Y322580D03*
D15*
X1320800Y487680D03*
X1524000Y487680D03*
X1524000Y284480D03*
X1320800Y284480D03*
D16*
X1358900Y271780D03*
X1384300Y271780D03*
X1409700Y271780D03*
X1435100Y271780D03*
X1460500Y271780D03*
X1485900Y271780D03*
X1435100Y500380D03*
X1409700Y500380D03*
D17*
X1447005Y381585D02*
X1456995Y381585D01*
X1447005Y381585D02*
X1447005Y390575D01*
X1456995Y390575D01*
X1456995Y381585D01*
X1456995Y383993D02*
X1447005Y383993D01*
X1447005Y386401D02*
X1456995Y386401D01*
X1456995Y388809D02*
X1447005Y388809D01*
X1464005Y381585D02*
X1473995Y381585D01*
X1464005Y381585D02*
X1464005Y390575D01*
X1473995Y390575D01*
X1473995Y381585D01*
X1473995Y383993D02*
X1464005Y383993D01*
X1464005Y386401D02*
X1473995Y386401D01*
X1473995Y388809D02*
X1464005Y388809D01*
X1397795Y390575D02*
X1387805Y390575D01*
X1397795Y390575D02*
X1397795Y381585D01*
X1387805Y381585D01*
X1387805Y390575D01*
X1387805Y383993D02*
X1397795Y383993D01*
X1397795Y386401D02*
X1387805Y386401D01*
X1387805Y388809D02*
X1397795Y388809D01*
X1380795Y390575D02*
X1370805Y390575D01*
X1380795Y390575D02*
X1380795Y381585D01*
X1370805Y381585D01*
X1370805Y390575D01*
X1370805Y383993D02*
X1380795Y383993D01*
X1380795Y386401D02*
X1370805Y386401D01*
X1370805Y388809D02*
X1380795Y388809D01*
D18*
X1529255Y446065D02*
X1529255Y453095D01*
X1536285Y453095D01*
X1536285Y446065D01*
X1529255Y446065D01*
X1529255Y450334D02*
X1536285Y450334D01*
X1511715Y453095D02*
X1511715Y446065D01*
X1511715Y453095D02*
X1518745Y453095D01*
X1518745Y446065D01*
X1511715Y446065D01*
X1511715Y450334D02*
X1518745Y450334D01*
D17*
X1520495Y426035D02*
X1510505Y426035D01*
X1510505Y435025D01*
X1520495Y435025D01*
X1520495Y426035D01*
X1520495Y428443D02*
X1510505Y428443D01*
X1510505Y430851D02*
X1520495Y430851D01*
X1520495Y433259D02*
X1510505Y433259D01*
X1527505Y426035D02*
X1537495Y426035D01*
X1527505Y426035D02*
X1527505Y435025D01*
X1537495Y435025D01*
X1537495Y426035D01*
X1537495Y428443D02*
X1527505Y428443D01*
X1527505Y430851D02*
X1537495Y430851D01*
X1537495Y433259D02*
X1527505Y433259D01*
X1380795Y356185D02*
X1370805Y356185D01*
X1370805Y365175D01*
X1380795Y365175D01*
X1380795Y356185D01*
X1380795Y358593D02*
X1370805Y358593D01*
X1370805Y361001D02*
X1380795Y361001D01*
X1380795Y363409D02*
X1370805Y363409D01*
X1387805Y356185D02*
X1397795Y356185D01*
X1387805Y356185D02*
X1387805Y365175D01*
X1397795Y365175D01*
X1397795Y356185D01*
X1397795Y358593D02*
X1387805Y358593D01*
X1387805Y361001D02*
X1397795Y361001D01*
X1397795Y363409D02*
X1387805Y363409D01*
X1447005Y356185D02*
X1456995Y356185D01*
X1447005Y356185D02*
X1447005Y365175D01*
X1456995Y365175D01*
X1456995Y356185D01*
X1456995Y358593D02*
X1447005Y358593D01*
X1447005Y361001D02*
X1456995Y361001D01*
X1456995Y363409D02*
X1447005Y363409D01*
X1464005Y356185D02*
X1473995Y356185D01*
X1464005Y356185D02*
X1464005Y365175D01*
X1473995Y365175D01*
X1473995Y356185D01*
X1473995Y358593D02*
X1464005Y358593D01*
X1464005Y361001D02*
X1473995Y361001D01*
X1473995Y363409D02*
X1464005Y363409D01*
X1464005Y415975D02*
X1473995Y415975D01*
X1473995Y406985D01*
X1464005Y406985D01*
X1464005Y415975D01*
X1464005Y409393D02*
X1473995Y409393D01*
X1473995Y411801D02*
X1464005Y411801D01*
X1464005Y414209D02*
X1473995Y414209D01*
X1456995Y415975D02*
X1447005Y415975D01*
X1456995Y415975D02*
X1456995Y406985D01*
X1447005Y406985D01*
X1447005Y415975D01*
X1447005Y409393D02*
X1456995Y409393D01*
X1456995Y411801D02*
X1447005Y411801D01*
X1447005Y414209D02*
X1456995Y414209D01*
X1397795Y415975D02*
X1387805Y415975D01*
X1397795Y415975D02*
X1397795Y406985D01*
X1387805Y406985D01*
X1387805Y415975D01*
X1387805Y409393D02*
X1397795Y409393D01*
X1397795Y411801D02*
X1387805Y411801D01*
X1387805Y414209D02*
X1397795Y414209D01*
X1380795Y415975D02*
X1370805Y415975D01*
X1380795Y415975D02*
X1380795Y406985D01*
X1370805Y406985D01*
X1370805Y415975D01*
X1370805Y409393D02*
X1380795Y409393D01*
X1380795Y411801D02*
X1370805Y411801D01*
X1370805Y414209D02*
X1380795Y414209D01*
X1472405Y318085D02*
X1482395Y318085D01*
X1472405Y318085D02*
X1472405Y327075D01*
X1482395Y327075D01*
X1482395Y318085D01*
X1482395Y320493D02*
X1472405Y320493D01*
X1472405Y322901D02*
X1482395Y322901D01*
X1482395Y325309D02*
X1472405Y325309D01*
X1489405Y318085D02*
X1499395Y318085D01*
X1489405Y318085D02*
X1489405Y327075D01*
X1499395Y327075D01*
X1499395Y318085D01*
X1499395Y320493D02*
X1489405Y320493D01*
X1489405Y322901D02*
X1499395Y322901D01*
X1499395Y325309D02*
X1489405Y325309D01*
D10*
X134750Y652660D03*
X134750Y647660D03*
X134750Y642660D03*
X134750Y637660D03*
D11*
X129500Y652910D03*
X124500Y652910D03*
D10*
X119250Y637660D03*
X119250Y642660D03*
X119250Y647660D03*
X119250Y652660D03*
D11*
X124500Y637410D03*
X129500Y637410D03*
D12*
X4505Y667615D02*
X4505Y678705D01*
X23595Y678705D01*
X23595Y667615D01*
X4505Y667615D01*
X4505Y669927D02*
X23595Y669927D01*
X23595Y672239D02*
X4505Y672239D01*
X4505Y674551D02*
X23595Y674551D01*
X23595Y676863D02*
X4505Y676863D01*
X4505Y622705D02*
X4505Y611615D01*
X4505Y622705D02*
X23595Y622705D01*
X23595Y611615D01*
X4505Y611615D01*
X4505Y613927D02*
X23595Y613927D01*
X23595Y616239D02*
X4505Y616239D01*
X4505Y618551D02*
X23595Y618551D01*
X23595Y620863D02*
X4505Y620863D01*
D13*
X44567Y657677D02*
X44567Y662643D01*
X57033Y662643D01*
X57033Y657677D01*
X44567Y657677D01*
X44567Y660107D02*
X57033Y660107D01*
X57033Y662537D02*
X44567Y662537D01*
X44567Y652643D02*
X44567Y647677D01*
X44567Y652643D02*
X57033Y652643D01*
X57033Y647677D01*
X44567Y647677D01*
X44567Y650107D02*
X57033Y650107D01*
X57033Y652537D02*
X44567Y652537D01*
X44567Y642643D02*
X44567Y637677D01*
X44567Y642643D02*
X57033Y642643D01*
X57033Y637677D01*
X44567Y637677D01*
X44567Y640107D02*
X57033Y640107D01*
X57033Y642537D02*
X44567Y642537D01*
X44567Y632643D02*
X44567Y627677D01*
X44567Y632643D02*
X57033Y632643D01*
X57033Y627677D01*
X44567Y627677D01*
X44567Y630107D02*
X57033Y630107D01*
X57033Y632537D02*
X44567Y632537D01*
D12*
X249495Y622705D02*
X249495Y611615D01*
X230405Y611615D01*
X230405Y622705D01*
X249495Y622705D01*
X249495Y613927D02*
X230405Y613927D01*
X230405Y616239D02*
X249495Y616239D01*
X249495Y618551D02*
X230405Y618551D01*
X230405Y620863D02*
X249495Y620863D01*
X249495Y667615D02*
X249495Y678705D01*
X249495Y667615D02*
X230405Y667615D01*
X230405Y678705D01*
X249495Y678705D01*
X249495Y669927D02*
X230405Y669927D01*
X230405Y672239D02*
X249495Y672239D01*
X249495Y674551D02*
X230405Y674551D01*
X230405Y676863D02*
X249495Y676863D01*
D13*
X209433Y632643D02*
X209433Y627677D01*
X196967Y627677D01*
X196967Y632643D01*
X209433Y632643D01*
X209433Y630107D02*
X196967Y630107D01*
X196967Y632537D02*
X209433Y632537D01*
X209433Y637677D02*
X209433Y642643D01*
X209433Y637677D02*
X196967Y637677D01*
X196967Y642643D01*
X209433Y642643D01*
X209433Y640107D02*
X196967Y640107D01*
X196967Y642537D02*
X209433Y642537D01*
X209433Y647677D02*
X209433Y652643D01*
X209433Y647677D02*
X196967Y647677D01*
X196967Y652643D01*
X209433Y652643D01*
X209433Y650107D02*
X196967Y650107D01*
X196967Y652537D02*
X209433Y652537D01*
X209433Y657677D02*
X209433Y662643D01*
X209433Y657677D02*
X196967Y657677D01*
X196967Y662643D01*
X209433Y662643D01*
X209433Y660107D02*
X196967Y660107D01*
X196967Y662537D02*
X209433Y662537D01*
D14*
X203200Y734060D03*
X12700Y581660D03*
D15*
X25400Y746760D03*
X228600Y746760D03*
X228600Y543560D03*
X25400Y543560D03*
D16*
X63500Y530860D03*
X88900Y530860D03*
X114300Y530860D03*
X139700Y530860D03*
X165100Y530860D03*
X190500Y530860D03*
X139700Y759460D03*
X114300Y759460D03*
D17*
X151605Y640665D02*
X161595Y640665D01*
X151605Y640665D02*
X151605Y649655D01*
X161595Y649655D01*
X161595Y640665D01*
X161595Y643073D02*
X151605Y643073D01*
X151605Y645481D02*
X161595Y645481D01*
X161595Y647889D02*
X151605Y647889D01*
X168605Y640665D02*
X178595Y640665D01*
X168605Y640665D02*
X168605Y649655D01*
X178595Y649655D01*
X178595Y640665D01*
X178595Y643073D02*
X168605Y643073D01*
X168605Y645481D02*
X178595Y645481D01*
X178595Y647889D02*
X168605Y647889D01*
X102395Y649655D02*
X92405Y649655D01*
X102395Y649655D02*
X102395Y640665D01*
X92405Y640665D01*
X92405Y649655D01*
X92405Y643073D02*
X102395Y643073D01*
X102395Y645481D02*
X92405Y645481D01*
X92405Y647889D02*
X102395Y647889D01*
X85395Y649655D02*
X75405Y649655D01*
X85395Y649655D02*
X85395Y640665D01*
X75405Y640665D01*
X75405Y649655D01*
X75405Y643073D02*
X85395Y643073D01*
X85395Y645481D02*
X75405Y645481D01*
X75405Y647889D02*
X85395Y647889D01*
D18*
X233855Y705145D02*
X233855Y712175D01*
X240885Y712175D01*
X240885Y705145D01*
X233855Y705145D01*
X233855Y709414D02*
X240885Y709414D01*
X216315Y712175D02*
X216315Y705145D01*
X216315Y712175D02*
X223345Y712175D01*
X223345Y705145D01*
X216315Y705145D01*
X216315Y709414D02*
X223345Y709414D01*
D17*
X225095Y685115D02*
X215105Y685115D01*
X215105Y694105D01*
X225095Y694105D01*
X225095Y685115D01*
X225095Y687523D02*
X215105Y687523D01*
X215105Y689931D02*
X225095Y689931D01*
X225095Y692339D02*
X215105Y692339D01*
X232105Y685115D02*
X242095Y685115D01*
X232105Y685115D02*
X232105Y694105D01*
X242095Y694105D01*
X242095Y685115D01*
X242095Y687523D02*
X232105Y687523D01*
X232105Y689931D02*
X242095Y689931D01*
X242095Y692339D02*
X232105Y692339D01*
X85395Y615265D02*
X75405Y615265D01*
X75405Y624255D01*
X85395Y624255D01*
X85395Y615265D01*
X85395Y617673D02*
X75405Y617673D01*
X75405Y620081D02*
X85395Y620081D01*
X85395Y622489D02*
X75405Y622489D01*
X92405Y615265D02*
X102395Y615265D01*
X92405Y615265D02*
X92405Y624255D01*
X102395Y624255D01*
X102395Y615265D01*
X102395Y617673D02*
X92405Y617673D01*
X92405Y620081D02*
X102395Y620081D01*
X102395Y622489D02*
X92405Y622489D01*
X151605Y615265D02*
X161595Y615265D01*
X151605Y615265D02*
X151605Y624255D01*
X161595Y624255D01*
X161595Y615265D01*
X161595Y617673D02*
X151605Y617673D01*
X151605Y620081D02*
X161595Y620081D01*
X161595Y622489D02*
X151605Y622489D01*
X168605Y615265D02*
X178595Y615265D01*
X168605Y615265D02*
X168605Y624255D01*
X178595Y624255D01*
X178595Y615265D01*
X178595Y617673D02*
X168605Y617673D01*
X168605Y620081D02*
X178595Y620081D01*
X178595Y622489D02*
X168605Y622489D01*
X168605Y675055D02*
X178595Y675055D01*
X178595Y666065D01*
X168605Y666065D01*
X168605Y675055D01*
X168605Y668473D02*
X178595Y668473D01*
X178595Y670881D02*
X168605Y670881D01*
X168605Y673289D02*
X178595Y673289D01*
X161595Y675055D02*
X151605Y675055D01*
X161595Y675055D02*
X161595Y666065D01*
X151605Y666065D01*
X151605Y675055D01*
X151605Y668473D02*
X161595Y668473D01*
X161595Y670881D02*
X151605Y670881D01*
X151605Y673289D02*
X161595Y673289D01*
X102395Y675055D02*
X92405Y675055D01*
X102395Y675055D02*
X102395Y666065D01*
X92405Y666065D01*
X92405Y675055D01*
X92405Y668473D02*
X102395Y668473D01*
X102395Y670881D02*
X92405Y670881D01*
X92405Y673289D02*
X102395Y673289D01*
X85395Y675055D02*
X75405Y675055D01*
X85395Y675055D02*
X85395Y666065D01*
X75405Y666065D01*
X75405Y675055D01*
X75405Y668473D02*
X85395Y668473D01*
X85395Y670881D02*
X75405Y670881D01*
X75405Y673289D02*
X85395Y673289D01*
X177005Y577165D02*
X186995Y577165D01*
X177005Y577165D02*
X177005Y586155D01*
X186995Y586155D01*
X186995Y577165D01*
X186995Y579573D02*
X177005Y579573D01*
X177005Y581981D02*
X186995Y581981D01*
X186995Y584389D02*
X177005Y584389D01*
X194005Y577165D02*
X203995Y577165D01*
X194005Y577165D02*
X194005Y586155D01*
X203995Y586155D01*
X203995Y577165D01*
X203995Y579573D02*
X194005Y579573D01*
X194005Y581981D02*
X203995Y581981D01*
X203995Y584389D02*
X194005Y584389D01*
D10*
X393830Y652660D03*
X393830Y647660D03*
X393830Y642660D03*
X393830Y637660D03*
D11*
X388580Y652910D03*
X383580Y652910D03*
D10*
X378330Y637660D03*
X378330Y642660D03*
X378330Y647660D03*
X378330Y652660D03*
D11*
X383580Y637410D03*
X388580Y637410D03*
D12*
X263585Y667615D02*
X263585Y678705D01*
X282675Y678705D01*
X282675Y667615D01*
X263585Y667615D01*
X263585Y669927D02*
X282675Y669927D01*
X282675Y672239D02*
X263585Y672239D01*
X263585Y674551D02*
X282675Y674551D01*
X282675Y676863D02*
X263585Y676863D01*
X263585Y622705D02*
X263585Y611615D01*
X263585Y622705D02*
X282675Y622705D01*
X282675Y611615D01*
X263585Y611615D01*
X263585Y613927D02*
X282675Y613927D01*
X282675Y616239D02*
X263585Y616239D01*
X263585Y618551D02*
X282675Y618551D01*
X282675Y620863D02*
X263585Y620863D01*
D13*
X303647Y657677D02*
X303647Y662643D01*
X316113Y662643D01*
X316113Y657677D01*
X303647Y657677D01*
X303647Y660107D02*
X316113Y660107D01*
X316113Y662537D02*
X303647Y662537D01*
X303647Y652643D02*
X303647Y647677D01*
X303647Y652643D02*
X316113Y652643D01*
X316113Y647677D01*
X303647Y647677D01*
X303647Y650107D02*
X316113Y650107D01*
X316113Y652537D02*
X303647Y652537D01*
X303647Y642643D02*
X303647Y637677D01*
X303647Y642643D02*
X316113Y642643D01*
X316113Y637677D01*
X303647Y637677D01*
X303647Y640107D02*
X316113Y640107D01*
X316113Y642537D02*
X303647Y642537D01*
X303647Y632643D02*
X303647Y627677D01*
X303647Y632643D02*
X316113Y632643D01*
X316113Y627677D01*
X303647Y627677D01*
X303647Y630107D02*
X316113Y630107D01*
X316113Y632537D02*
X303647Y632537D01*
D12*
X508575Y622705D02*
X508575Y611615D01*
X489485Y611615D01*
X489485Y622705D01*
X508575Y622705D01*
X508575Y613927D02*
X489485Y613927D01*
X489485Y616239D02*
X508575Y616239D01*
X508575Y618551D02*
X489485Y618551D01*
X489485Y620863D02*
X508575Y620863D01*
X508575Y667615D02*
X508575Y678705D01*
X508575Y667615D02*
X489485Y667615D01*
X489485Y678705D01*
X508575Y678705D01*
X508575Y669927D02*
X489485Y669927D01*
X489485Y672239D02*
X508575Y672239D01*
X508575Y674551D02*
X489485Y674551D01*
X489485Y676863D02*
X508575Y676863D01*
D13*
X468513Y632643D02*
X468513Y627677D01*
X456047Y627677D01*
X456047Y632643D01*
X468513Y632643D01*
X468513Y630107D02*
X456047Y630107D01*
X456047Y632537D02*
X468513Y632537D01*
X468513Y637677D02*
X468513Y642643D01*
X468513Y637677D02*
X456047Y637677D01*
X456047Y642643D01*
X468513Y642643D01*
X468513Y640107D02*
X456047Y640107D01*
X456047Y642537D02*
X468513Y642537D01*
X468513Y647677D02*
X468513Y652643D01*
X468513Y647677D02*
X456047Y647677D01*
X456047Y652643D01*
X468513Y652643D01*
X468513Y650107D02*
X456047Y650107D01*
X456047Y652537D02*
X468513Y652537D01*
X468513Y657677D02*
X468513Y662643D01*
X468513Y657677D02*
X456047Y657677D01*
X456047Y662643D01*
X468513Y662643D01*
X468513Y660107D02*
X456047Y660107D01*
X456047Y662537D02*
X468513Y662537D01*
D14*
X462280Y734060D03*
X271780Y581660D03*
D15*
X284480Y746760D03*
X487680Y746760D03*
X487680Y543560D03*
X284480Y543560D03*
D16*
X322580Y530860D03*
X347980Y530860D03*
X373380Y530860D03*
X398780Y530860D03*
X424180Y530860D03*
X449580Y530860D03*
X398780Y759460D03*
X373380Y759460D03*
D17*
X410685Y640665D02*
X420675Y640665D01*
X410685Y640665D02*
X410685Y649655D01*
X420675Y649655D01*
X420675Y640665D01*
X420675Y643073D02*
X410685Y643073D01*
X410685Y645481D02*
X420675Y645481D01*
X420675Y647889D02*
X410685Y647889D01*
X427685Y640665D02*
X437675Y640665D01*
X427685Y640665D02*
X427685Y649655D01*
X437675Y649655D01*
X437675Y640665D01*
X437675Y643073D02*
X427685Y643073D01*
X427685Y645481D02*
X437675Y645481D01*
X437675Y647889D02*
X427685Y647889D01*
X361475Y649655D02*
X351485Y649655D01*
X361475Y649655D02*
X361475Y640665D01*
X351485Y640665D01*
X351485Y649655D01*
X351485Y643073D02*
X361475Y643073D01*
X361475Y645481D02*
X351485Y645481D01*
X351485Y647889D02*
X361475Y647889D01*
X344475Y649655D02*
X334485Y649655D01*
X344475Y649655D02*
X344475Y640665D01*
X334485Y640665D01*
X334485Y649655D01*
X334485Y643073D02*
X344475Y643073D01*
X344475Y645481D02*
X334485Y645481D01*
X334485Y647889D02*
X344475Y647889D01*
D18*
X492935Y705145D02*
X492935Y712175D01*
X499965Y712175D01*
X499965Y705145D01*
X492935Y705145D01*
X492935Y709414D02*
X499965Y709414D01*
X475395Y712175D02*
X475395Y705145D01*
X475395Y712175D02*
X482425Y712175D01*
X482425Y705145D01*
X475395Y705145D01*
X475395Y709414D02*
X482425Y709414D01*
D17*
X484175Y685115D02*
X474185Y685115D01*
X474185Y694105D01*
X484175Y694105D01*
X484175Y685115D01*
X484175Y687523D02*
X474185Y687523D01*
X474185Y689931D02*
X484175Y689931D01*
X484175Y692339D02*
X474185Y692339D01*
X491185Y685115D02*
X501175Y685115D01*
X491185Y685115D02*
X491185Y694105D01*
X501175Y694105D01*
X501175Y685115D01*
X501175Y687523D02*
X491185Y687523D01*
X491185Y689931D02*
X501175Y689931D01*
X501175Y692339D02*
X491185Y692339D01*
X344475Y615265D02*
X334485Y615265D01*
X334485Y624255D01*
X344475Y624255D01*
X344475Y615265D01*
X344475Y617673D02*
X334485Y617673D01*
X334485Y620081D02*
X344475Y620081D01*
X344475Y622489D02*
X334485Y622489D01*
X351485Y615265D02*
X361475Y615265D01*
X351485Y615265D02*
X351485Y624255D01*
X361475Y624255D01*
X361475Y615265D01*
X361475Y617673D02*
X351485Y617673D01*
X351485Y620081D02*
X361475Y620081D01*
X361475Y622489D02*
X351485Y622489D01*
X410685Y615265D02*
X420675Y615265D01*
X410685Y615265D02*
X410685Y624255D01*
X420675Y624255D01*
X420675Y615265D01*
X420675Y617673D02*
X410685Y617673D01*
X410685Y620081D02*
X420675Y620081D01*
X420675Y622489D02*
X410685Y622489D01*
X427685Y615265D02*
X437675Y615265D01*
X427685Y615265D02*
X427685Y624255D01*
X437675Y624255D01*
X437675Y615265D01*
X437675Y617673D02*
X427685Y617673D01*
X427685Y620081D02*
X437675Y620081D01*
X437675Y622489D02*
X427685Y622489D01*
X427685Y675055D02*
X437675Y675055D01*
X437675Y666065D01*
X427685Y666065D01*
X427685Y675055D01*
X427685Y668473D02*
X437675Y668473D01*
X437675Y670881D02*
X427685Y670881D01*
X427685Y673289D02*
X437675Y673289D01*
X420675Y675055D02*
X410685Y675055D01*
X420675Y675055D02*
X420675Y666065D01*
X410685Y666065D01*
X410685Y675055D01*
X410685Y668473D02*
X420675Y668473D01*
X420675Y670881D02*
X410685Y670881D01*
X410685Y673289D02*
X420675Y673289D01*
X361475Y675055D02*
X351485Y675055D01*
X361475Y675055D02*
X361475Y666065D01*
X351485Y666065D01*
X351485Y675055D01*
X351485Y668473D02*
X361475Y668473D01*
X361475Y670881D02*
X351485Y670881D01*
X351485Y673289D02*
X361475Y673289D01*
X344475Y675055D02*
X334485Y675055D01*
X344475Y675055D02*
X344475Y666065D01*
X334485Y666065D01*
X334485Y675055D01*
X334485Y668473D02*
X344475Y668473D01*
X344475Y670881D02*
X334485Y670881D01*
X334485Y673289D02*
X344475Y673289D01*
X436085Y577165D02*
X446075Y577165D01*
X436085Y577165D02*
X436085Y586155D01*
X446075Y586155D01*
X446075Y577165D01*
X446075Y579573D02*
X436085Y579573D01*
X436085Y581981D02*
X446075Y581981D01*
X446075Y584389D02*
X436085Y584389D01*
X453085Y577165D02*
X463075Y577165D01*
X453085Y577165D02*
X453085Y586155D01*
X463075Y586155D01*
X463075Y577165D01*
X463075Y579573D02*
X453085Y579573D01*
X453085Y581981D02*
X463075Y581981D01*
X463075Y584389D02*
X453085Y584389D01*
D10*
X652910Y652660D03*
X652910Y647660D03*
X652910Y642660D03*
X652910Y637660D03*
D11*
X647660Y652910D03*
X642660Y652910D03*
D10*
X637410Y637660D03*
X637410Y642660D03*
X637410Y647660D03*
X637410Y652660D03*
D11*
X642660Y637410D03*
X647660Y637410D03*
D12*
X522665Y667615D02*
X522665Y678705D01*
X541755Y678705D01*
X541755Y667615D01*
X522665Y667615D01*
X522665Y669927D02*
X541755Y669927D01*
X541755Y672239D02*
X522665Y672239D01*
X522665Y674551D02*
X541755Y674551D01*
X541755Y676863D02*
X522665Y676863D01*
X522665Y622705D02*
X522665Y611615D01*
X522665Y622705D02*
X541755Y622705D01*
X541755Y611615D01*
X522665Y611615D01*
X522665Y613927D02*
X541755Y613927D01*
X541755Y616239D02*
X522665Y616239D01*
X522665Y618551D02*
X541755Y618551D01*
X541755Y620863D02*
X522665Y620863D01*
D13*
X562727Y657677D02*
X562727Y662643D01*
X575193Y662643D01*
X575193Y657677D01*
X562727Y657677D01*
X562727Y660107D02*
X575193Y660107D01*
X575193Y662537D02*
X562727Y662537D01*
X562727Y652643D02*
X562727Y647677D01*
X562727Y652643D02*
X575193Y652643D01*
X575193Y647677D01*
X562727Y647677D01*
X562727Y650107D02*
X575193Y650107D01*
X575193Y652537D02*
X562727Y652537D01*
X562727Y642643D02*
X562727Y637677D01*
X562727Y642643D02*
X575193Y642643D01*
X575193Y637677D01*
X562727Y637677D01*
X562727Y640107D02*
X575193Y640107D01*
X575193Y642537D02*
X562727Y642537D01*
X562727Y632643D02*
X562727Y627677D01*
X562727Y632643D02*
X575193Y632643D01*
X575193Y627677D01*
X562727Y627677D01*
X562727Y630107D02*
X575193Y630107D01*
X575193Y632537D02*
X562727Y632537D01*
D12*
X767655Y622705D02*
X767655Y611615D01*
X748565Y611615D01*
X748565Y622705D01*
X767655Y622705D01*
X767655Y613927D02*
X748565Y613927D01*
X748565Y616239D02*
X767655Y616239D01*
X767655Y618551D02*
X748565Y618551D01*
X748565Y620863D02*
X767655Y620863D01*
X767655Y667615D02*
X767655Y678705D01*
X767655Y667615D02*
X748565Y667615D01*
X748565Y678705D01*
X767655Y678705D01*
X767655Y669927D02*
X748565Y669927D01*
X748565Y672239D02*
X767655Y672239D01*
X767655Y674551D02*
X748565Y674551D01*
X748565Y676863D02*
X767655Y676863D01*
D13*
X727593Y632643D02*
X727593Y627677D01*
X715127Y627677D01*
X715127Y632643D01*
X727593Y632643D01*
X727593Y630107D02*
X715127Y630107D01*
X715127Y632537D02*
X727593Y632537D01*
X727593Y637677D02*
X727593Y642643D01*
X727593Y637677D02*
X715127Y637677D01*
X715127Y642643D01*
X727593Y642643D01*
X727593Y640107D02*
X715127Y640107D01*
X715127Y642537D02*
X727593Y642537D01*
X727593Y647677D02*
X727593Y652643D01*
X727593Y647677D02*
X715127Y647677D01*
X715127Y652643D01*
X727593Y652643D01*
X727593Y650107D02*
X715127Y650107D01*
X715127Y652537D02*
X727593Y652537D01*
X727593Y657677D02*
X727593Y662643D01*
X727593Y657677D02*
X715127Y657677D01*
X715127Y662643D01*
X727593Y662643D01*
X727593Y660107D02*
X715127Y660107D01*
X715127Y662537D02*
X727593Y662537D01*
D14*
X721360Y734060D03*
X530860Y581660D03*
D15*
X543560Y746760D03*
X746760Y746760D03*
X746760Y543560D03*
X543560Y543560D03*
D16*
X581660Y530860D03*
X607060Y530860D03*
X632460Y530860D03*
X657860Y530860D03*
X683260Y530860D03*
X708660Y530860D03*
X657860Y759460D03*
X632460Y759460D03*
D17*
X669765Y640665D02*
X679755Y640665D01*
X669765Y640665D02*
X669765Y649655D01*
X679755Y649655D01*
X679755Y640665D01*
X679755Y643073D02*
X669765Y643073D01*
X669765Y645481D02*
X679755Y645481D01*
X679755Y647889D02*
X669765Y647889D01*
X686765Y640665D02*
X696755Y640665D01*
X686765Y640665D02*
X686765Y649655D01*
X696755Y649655D01*
X696755Y640665D01*
X696755Y643073D02*
X686765Y643073D01*
X686765Y645481D02*
X696755Y645481D01*
X696755Y647889D02*
X686765Y647889D01*
X620555Y649655D02*
X610565Y649655D01*
X620555Y649655D02*
X620555Y640665D01*
X610565Y640665D01*
X610565Y649655D01*
X610565Y643073D02*
X620555Y643073D01*
X620555Y645481D02*
X610565Y645481D01*
X610565Y647889D02*
X620555Y647889D01*
X603555Y649655D02*
X593565Y649655D01*
X603555Y649655D02*
X603555Y640665D01*
X593565Y640665D01*
X593565Y649655D01*
X593565Y643073D02*
X603555Y643073D01*
X603555Y645481D02*
X593565Y645481D01*
X593565Y647889D02*
X603555Y647889D01*
D18*
X752015Y705145D02*
X752015Y712175D01*
X759045Y712175D01*
X759045Y705145D01*
X752015Y705145D01*
X752015Y709414D02*
X759045Y709414D01*
X734475Y712175D02*
X734475Y705145D01*
X734475Y712175D02*
X741505Y712175D01*
X741505Y705145D01*
X734475Y705145D01*
X734475Y709414D02*
X741505Y709414D01*
D17*
X743255Y685115D02*
X733265Y685115D01*
X733265Y694105D01*
X743255Y694105D01*
X743255Y685115D01*
X743255Y687523D02*
X733265Y687523D01*
X733265Y689931D02*
X743255Y689931D01*
X743255Y692339D02*
X733265Y692339D01*
X750265Y685115D02*
X760255Y685115D01*
X750265Y685115D02*
X750265Y694105D01*
X760255Y694105D01*
X760255Y685115D01*
X760255Y687523D02*
X750265Y687523D01*
X750265Y689931D02*
X760255Y689931D01*
X760255Y692339D02*
X750265Y692339D01*
X603555Y615265D02*
X593565Y615265D01*
X593565Y624255D01*
X603555Y624255D01*
X603555Y615265D01*
X603555Y617673D02*
X593565Y617673D01*
X593565Y620081D02*
X603555Y620081D01*
X603555Y622489D02*
X593565Y622489D01*
X610565Y615265D02*
X620555Y615265D01*
X610565Y615265D02*
X610565Y624255D01*
X620555Y624255D01*
X620555Y615265D01*
X620555Y617673D02*
X610565Y617673D01*
X610565Y620081D02*
X620555Y620081D01*
X620555Y622489D02*
X610565Y622489D01*
X669765Y615265D02*
X679755Y615265D01*
X669765Y615265D02*
X669765Y624255D01*
X679755Y624255D01*
X679755Y615265D01*
X679755Y617673D02*
X669765Y617673D01*
X669765Y620081D02*
X679755Y620081D01*
X679755Y622489D02*
X669765Y622489D01*
X686765Y615265D02*
X696755Y615265D01*
X686765Y615265D02*
X686765Y624255D01*
X696755Y624255D01*
X696755Y615265D01*
X696755Y617673D02*
X686765Y617673D01*
X686765Y620081D02*
X696755Y620081D01*
X696755Y622489D02*
X686765Y622489D01*
X686765Y675055D02*
X696755Y675055D01*
X696755Y666065D01*
X686765Y666065D01*
X686765Y675055D01*
X686765Y668473D02*
X696755Y668473D01*
X696755Y670881D02*
X686765Y670881D01*
X686765Y673289D02*
X696755Y673289D01*
X679755Y675055D02*
X669765Y675055D01*
X679755Y675055D02*
X679755Y666065D01*
X669765Y666065D01*
X669765Y675055D01*
X669765Y668473D02*
X679755Y668473D01*
X679755Y670881D02*
X669765Y670881D01*
X669765Y673289D02*
X679755Y673289D01*
X620555Y675055D02*
X610565Y675055D01*
X620555Y675055D02*
X620555Y666065D01*
X610565Y666065D01*
X610565Y675055D01*
X610565Y668473D02*
X620555Y668473D01*
X620555Y670881D02*
X610565Y670881D01*
X610565Y673289D02*
X620555Y673289D01*
X603555Y675055D02*
X593565Y675055D01*
X603555Y675055D02*
X603555Y666065D01*
X593565Y666065D01*
X593565Y675055D01*
X593565Y668473D02*
X603555Y668473D01*
X603555Y670881D02*
X593565Y670881D01*
X593565Y673289D02*
X603555Y673289D01*
X695165Y577165D02*
X705155Y577165D01*
X695165Y577165D02*
X695165Y586155D01*
X705155Y586155D01*
X705155Y577165D01*
X705155Y579573D02*
X695165Y579573D01*
X695165Y581981D02*
X705155Y581981D01*
X705155Y584389D02*
X695165Y584389D01*
X712165Y577165D02*
X722155Y577165D01*
X712165Y577165D02*
X712165Y586155D01*
X722155Y586155D01*
X722155Y577165D01*
X722155Y579573D02*
X712165Y579573D01*
X712165Y581981D02*
X722155Y581981D01*
X722155Y584389D02*
X712165Y584389D01*
D10*
X911990Y652660D03*
X911990Y647660D03*
X911990Y642660D03*
X911990Y637660D03*
D11*
X906740Y652910D03*
X901740Y652910D03*
D10*
X896490Y637660D03*
X896490Y642660D03*
X896490Y647660D03*
X896490Y652660D03*
D11*
X901740Y637410D03*
X906740Y637410D03*
D12*
X781745Y667615D02*
X781745Y678705D01*
X800835Y678705D01*
X800835Y667615D01*
X781745Y667615D01*
X781745Y669927D02*
X800835Y669927D01*
X800835Y672239D02*
X781745Y672239D01*
X781745Y674551D02*
X800835Y674551D01*
X800835Y676863D02*
X781745Y676863D01*
X781745Y622705D02*
X781745Y611615D01*
X781745Y622705D02*
X800835Y622705D01*
X800835Y611615D01*
X781745Y611615D01*
X781745Y613927D02*
X800835Y613927D01*
X800835Y616239D02*
X781745Y616239D01*
X781745Y618551D02*
X800835Y618551D01*
X800835Y620863D02*
X781745Y620863D01*
D13*
X821807Y657677D02*
X821807Y662643D01*
X834273Y662643D01*
X834273Y657677D01*
X821807Y657677D01*
X821807Y660107D02*
X834273Y660107D01*
X834273Y662537D02*
X821807Y662537D01*
X821807Y652643D02*
X821807Y647677D01*
X821807Y652643D02*
X834273Y652643D01*
X834273Y647677D01*
X821807Y647677D01*
X821807Y650107D02*
X834273Y650107D01*
X834273Y652537D02*
X821807Y652537D01*
X821807Y642643D02*
X821807Y637677D01*
X821807Y642643D02*
X834273Y642643D01*
X834273Y637677D01*
X821807Y637677D01*
X821807Y640107D02*
X834273Y640107D01*
X834273Y642537D02*
X821807Y642537D01*
X821807Y632643D02*
X821807Y627677D01*
X821807Y632643D02*
X834273Y632643D01*
X834273Y627677D01*
X821807Y627677D01*
X821807Y630107D02*
X834273Y630107D01*
X834273Y632537D02*
X821807Y632537D01*
D12*
X1026735Y622705D02*
X1026735Y611615D01*
X1007645Y611615D01*
X1007645Y622705D01*
X1026735Y622705D01*
X1026735Y613927D02*
X1007645Y613927D01*
X1007645Y616239D02*
X1026735Y616239D01*
X1026735Y618551D02*
X1007645Y618551D01*
X1007645Y620863D02*
X1026735Y620863D01*
X1026735Y667615D02*
X1026735Y678705D01*
X1026735Y667615D02*
X1007645Y667615D01*
X1007645Y678705D01*
X1026735Y678705D01*
X1026735Y669927D02*
X1007645Y669927D01*
X1007645Y672239D02*
X1026735Y672239D01*
X1026735Y674551D02*
X1007645Y674551D01*
X1007645Y676863D02*
X1026735Y676863D01*
D13*
X986673Y632643D02*
X986673Y627677D01*
X974207Y627677D01*
X974207Y632643D01*
X986673Y632643D01*
X986673Y630107D02*
X974207Y630107D01*
X974207Y632537D02*
X986673Y632537D01*
X986673Y637677D02*
X986673Y642643D01*
X986673Y637677D02*
X974207Y637677D01*
X974207Y642643D01*
X986673Y642643D01*
X986673Y640107D02*
X974207Y640107D01*
X974207Y642537D02*
X986673Y642537D01*
X986673Y647677D02*
X986673Y652643D01*
X986673Y647677D02*
X974207Y647677D01*
X974207Y652643D01*
X986673Y652643D01*
X986673Y650107D02*
X974207Y650107D01*
X974207Y652537D02*
X986673Y652537D01*
X986673Y657677D02*
X986673Y662643D01*
X986673Y657677D02*
X974207Y657677D01*
X974207Y662643D01*
X986673Y662643D01*
X986673Y660107D02*
X974207Y660107D01*
X974207Y662537D02*
X986673Y662537D01*
D14*
X980440Y734060D03*
X789940Y581660D03*
D15*
X802640Y746760D03*
X1005840Y746760D03*
X1005840Y543560D03*
X802640Y543560D03*
D16*
X840740Y530860D03*
X866140Y530860D03*
X891540Y530860D03*
X916940Y530860D03*
X942340Y530860D03*
X967740Y530860D03*
X916940Y759460D03*
X891540Y759460D03*
D17*
X928845Y640665D02*
X938835Y640665D01*
X928845Y640665D02*
X928845Y649655D01*
X938835Y649655D01*
X938835Y640665D01*
X938835Y643073D02*
X928845Y643073D01*
X928845Y645481D02*
X938835Y645481D01*
X938835Y647889D02*
X928845Y647889D01*
X945845Y640665D02*
X955835Y640665D01*
X945845Y640665D02*
X945845Y649655D01*
X955835Y649655D01*
X955835Y640665D01*
X955835Y643073D02*
X945845Y643073D01*
X945845Y645481D02*
X955835Y645481D01*
X955835Y647889D02*
X945845Y647889D01*
X879635Y649655D02*
X869645Y649655D01*
X879635Y649655D02*
X879635Y640665D01*
X869645Y640665D01*
X869645Y649655D01*
X869645Y643073D02*
X879635Y643073D01*
X879635Y645481D02*
X869645Y645481D01*
X869645Y647889D02*
X879635Y647889D01*
X862635Y649655D02*
X852645Y649655D01*
X862635Y649655D02*
X862635Y640665D01*
X852645Y640665D01*
X852645Y649655D01*
X852645Y643073D02*
X862635Y643073D01*
X862635Y645481D02*
X852645Y645481D01*
X852645Y647889D02*
X862635Y647889D01*
D18*
X1011095Y705145D02*
X1011095Y712175D01*
X1018125Y712175D01*
X1018125Y705145D01*
X1011095Y705145D01*
X1011095Y709414D02*
X1018125Y709414D01*
X993555Y712175D02*
X993555Y705145D01*
X993555Y712175D02*
X1000585Y712175D01*
X1000585Y705145D01*
X993555Y705145D01*
X993555Y709414D02*
X1000585Y709414D01*
D17*
X1002335Y685115D02*
X992345Y685115D01*
X992345Y694105D01*
X1002335Y694105D01*
X1002335Y685115D01*
X1002335Y687523D02*
X992345Y687523D01*
X992345Y689931D02*
X1002335Y689931D01*
X1002335Y692339D02*
X992345Y692339D01*
X1009345Y685115D02*
X1019335Y685115D01*
X1009345Y685115D02*
X1009345Y694105D01*
X1019335Y694105D01*
X1019335Y685115D01*
X1019335Y687523D02*
X1009345Y687523D01*
X1009345Y689931D02*
X1019335Y689931D01*
X1019335Y692339D02*
X1009345Y692339D01*
X862635Y615265D02*
X852645Y615265D01*
X852645Y624255D01*
X862635Y624255D01*
X862635Y615265D01*
X862635Y617673D02*
X852645Y617673D01*
X852645Y620081D02*
X862635Y620081D01*
X862635Y622489D02*
X852645Y622489D01*
X869645Y615265D02*
X879635Y615265D01*
X869645Y615265D02*
X869645Y624255D01*
X879635Y624255D01*
X879635Y615265D01*
X879635Y617673D02*
X869645Y617673D01*
X869645Y620081D02*
X879635Y620081D01*
X879635Y622489D02*
X869645Y622489D01*
X928845Y615265D02*
X938835Y615265D01*
X928845Y615265D02*
X928845Y624255D01*
X938835Y624255D01*
X938835Y615265D01*
X938835Y617673D02*
X928845Y617673D01*
X928845Y620081D02*
X938835Y620081D01*
X938835Y622489D02*
X928845Y622489D01*
X945845Y615265D02*
X955835Y615265D01*
X945845Y615265D02*
X945845Y624255D01*
X955835Y624255D01*
X955835Y615265D01*
X955835Y617673D02*
X945845Y617673D01*
X945845Y620081D02*
X955835Y620081D01*
X955835Y622489D02*
X945845Y622489D01*
X945845Y675055D02*
X955835Y675055D01*
X955835Y666065D01*
X945845Y666065D01*
X945845Y675055D01*
X945845Y668473D02*
X955835Y668473D01*
X955835Y670881D02*
X945845Y670881D01*
X945845Y673289D02*
X955835Y673289D01*
X938835Y675055D02*
X928845Y675055D01*
X938835Y675055D02*
X938835Y666065D01*
X928845Y666065D01*
X928845Y675055D01*
X928845Y668473D02*
X938835Y668473D01*
X938835Y670881D02*
X928845Y670881D01*
X928845Y673289D02*
X938835Y673289D01*
X879635Y675055D02*
X869645Y675055D01*
X879635Y675055D02*
X879635Y666065D01*
X869645Y666065D01*
X869645Y675055D01*
X869645Y668473D02*
X879635Y668473D01*
X879635Y670881D02*
X869645Y670881D01*
X869645Y673289D02*
X879635Y673289D01*
X862635Y675055D02*
X852645Y675055D01*
X862635Y675055D02*
X862635Y666065D01*
X852645Y666065D01*
X852645Y675055D01*
X852645Y668473D02*
X862635Y668473D01*
X862635Y670881D02*
X852645Y670881D01*
X852645Y673289D02*
X862635Y673289D01*
X954245Y577165D02*
X964235Y577165D01*
X954245Y577165D02*
X954245Y586155D01*
X964235Y586155D01*
X964235Y577165D01*
X964235Y579573D02*
X954245Y579573D01*
X954245Y581981D02*
X964235Y581981D01*
X964235Y584389D02*
X954245Y584389D01*
X971245Y577165D02*
X981235Y577165D01*
X971245Y577165D02*
X971245Y586155D01*
X981235Y586155D01*
X981235Y577165D01*
X981235Y579573D02*
X971245Y579573D01*
X971245Y581981D02*
X981235Y581981D01*
X981235Y584389D02*
X971245Y584389D01*
D10*
X1171070Y652660D03*
X1171070Y647660D03*
X1171070Y642660D03*
X1171070Y637660D03*
D11*
X1165820Y652910D03*
X1160820Y652910D03*
D10*
X1155570Y637660D03*
X1155570Y642660D03*
X1155570Y647660D03*
X1155570Y652660D03*
D11*
X1160820Y637410D03*
X1165820Y637410D03*
D12*
X1040825Y667615D02*
X1040825Y678705D01*
X1059915Y678705D01*
X1059915Y667615D01*
X1040825Y667615D01*
X1040825Y669927D02*
X1059915Y669927D01*
X1059915Y672239D02*
X1040825Y672239D01*
X1040825Y674551D02*
X1059915Y674551D01*
X1059915Y676863D02*
X1040825Y676863D01*
X1040825Y622705D02*
X1040825Y611615D01*
X1040825Y622705D02*
X1059915Y622705D01*
X1059915Y611615D01*
X1040825Y611615D01*
X1040825Y613927D02*
X1059915Y613927D01*
X1059915Y616239D02*
X1040825Y616239D01*
X1040825Y618551D02*
X1059915Y618551D01*
X1059915Y620863D02*
X1040825Y620863D01*
D13*
X1080887Y657677D02*
X1080887Y662643D01*
X1093353Y662643D01*
X1093353Y657677D01*
X1080887Y657677D01*
X1080887Y660107D02*
X1093353Y660107D01*
X1093353Y662537D02*
X1080887Y662537D01*
X1080887Y652643D02*
X1080887Y647677D01*
X1080887Y652643D02*
X1093353Y652643D01*
X1093353Y647677D01*
X1080887Y647677D01*
X1080887Y650107D02*
X1093353Y650107D01*
X1093353Y652537D02*
X1080887Y652537D01*
X1080887Y642643D02*
X1080887Y637677D01*
X1080887Y642643D02*
X1093353Y642643D01*
X1093353Y637677D01*
X1080887Y637677D01*
X1080887Y640107D02*
X1093353Y640107D01*
X1093353Y642537D02*
X1080887Y642537D01*
X1080887Y632643D02*
X1080887Y627677D01*
X1080887Y632643D02*
X1093353Y632643D01*
X1093353Y627677D01*
X1080887Y627677D01*
X1080887Y630107D02*
X1093353Y630107D01*
X1093353Y632537D02*
X1080887Y632537D01*
D12*
X1285815Y622705D02*
X1285815Y611615D01*
X1266725Y611615D01*
X1266725Y622705D01*
X1285815Y622705D01*
X1285815Y613927D02*
X1266725Y613927D01*
X1266725Y616239D02*
X1285815Y616239D01*
X1285815Y618551D02*
X1266725Y618551D01*
X1266725Y620863D02*
X1285815Y620863D01*
X1285815Y667615D02*
X1285815Y678705D01*
X1285815Y667615D02*
X1266725Y667615D01*
X1266725Y678705D01*
X1285815Y678705D01*
X1285815Y669927D02*
X1266725Y669927D01*
X1266725Y672239D02*
X1285815Y672239D01*
X1285815Y674551D02*
X1266725Y674551D01*
X1266725Y676863D02*
X1285815Y676863D01*
D13*
X1245753Y632643D02*
X1245753Y627677D01*
X1233287Y627677D01*
X1233287Y632643D01*
X1245753Y632643D01*
X1245753Y630107D02*
X1233287Y630107D01*
X1233287Y632537D02*
X1245753Y632537D01*
X1245753Y637677D02*
X1245753Y642643D01*
X1245753Y637677D02*
X1233287Y637677D01*
X1233287Y642643D01*
X1245753Y642643D01*
X1245753Y640107D02*
X1233287Y640107D01*
X1233287Y642537D02*
X1245753Y642537D01*
X1245753Y647677D02*
X1245753Y652643D01*
X1245753Y647677D02*
X1233287Y647677D01*
X1233287Y652643D01*
X1245753Y652643D01*
X1245753Y650107D02*
X1233287Y650107D01*
X1233287Y652537D02*
X1245753Y652537D01*
X1245753Y657677D02*
X1245753Y662643D01*
X1245753Y657677D02*
X1233287Y657677D01*
X1233287Y662643D01*
X1245753Y662643D01*
X1245753Y660107D02*
X1233287Y660107D01*
X1233287Y662537D02*
X1245753Y662537D01*
D14*
X1239520Y734060D03*
X1049020Y581660D03*
D15*
X1061720Y746760D03*
X1264920Y746760D03*
X1264920Y543560D03*
X1061720Y543560D03*
D16*
X1099820Y530860D03*
X1125220Y530860D03*
X1150620Y530860D03*
X1176020Y530860D03*
X1201420Y530860D03*
X1226820Y530860D03*
X1176020Y759460D03*
X1150620Y759460D03*
D17*
X1187925Y640665D02*
X1197915Y640665D01*
X1187925Y640665D02*
X1187925Y649655D01*
X1197915Y649655D01*
X1197915Y640665D01*
X1197915Y643073D02*
X1187925Y643073D01*
X1187925Y645481D02*
X1197915Y645481D01*
X1197915Y647889D02*
X1187925Y647889D01*
X1204925Y640665D02*
X1214915Y640665D01*
X1204925Y640665D02*
X1204925Y649655D01*
X1214915Y649655D01*
X1214915Y640665D01*
X1214915Y643073D02*
X1204925Y643073D01*
X1204925Y645481D02*
X1214915Y645481D01*
X1214915Y647889D02*
X1204925Y647889D01*
X1138715Y649655D02*
X1128725Y649655D01*
X1138715Y649655D02*
X1138715Y640665D01*
X1128725Y640665D01*
X1128725Y649655D01*
X1128725Y643073D02*
X1138715Y643073D01*
X1138715Y645481D02*
X1128725Y645481D01*
X1128725Y647889D02*
X1138715Y647889D01*
X1121715Y649655D02*
X1111725Y649655D01*
X1121715Y649655D02*
X1121715Y640665D01*
X1111725Y640665D01*
X1111725Y649655D01*
X1111725Y643073D02*
X1121715Y643073D01*
X1121715Y645481D02*
X1111725Y645481D01*
X1111725Y647889D02*
X1121715Y647889D01*
D18*
X1270175Y705145D02*
X1270175Y712175D01*
X1277205Y712175D01*
X1277205Y705145D01*
X1270175Y705145D01*
X1270175Y709414D02*
X1277205Y709414D01*
X1252635Y712175D02*
X1252635Y705145D01*
X1252635Y712175D02*
X1259665Y712175D01*
X1259665Y705145D01*
X1252635Y705145D01*
X1252635Y709414D02*
X1259665Y709414D01*
D17*
X1261415Y685115D02*
X1251425Y685115D01*
X1251425Y694105D01*
X1261415Y694105D01*
X1261415Y685115D01*
X1261415Y687523D02*
X1251425Y687523D01*
X1251425Y689931D02*
X1261415Y689931D01*
X1261415Y692339D02*
X1251425Y692339D01*
X1268425Y685115D02*
X1278415Y685115D01*
X1268425Y685115D02*
X1268425Y694105D01*
X1278415Y694105D01*
X1278415Y685115D01*
X1278415Y687523D02*
X1268425Y687523D01*
X1268425Y689931D02*
X1278415Y689931D01*
X1278415Y692339D02*
X1268425Y692339D01*
X1121715Y615265D02*
X1111725Y615265D01*
X1111725Y624255D01*
X1121715Y624255D01*
X1121715Y615265D01*
X1121715Y617673D02*
X1111725Y617673D01*
X1111725Y620081D02*
X1121715Y620081D01*
X1121715Y622489D02*
X1111725Y622489D01*
X1128725Y615265D02*
X1138715Y615265D01*
X1128725Y615265D02*
X1128725Y624255D01*
X1138715Y624255D01*
X1138715Y615265D01*
X1138715Y617673D02*
X1128725Y617673D01*
X1128725Y620081D02*
X1138715Y620081D01*
X1138715Y622489D02*
X1128725Y622489D01*
X1187925Y615265D02*
X1197915Y615265D01*
X1187925Y615265D02*
X1187925Y624255D01*
X1197915Y624255D01*
X1197915Y615265D01*
X1197915Y617673D02*
X1187925Y617673D01*
X1187925Y620081D02*
X1197915Y620081D01*
X1197915Y622489D02*
X1187925Y622489D01*
X1204925Y615265D02*
X1214915Y615265D01*
X1204925Y615265D02*
X1204925Y624255D01*
X1214915Y624255D01*
X1214915Y615265D01*
X1214915Y617673D02*
X1204925Y617673D01*
X1204925Y620081D02*
X1214915Y620081D01*
X1214915Y622489D02*
X1204925Y622489D01*
X1204925Y675055D02*
X1214915Y675055D01*
X1214915Y666065D01*
X1204925Y666065D01*
X1204925Y675055D01*
X1204925Y668473D02*
X1214915Y668473D01*
X1214915Y670881D02*
X1204925Y670881D01*
X1204925Y673289D02*
X1214915Y673289D01*
X1197915Y675055D02*
X1187925Y675055D01*
X1197915Y675055D02*
X1197915Y666065D01*
X1187925Y666065D01*
X1187925Y675055D01*
X1187925Y668473D02*
X1197915Y668473D01*
X1197915Y670881D02*
X1187925Y670881D01*
X1187925Y673289D02*
X1197915Y673289D01*
X1138715Y675055D02*
X1128725Y675055D01*
X1138715Y675055D02*
X1138715Y666065D01*
X1128725Y666065D01*
X1128725Y675055D01*
X1128725Y668473D02*
X1138715Y668473D01*
X1138715Y670881D02*
X1128725Y670881D01*
X1128725Y673289D02*
X1138715Y673289D01*
X1121715Y675055D02*
X1111725Y675055D01*
X1121715Y675055D02*
X1121715Y666065D01*
X1111725Y666065D01*
X1111725Y675055D01*
X1111725Y668473D02*
X1121715Y668473D01*
X1121715Y670881D02*
X1111725Y670881D01*
X1111725Y673289D02*
X1121715Y673289D01*
X1213325Y577165D02*
X1223315Y577165D01*
X1213325Y577165D02*
X1213325Y586155D01*
X1223315Y586155D01*
X1223315Y577165D01*
X1223315Y579573D02*
X1213325Y579573D01*
X1213325Y581981D02*
X1223315Y581981D01*
X1223315Y584389D02*
X1213325Y584389D01*
X1230325Y577165D02*
X1240315Y577165D01*
X1230325Y577165D02*
X1230325Y586155D01*
X1240315Y586155D01*
X1240315Y577165D01*
X1240315Y579573D02*
X1230325Y579573D01*
X1230325Y581981D02*
X1240315Y581981D01*
X1240315Y584389D02*
X1230325Y584389D01*
D10*
X1430150Y652660D03*
X1430150Y647660D03*
X1430150Y642660D03*
X1430150Y637660D03*
D11*
X1424900Y652910D03*
X1419900Y652910D03*
D10*
X1414650Y637660D03*
X1414650Y642660D03*
X1414650Y647660D03*
X1414650Y652660D03*
D11*
X1419900Y637410D03*
X1424900Y637410D03*
D12*
X1299905Y667615D02*
X1299905Y678705D01*
X1318995Y678705D01*
X1318995Y667615D01*
X1299905Y667615D01*
X1299905Y669927D02*
X1318995Y669927D01*
X1318995Y672239D02*
X1299905Y672239D01*
X1299905Y674551D02*
X1318995Y674551D01*
X1318995Y676863D02*
X1299905Y676863D01*
X1299905Y622705D02*
X1299905Y611615D01*
X1299905Y622705D02*
X1318995Y622705D01*
X1318995Y611615D01*
X1299905Y611615D01*
X1299905Y613927D02*
X1318995Y613927D01*
X1318995Y616239D02*
X1299905Y616239D01*
X1299905Y618551D02*
X1318995Y618551D01*
X1318995Y620863D02*
X1299905Y620863D01*
D13*
X1339967Y657677D02*
X1339967Y662643D01*
X1352433Y662643D01*
X1352433Y657677D01*
X1339967Y657677D01*
X1339967Y660107D02*
X1352433Y660107D01*
X1352433Y662537D02*
X1339967Y662537D01*
X1339967Y652643D02*
X1339967Y647677D01*
X1339967Y652643D02*
X1352433Y652643D01*
X1352433Y647677D01*
X1339967Y647677D01*
X1339967Y650107D02*
X1352433Y650107D01*
X1352433Y652537D02*
X1339967Y652537D01*
X1339967Y642643D02*
X1339967Y637677D01*
X1339967Y642643D02*
X1352433Y642643D01*
X1352433Y637677D01*
X1339967Y637677D01*
X1339967Y640107D02*
X1352433Y640107D01*
X1352433Y642537D02*
X1339967Y642537D01*
X1339967Y632643D02*
X1339967Y627677D01*
X1339967Y632643D02*
X1352433Y632643D01*
X1352433Y627677D01*
X1339967Y627677D01*
X1339967Y630107D02*
X1352433Y630107D01*
X1352433Y632537D02*
X1339967Y632537D01*
D12*
X1544895Y622705D02*
X1544895Y611615D01*
X1525805Y611615D01*
X1525805Y622705D01*
X1544895Y622705D01*
X1544895Y613927D02*
X1525805Y613927D01*
X1525805Y616239D02*
X1544895Y616239D01*
X1544895Y618551D02*
X1525805Y618551D01*
X1525805Y620863D02*
X1544895Y620863D01*
X1544895Y667615D02*
X1544895Y678705D01*
X1544895Y667615D02*
X1525805Y667615D01*
X1525805Y678705D01*
X1544895Y678705D01*
X1544895Y669927D02*
X1525805Y669927D01*
X1525805Y672239D02*
X1544895Y672239D01*
X1544895Y674551D02*
X1525805Y674551D01*
X1525805Y676863D02*
X1544895Y676863D01*
D13*
X1504833Y632643D02*
X1504833Y627677D01*
X1492367Y627677D01*
X1492367Y632643D01*
X1504833Y632643D01*
X1504833Y630107D02*
X1492367Y630107D01*
X1492367Y632537D02*
X1504833Y632537D01*
X1504833Y637677D02*
X1504833Y642643D01*
X1504833Y637677D02*
X1492367Y637677D01*
X1492367Y642643D01*
X1504833Y642643D01*
X1504833Y640107D02*
X1492367Y640107D01*
X1492367Y642537D02*
X1504833Y642537D01*
X1504833Y647677D02*
X1504833Y652643D01*
X1504833Y647677D02*
X1492367Y647677D01*
X1492367Y652643D01*
X1504833Y652643D01*
X1504833Y650107D02*
X1492367Y650107D01*
X1492367Y652537D02*
X1504833Y652537D01*
X1504833Y657677D02*
X1504833Y662643D01*
X1504833Y657677D02*
X1492367Y657677D01*
X1492367Y662643D01*
X1504833Y662643D01*
X1504833Y660107D02*
X1492367Y660107D01*
X1492367Y662537D02*
X1504833Y662537D01*
D14*
X1498600Y734060D03*
X1308100Y581660D03*
D15*
X1320800Y746760D03*
X1524000Y746760D03*
X1524000Y543560D03*
X1320800Y543560D03*
D16*
X1358900Y530860D03*
X1384300Y530860D03*
X1409700Y530860D03*
X1435100Y530860D03*
X1460500Y530860D03*
X1485900Y530860D03*
X1435100Y759460D03*
X1409700Y759460D03*
D17*
X1447005Y640665D02*
X1456995Y640665D01*
X1447005Y640665D02*
X1447005Y649655D01*
X1456995Y649655D01*
X1456995Y640665D01*
X1456995Y643073D02*
X1447005Y643073D01*
X1447005Y645481D02*
X1456995Y645481D01*
X1456995Y647889D02*
X1447005Y647889D01*
X1464005Y640665D02*
X1473995Y640665D01*
X1464005Y640665D02*
X1464005Y649655D01*
X1473995Y649655D01*
X1473995Y640665D01*
X1473995Y643073D02*
X1464005Y643073D01*
X1464005Y645481D02*
X1473995Y645481D01*
X1473995Y647889D02*
X1464005Y647889D01*
X1397795Y649655D02*
X1387805Y649655D01*
X1397795Y649655D02*
X1397795Y640665D01*
X1387805Y640665D01*
X1387805Y649655D01*
X1387805Y643073D02*
X1397795Y643073D01*
X1397795Y645481D02*
X1387805Y645481D01*
X1387805Y647889D02*
X1397795Y647889D01*
X1380795Y649655D02*
X1370805Y649655D01*
X1380795Y649655D02*
X1380795Y640665D01*
X1370805Y640665D01*
X1370805Y649655D01*
X1370805Y643073D02*
X1380795Y643073D01*
X1380795Y645481D02*
X1370805Y645481D01*
X1370805Y647889D02*
X1380795Y647889D01*
D18*
X1529255Y705145D02*
X1529255Y712175D01*
X1536285Y712175D01*
X1536285Y705145D01*
X1529255Y705145D01*
X1529255Y709414D02*
X1536285Y709414D01*
X1511715Y712175D02*
X1511715Y705145D01*
X1511715Y712175D02*
X1518745Y712175D01*
X1518745Y705145D01*
X1511715Y705145D01*
X1511715Y709414D02*
X1518745Y709414D01*
D17*
X1520495Y685115D02*
X1510505Y685115D01*
X1510505Y694105D01*
X1520495Y694105D01*
X1520495Y685115D01*
X1520495Y687523D02*
X1510505Y687523D01*
X1510505Y689931D02*
X1520495Y689931D01*
X1520495Y692339D02*
X1510505Y692339D01*
X1527505Y685115D02*
X1537495Y685115D01*
X1527505Y685115D02*
X1527505Y694105D01*
X1537495Y694105D01*
X1537495Y685115D01*
X1537495Y687523D02*
X1527505Y687523D01*
X1527505Y689931D02*
X1537495Y689931D01*
X1537495Y692339D02*
X1527505Y692339D01*
X1380795Y615265D02*
X1370805Y615265D01*
X1370805Y624255D01*
X1380795Y624255D01*
X1380795Y615265D01*
X1380795Y617673D02*
X1370805Y617673D01*
X1370805Y620081D02*
X1380795Y620081D01*
X1380795Y622489D02*
X1370805Y622489D01*
X1387805Y615265D02*
X1397795Y615265D01*
X1387805Y615265D02*
X1387805Y624255D01*
X1397795Y624255D01*
X1397795Y615265D01*
X1397795Y617673D02*
X1387805Y617673D01*
X1387805Y620081D02*
X1397795Y620081D01*
X1397795Y622489D02*
X1387805Y622489D01*
X1447005Y615265D02*
X1456995Y615265D01*
X1447005Y615265D02*
X1447005Y624255D01*
X1456995Y624255D01*
X1456995Y615265D01*
X1456995Y617673D02*
X1447005Y617673D01*
X1447005Y620081D02*
X1456995Y620081D01*
X1456995Y622489D02*
X1447005Y622489D01*
X1464005Y615265D02*
X1473995Y615265D01*
X1464005Y615265D02*
X1464005Y624255D01*
X1473995Y624255D01*
X1473995Y615265D01*
X1473995Y617673D02*
X1464005Y617673D01*
X1464005Y620081D02*
X1473995Y620081D01*
X1473995Y622489D02*
X1464005Y622489D01*
X1464005Y675055D02*
X1473995Y675055D01*
X1473995Y666065D01*
X1464005Y666065D01*
X1464005Y675055D01*
X1464005Y668473D02*
X1473995Y668473D01*
X1473995Y670881D02*
X1464005Y670881D01*
X1464005Y673289D02*
X1473995Y673289D01*
X1456995Y675055D02*
X1447005Y675055D01*
X1456995Y675055D02*
X1456995Y666065D01*
X1447005Y666065D01*
X1447005Y675055D01*
X1447005Y668473D02*
X1456995Y668473D01*
X1456995Y670881D02*
X1447005Y670881D01*
X1447005Y673289D02*
X1456995Y673289D01*
X1397795Y675055D02*
X1387805Y675055D01*
X1397795Y675055D02*
X1397795Y666065D01*
X1387805Y666065D01*
X1387805Y675055D01*
X1387805Y668473D02*
X1397795Y668473D01*
X1397795Y670881D02*
X1387805Y670881D01*
X1387805Y673289D02*
X1397795Y673289D01*
X1380795Y675055D02*
X1370805Y675055D01*
X1380795Y675055D02*
X1380795Y666065D01*
X1370805Y666065D01*
X1370805Y675055D01*
X1370805Y668473D02*
X1380795Y668473D01*
X1380795Y670881D02*
X1370805Y670881D01*
X1370805Y673289D02*
X1380795Y673289D01*
X1472405Y577165D02*
X1482395Y577165D01*
X1472405Y577165D02*
X1472405Y586155D01*
X1482395Y586155D01*
X1482395Y577165D01*
X1482395Y579573D02*
X1472405Y579573D01*
X1472405Y581981D02*
X1482395Y581981D01*
X1482395Y584389D02*
X1472405Y584389D01*
X1489405Y577165D02*
X1499395Y577165D01*
X1489405Y577165D02*
X1489405Y586155D01*
X1499395Y586155D01*
X1499395Y577165D01*
X1499395Y579573D02*
X1489405Y579573D01*
X1489405Y581981D02*
X1499395Y581981D01*
X1499395Y584389D02*
X1489405Y584389D01*
D10*
X134750Y911740D03*
X134750Y906740D03*
X134750Y901740D03*
X134750Y896740D03*
D11*
X129500Y911990D03*
X124500Y911990D03*
D10*
X119250Y896740D03*
X119250Y901740D03*
X119250Y906740D03*
X119250Y911740D03*
D11*
X124500Y896490D03*
X129500Y896490D03*
D12*
X4505Y926695D02*
X4505Y937785D01*
X23595Y937785D01*
X23595Y926695D01*
X4505Y926695D01*
X4505Y929007D02*
X23595Y929007D01*
X23595Y931319D02*
X4505Y931319D01*
X4505Y933631D02*
X23595Y933631D01*
X23595Y935943D02*
X4505Y935943D01*
X4505Y881785D02*
X4505Y870695D01*
X4505Y881785D02*
X23595Y881785D01*
X23595Y870695D01*
X4505Y870695D01*
X4505Y873007D02*
X23595Y873007D01*
X23595Y875319D02*
X4505Y875319D01*
X4505Y877631D02*
X23595Y877631D01*
X23595Y879943D02*
X4505Y879943D01*
D13*
X44567Y916757D02*
X44567Y921723D01*
X57033Y921723D01*
X57033Y916757D01*
X44567Y916757D01*
X44567Y919187D02*
X57033Y919187D01*
X57033Y921617D02*
X44567Y921617D01*
X44567Y911723D02*
X44567Y906757D01*
X44567Y911723D02*
X57033Y911723D01*
X57033Y906757D01*
X44567Y906757D01*
X44567Y909187D02*
X57033Y909187D01*
X57033Y911617D02*
X44567Y911617D01*
X44567Y901723D02*
X44567Y896757D01*
X44567Y901723D02*
X57033Y901723D01*
X57033Y896757D01*
X44567Y896757D01*
X44567Y899187D02*
X57033Y899187D01*
X57033Y901617D02*
X44567Y901617D01*
X44567Y891723D02*
X44567Y886757D01*
X44567Y891723D02*
X57033Y891723D01*
X57033Y886757D01*
X44567Y886757D01*
X44567Y889187D02*
X57033Y889187D01*
X57033Y891617D02*
X44567Y891617D01*
D12*
X249495Y881785D02*
X249495Y870695D01*
X230405Y870695D01*
X230405Y881785D01*
X249495Y881785D01*
X249495Y873007D02*
X230405Y873007D01*
X230405Y875319D02*
X249495Y875319D01*
X249495Y877631D02*
X230405Y877631D01*
X230405Y879943D02*
X249495Y879943D01*
X249495Y926695D02*
X249495Y937785D01*
X249495Y926695D02*
X230405Y926695D01*
X230405Y937785D01*
X249495Y937785D01*
X249495Y929007D02*
X230405Y929007D01*
X230405Y931319D02*
X249495Y931319D01*
X249495Y933631D02*
X230405Y933631D01*
X230405Y935943D02*
X249495Y935943D01*
D13*
X209433Y891723D02*
X209433Y886757D01*
X196967Y886757D01*
X196967Y891723D01*
X209433Y891723D01*
X209433Y889187D02*
X196967Y889187D01*
X196967Y891617D02*
X209433Y891617D01*
X209433Y896757D02*
X209433Y901723D01*
X209433Y896757D02*
X196967Y896757D01*
X196967Y901723D01*
X209433Y901723D01*
X209433Y899187D02*
X196967Y899187D01*
X196967Y901617D02*
X209433Y901617D01*
X209433Y906757D02*
X209433Y911723D01*
X209433Y906757D02*
X196967Y906757D01*
X196967Y911723D01*
X209433Y911723D01*
X209433Y909187D02*
X196967Y909187D01*
X196967Y911617D02*
X209433Y911617D01*
X209433Y916757D02*
X209433Y921723D01*
X209433Y916757D02*
X196967Y916757D01*
X196967Y921723D01*
X209433Y921723D01*
X209433Y919187D02*
X196967Y919187D01*
X196967Y921617D02*
X209433Y921617D01*
D14*
X203200Y993140D03*
X12700Y840740D03*
D15*
X25400Y1005840D03*
X228600Y1005840D03*
X228600Y802640D03*
X25400Y802640D03*
D16*
X63500Y789940D03*
X88900Y789940D03*
X114300Y789940D03*
X139700Y789940D03*
X165100Y789940D03*
X190500Y789940D03*
X139700Y1018540D03*
X114300Y1018540D03*
D17*
X151605Y899745D02*
X161595Y899745D01*
X151605Y899745D02*
X151605Y908735D01*
X161595Y908735D01*
X161595Y899745D01*
X161595Y902153D02*
X151605Y902153D01*
X151605Y904561D02*
X161595Y904561D01*
X161595Y906969D02*
X151605Y906969D01*
X168605Y899745D02*
X178595Y899745D01*
X168605Y899745D02*
X168605Y908735D01*
X178595Y908735D01*
X178595Y899745D01*
X178595Y902153D02*
X168605Y902153D01*
X168605Y904561D02*
X178595Y904561D01*
X178595Y906969D02*
X168605Y906969D01*
X102395Y908735D02*
X92405Y908735D01*
X102395Y908735D02*
X102395Y899745D01*
X92405Y899745D01*
X92405Y908735D01*
X92405Y902153D02*
X102395Y902153D01*
X102395Y904561D02*
X92405Y904561D01*
X92405Y906969D02*
X102395Y906969D01*
X85395Y908735D02*
X75405Y908735D01*
X85395Y908735D02*
X85395Y899745D01*
X75405Y899745D01*
X75405Y908735D01*
X75405Y902153D02*
X85395Y902153D01*
X85395Y904561D02*
X75405Y904561D01*
X75405Y906969D02*
X85395Y906969D01*
D18*
X233855Y964225D02*
X233855Y971255D01*
X240885Y971255D01*
X240885Y964225D01*
X233855Y964225D01*
X233855Y968494D02*
X240885Y968494D01*
X216315Y971255D02*
X216315Y964225D01*
X216315Y971255D02*
X223345Y971255D01*
X223345Y964225D01*
X216315Y964225D01*
X216315Y968494D02*
X223345Y968494D01*
D17*
X225095Y944195D02*
X215105Y944195D01*
X215105Y953185D01*
X225095Y953185D01*
X225095Y944195D01*
X225095Y946603D02*
X215105Y946603D01*
X215105Y949011D02*
X225095Y949011D01*
X225095Y951419D02*
X215105Y951419D01*
X232105Y944195D02*
X242095Y944195D01*
X232105Y944195D02*
X232105Y953185D01*
X242095Y953185D01*
X242095Y944195D01*
X242095Y946603D02*
X232105Y946603D01*
X232105Y949011D02*
X242095Y949011D01*
X242095Y951419D02*
X232105Y951419D01*
X85395Y874345D02*
X75405Y874345D01*
X75405Y883335D01*
X85395Y883335D01*
X85395Y874345D01*
X85395Y876753D02*
X75405Y876753D01*
X75405Y879161D02*
X85395Y879161D01*
X85395Y881569D02*
X75405Y881569D01*
X92405Y874345D02*
X102395Y874345D01*
X92405Y874345D02*
X92405Y883335D01*
X102395Y883335D01*
X102395Y874345D01*
X102395Y876753D02*
X92405Y876753D01*
X92405Y879161D02*
X102395Y879161D01*
X102395Y881569D02*
X92405Y881569D01*
X151605Y874345D02*
X161595Y874345D01*
X151605Y874345D02*
X151605Y883335D01*
X161595Y883335D01*
X161595Y874345D01*
X161595Y876753D02*
X151605Y876753D01*
X151605Y879161D02*
X161595Y879161D01*
X161595Y881569D02*
X151605Y881569D01*
X168605Y874345D02*
X178595Y874345D01*
X168605Y874345D02*
X168605Y883335D01*
X178595Y883335D01*
X178595Y874345D01*
X178595Y876753D02*
X168605Y876753D01*
X168605Y879161D02*
X178595Y879161D01*
X178595Y881569D02*
X168605Y881569D01*
X168605Y934135D02*
X178595Y934135D01*
X178595Y925145D01*
X168605Y925145D01*
X168605Y934135D01*
X168605Y927553D02*
X178595Y927553D01*
X178595Y929961D02*
X168605Y929961D01*
X168605Y932369D02*
X178595Y932369D01*
X161595Y934135D02*
X151605Y934135D01*
X161595Y934135D02*
X161595Y925145D01*
X151605Y925145D01*
X151605Y934135D01*
X151605Y927553D02*
X161595Y927553D01*
X161595Y929961D02*
X151605Y929961D01*
X151605Y932369D02*
X161595Y932369D01*
X102395Y934135D02*
X92405Y934135D01*
X102395Y934135D02*
X102395Y925145D01*
X92405Y925145D01*
X92405Y934135D01*
X92405Y927553D02*
X102395Y927553D01*
X102395Y929961D02*
X92405Y929961D01*
X92405Y932369D02*
X102395Y932369D01*
X85395Y934135D02*
X75405Y934135D01*
X85395Y934135D02*
X85395Y925145D01*
X75405Y925145D01*
X75405Y934135D01*
X75405Y927553D02*
X85395Y927553D01*
X85395Y929961D02*
X75405Y929961D01*
X75405Y932369D02*
X85395Y932369D01*
X177005Y836245D02*
X186995Y836245D01*
X177005Y836245D02*
X177005Y845235D01*
X186995Y845235D01*
X186995Y836245D01*
X186995Y838653D02*
X177005Y838653D01*
X177005Y841061D02*
X186995Y841061D01*
X186995Y843469D02*
X177005Y843469D01*
X194005Y836245D02*
X203995Y836245D01*
X194005Y836245D02*
X194005Y845235D01*
X203995Y845235D01*
X203995Y836245D01*
X203995Y838653D02*
X194005Y838653D01*
X194005Y841061D02*
X203995Y841061D01*
X203995Y843469D02*
X194005Y843469D01*
D10*
X393830Y911740D03*
X393830Y906740D03*
X393830Y901740D03*
X393830Y896740D03*
D11*
X388580Y911990D03*
X383580Y911990D03*
D10*
X378330Y896740D03*
X378330Y901740D03*
X378330Y906740D03*
X378330Y911740D03*
D11*
X383580Y896490D03*
X388580Y896490D03*
D12*
X263585Y926695D02*
X263585Y937785D01*
X282675Y937785D01*
X282675Y926695D01*
X263585Y926695D01*
X263585Y929007D02*
X282675Y929007D01*
X282675Y931319D02*
X263585Y931319D01*
X263585Y933631D02*
X282675Y933631D01*
X282675Y935943D02*
X263585Y935943D01*
X263585Y881785D02*
X263585Y870695D01*
X263585Y881785D02*
X282675Y881785D01*
X282675Y870695D01*
X263585Y870695D01*
X263585Y873007D02*
X282675Y873007D01*
X282675Y875319D02*
X263585Y875319D01*
X263585Y877631D02*
X282675Y877631D01*
X282675Y879943D02*
X263585Y879943D01*
D13*
X303647Y916757D02*
X303647Y921723D01*
X316113Y921723D01*
X316113Y916757D01*
X303647Y916757D01*
X303647Y919187D02*
X316113Y919187D01*
X316113Y921617D02*
X303647Y921617D01*
X303647Y911723D02*
X303647Y906757D01*
X303647Y911723D02*
X316113Y911723D01*
X316113Y906757D01*
X303647Y906757D01*
X303647Y909187D02*
X316113Y909187D01*
X316113Y911617D02*
X303647Y911617D01*
X303647Y901723D02*
X303647Y896757D01*
X303647Y901723D02*
X316113Y901723D01*
X316113Y896757D01*
X303647Y896757D01*
X303647Y899187D02*
X316113Y899187D01*
X316113Y901617D02*
X303647Y901617D01*
X303647Y891723D02*
X303647Y886757D01*
X303647Y891723D02*
X316113Y891723D01*
X316113Y886757D01*
X303647Y886757D01*
X303647Y889187D02*
X316113Y889187D01*
X316113Y891617D02*
X303647Y891617D01*
D12*
X508575Y881785D02*
X508575Y870695D01*
X489485Y870695D01*
X489485Y881785D01*
X508575Y881785D01*
X508575Y873007D02*
X489485Y873007D01*
X489485Y875319D02*
X508575Y875319D01*
X508575Y877631D02*
X489485Y877631D01*
X489485Y879943D02*
X508575Y879943D01*
X508575Y926695D02*
X508575Y937785D01*
X508575Y926695D02*
X489485Y926695D01*
X489485Y937785D01*
X508575Y937785D01*
X508575Y929007D02*
X489485Y929007D01*
X489485Y931319D02*
X508575Y931319D01*
X508575Y933631D02*
X489485Y933631D01*
X489485Y935943D02*
X508575Y935943D01*
D13*
X468513Y891723D02*
X468513Y886757D01*
X456047Y886757D01*
X456047Y891723D01*
X468513Y891723D01*
X468513Y889187D02*
X456047Y889187D01*
X456047Y891617D02*
X468513Y891617D01*
X468513Y896757D02*
X468513Y901723D01*
X468513Y896757D02*
X456047Y896757D01*
X456047Y901723D01*
X468513Y901723D01*
X468513Y899187D02*
X456047Y899187D01*
X456047Y901617D02*
X468513Y901617D01*
X468513Y906757D02*
X468513Y911723D01*
X468513Y906757D02*
X456047Y906757D01*
X456047Y911723D01*
X468513Y911723D01*
X468513Y909187D02*
X456047Y909187D01*
X456047Y911617D02*
X468513Y911617D01*
X468513Y916757D02*
X468513Y921723D01*
X468513Y916757D02*
X456047Y916757D01*
X456047Y921723D01*
X468513Y921723D01*
X468513Y919187D02*
X456047Y919187D01*
X456047Y921617D02*
X468513Y921617D01*
D14*
X462280Y993140D03*
X271780Y840740D03*
D15*
X284480Y1005840D03*
X487680Y1005840D03*
X487680Y802640D03*
X284480Y802640D03*
D16*
X322580Y789940D03*
X347980Y789940D03*
X373380Y789940D03*
X398780Y789940D03*
X424180Y789940D03*
X449580Y789940D03*
X398780Y1018540D03*
X373380Y1018540D03*
D17*
X410685Y899745D02*
X420675Y899745D01*
X410685Y899745D02*
X410685Y908735D01*
X420675Y908735D01*
X420675Y899745D01*
X420675Y902153D02*
X410685Y902153D01*
X410685Y904561D02*
X420675Y904561D01*
X420675Y906969D02*
X410685Y906969D01*
X427685Y899745D02*
X437675Y899745D01*
X427685Y899745D02*
X427685Y908735D01*
X437675Y908735D01*
X437675Y899745D01*
X437675Y902153D02*
X427685Y902153D01*
X427685Y904561D02*
X437675Y904561D01*
X437675Y906969D02*
X427685Y906969D01*
X361475Y908735D02*
X351485Y908735D01*
X361475Y908735D02*
X361475Y899745D01*
X351485Y899745D01*
X351485Y908735D01*
X351485Y902153D02*
X361475Y902153D01*
X361475Y904561D02*
X351485Y904561D01*
X351485Y906969D02*
X361475Y906969D01*
X344475Y908735D02*
X334485Y908735D01*
X344475Y908735D02*
X344475Y899745D01*
X334485Y899745D01*
X334485Y908735D01*
X334485Y902153D02*
X344475Y902153D01*
X344475Y904561D02*
X334485Y904561D01*
X334485Y906969D02*
X344475Y906969D01*
D18*
X492935Y964225D02*
X492935Y971255D01*
X499965Y971255D01*
X499965Y964225D01*
X492935Y964225D01*
X492935Y968494D02*
X499965Y968494D01*
X475395Y971255D02*
X475395Y964225D01*
X475395Y971255D02*
X482425Y971255D01*
X482425Y964225D01*
X475395Y964225D01*
X475395Y968494D02*
X482425Y968494D01*
D17*
X484175Y944195D02*
X474185Y944195D01*
X474185Y953185D01*
X484175Y953185D01*
X484175Y944195D01*
X484175Y946603D02*
X474185Y946603D01*
X474185Y949011D02*
X484175Y949011D01*
X484175Y951419D02*
X474185Y951419D01*
X491185Y944195D02*
X501175Y944195D01*
X491185Y944195D02*
X491185Y953185D01*
X501175Y953185D01*
X501175Y944195D01*
X501175Y946603D02*
X491185Y946603D01*
X491185Y949011D02*
X501175Y949011D01*
X501175Y951419D02*
X491185Y951419D01*
X344475Y874345D02*
X334485Y874345D01*
X334485Y883335D01*
X344475Y883335D01*
X344475Y874345D01*
X344475Y876753D02*
X334485Y876753D01*
X334485Y879161D02*
X344475Y879161D01*
X344475Y881569D02*
X334485Y881569D01*
X351485Y874345D02*
X361475Y874345D01*
X351485Y874345D02*
X351485Y883335D01*
X361475Y883335D01*
X361475Y874345D01*
X361475Y876753D02*
X351485Y876753D01*
X351485Y879161D02*
X361475Y879161D01*
X361475Y881569D02*
X351485Y881569D01*
X410685Y874345D02*
X420675Y874345D01*
X410685Y874345D02*
X410685Y883335D01*
X420675Y883335D01*
X420675Y874345D01*
X420675Y876753D02*
X410685Y876753D01*
X410685Y879161D02*
X420675Y879161D01*
X420675Y881569D02*
X410685Y881569D01*
X427685Y874345D02*
X437675Y874345D01*
X427685Y874345D02*
X427685Y883335D01*
X437675Y883335D01*
X437675Y874345D01*
X437675Y876753D02*
X427685Y876753D01*
X427685Y879161D02*
X437675Y879161D01*
X437675Y881569D02*
X427685Y881569D01*
X427685Y934135D02*
X437675Y934135D01*
X437675Y925145D01*
X427685Y925145D01*
X427685Y934135D01*
X427685Y927553D02*
X437675Y927553D01*
X437675Y929961D02*
X427685Y929961D01*
X427685Y932369D02*
X437675Y932369D01*
X420675Y934135D02*
X410685Y934135D01*
X420675Y934135D02*
X420675Y925145D01*
X410685Y925145D01*
X410685Y934135D01*
X410685Y927553D02*
X420675Y927553D01*
X420675Y929961D02*
X410685Y929961D01*
X410685Y932369D02*
X420675Y932369D01*
X361475Y934135D02*
X351485Y934135D01*
X361475Y934135D02*
X361475Y925145D01*
X351485Y925145D01*
X351485Y934135D01*
X351485Y927553D02*
X361475Y927553D01*
X361475Y929961D02*
X351485Y929961D01*
X351485Y932369D02*
X361475Y932369D01*
X344475Y934135D02*
X334485Y934135D01*
X344475Y934135D02*
X344475Y925145D01*
X334485Y925145D01*
X334485Y934135D01*
X334485Y927553D02*
X344475Y927553D01*
X344475Y929961D02*
X334485Y929961D01*
X334485Y932369D02*
X344475Y932369D01*
X436085Y836245D02*
X446075Y836245D01*
X436085Y836245D02*
X436085Y845235D01*
X446075Y845235D01*
X446075Y836245D01*
X446075Y838653D02*
X436085Y838653D01*
X436085Y841061D02*
X446075Y841061D01*
X446075Y843469D02*
X436085Y843469D01*
X453085Y836245D02*
X463075Y836245D01*
X453085Y836245D02*
X453085Y845235D01*
X463075Y845235D01*
X463075Y836245D01*
X463075Y838653D02*
X453085Y838653D01*
X453085Y841061D02*
X463075Y841061D01*
X463075Y843469D02*
X453085Y843469D01*
D10*
X652910Y911740D03*
X652910Y906740D03*
X652910Y901740D03*
X652910Y896740D03*
D11*
X647660Y911990D03*
X642660Y911990D03*
D10*
X637410Y896740D03*
X637410Y901740D03*
X637410Y906740D03*
X637410Y911740D03*
D11*
X642660Y896490D03*
X647660Y896490D03*
D12*
X522665Y926695D02*
X522665Y937785D01*
X541755Y937785D01*
X541755Y926695D01*
X522665Y926695D01*
X522665Y929007D02*
X541755Y929007D01*
X541755Y931319D02*
X522665Y931319D01*
X522665Y933631D02*
X541755Y933631D01*
X541755Y935943D02*
X522665Y935943D01*
X522665Y881785D02*
X522665Y870695D01*
X522665Y881785D02*
X541755Y881785D01*
X541755Y870695D01*
X522665Y870695D01*
X522665Y873007D02*
X541755Y873007D01*
X541755Y875319D02*
X522665Y875319D01*
X522665Y877631D02*
X541755Y877631D01*
X541755Y879943D02*
X522665Y879943D01*
D13*
X562727Y916757D02*
X562727Y921723D01*
X575193Y921723D01*
X575193Y916757D01*
X562727Y916757D01*
X562727Y919187D02*
X575193Y919187D01*
X575193Y921617D02*
X562727Y921617D01*
X562727Y911723D02*
X562727Y906757D01*
X562727Y911723D02*
X575193Y911723D01*
X575193Y906757D01*
X562727Y906757D01*
X562727Y909187D02*
X575193Y909187D01*
X575193Y911617D02*
X562727Y911617D01*
X562727Y901723D02*
X562727Y896757D01*
X562727Y901723D02*
X575193Y901723D01*
X575193Y896757D01*
X562727Y896757D01*
X562727Y899187D02*
X575193Y899187D01*
X575193Y901617D02*
X562727Y901617D01*
X562727Y891723D02*
X562727Y886757D01*
X562727Y891723D02*
X575193Y891723D01*
X575193Y886757D01*
X562727Y886757D01*
X562727Y889187D02*
X575193Y889187D01*
X575193Y891617D02*
X562727Y891617D01*
D12*
X767655Y881785D02*
X767655Y870695D01*
X748565Y870695D01*
X748565Y881785D01*
X767655Y881785D01*
X767655Y873007D02*
X748565Y873007D01*
X748565Y875319D02*
X767655Y875319D01*
X767655Y877631D02*
X748565Y877631D01*
X748565Y879943D02*
X767655Y879943D01*
X767655Y926695D02*
X767655Y937785D01*
X767655Y926695D02*
X748565Y926695D01*
X748565Y937785D01*
X767655Y937785D01*
X767655Y929007D02*
X748565Y929007D01*
X748565Y931319D02*
X767655Y931319D01*
X767655Y933631D02*
X748565Y933631D01*
X748565Y935943D02*
X767655Y935943D01*
D13*
X727593Y891723D02*
X727593Y886757D01*
X715127Y886757D01*
X715127Y891723D01*
X727593Y891723D01*
X727593Y889187D02*
X715127Y889187D01*
X715127Y891617D02*
X727593Y891617D01*
X727593Y896757D02*
X727593Y901723D01*
X727593Y896757D02*
X715127Y896757D01*
X715127Y901723D01*
X727593Y901723D01*
X727593Y899187D02*
X715127Y899187D01*
X715127Y901617D02*
X727593Y901617D01*
X727593Y906757D02*
X727593Y911723D01*
X727593Y906757D02*
X715127Y906757D01*
X715127Y911723D01*
X727593Y911723D01*
X727593Y909187D02*
X715127Y909187D01*
X715127Y911617D02*
X727593Y911617D01*
X727593Y916757D02*
X727593Y921723D01*
X727593Y916757D02*
X715127Y916757D01*
X715127Y921723D01*
X727593Y921723D01*
X727593Y919187D02*
X715127Y919187D01*
X715127Y921617D02*
X727593Y921617D01*
D14*
X721360Y993140D03*
X530860Y840740D03*
D15*
X543560Y1005840D03*
X746760Y1005840D03*
X746760Y802640D03*
X543560Y802640D03*
D16*
X581660Y789940D03*
X607060Y789940D03*
X632460Y789940D03*
X657860Y789940D03*
X683260Y789940D03*
X708660Y789940D03*
X657860Y1018540D03*
X632460Y1018540D03*
D17*
X669765Y899745D02*
X679755Y899745D01*
X669765Y899745D02*
X669765Y908735D01*
X679755Y908735D01*
X679755Y899745D01*
X679755Y902153D02*
X669765Y902153D01*
X669765Y904561D02*
X679755Y904561D01*
X679755Y906969D02*
X669765Y906969D01*
X686765Y899745D02*
X696755Y899745D01*
X686765Y899745D02*
X686765Y908735D01*
X696755Y908735D01*
X696755Y899745D01*
X696755Y902153D02*
X686765Y902153D01*
X686765Y904561D02*
X696755Y904561D01*
X696755Y906969D02*
X686765Y906969D01*
X620555Y908735D02*
X610565Y908735D01*
X620555Y908735D02*
X620555Y899745D01*
X610565Y899745D01*
X610565Y908735D01*
X610565Y902153D02*
X620555Y902153D01*
X620555Y904561D02*
X610565Y904561D01*
X610565Y906969D02*
X620555Y906969D01*
X603555Y908735D02*
X593565Y908735D01*
X603555Y908735D02*
X603555Y899745D01*
X593565Y899745D01*
X593565Y908735D01*
X593565Y902153D02*
X603555Y902153D01*
X603555Y904561D02*
X593565Y904561D01*
X593565Y906969D02*
X603555Y906969D01*
D18*
X752015Y964225D02*
X752015Y971255D01*
X759045Y971255D01*
X759045Y964225D01*
X752015Y964225D01*
X752015Y968494D02*
X759045Y968494D01*
X734475Y971255D02*
X734475Y964225D01*
X734475Y971255D02*
X741505Y971255D01*
X741505Y964225D01*
X734475Y964225D01*
X734475Y968494D02*
X741505Y968494D01*
D17*
X743255Y944195D02*
X733265Y944195D01*
X733265Y953185D01*
X743255Y953185D01*
X743255Y944195D01*
X743255Y946603D02*
X733265Y946603D01*
X733265Y949011D02*
X743255Y949011D01*
X743255Y951419D02*
X733265Y951419D01*
X750265Y944195D02*
X760255Y944195D01*
X750265Y944195D02*
X750265Y953185D01*
X760255Y953185D01*
X760255Y944195D01*
X760255Y946603D02*
X750265Y946603D01*
X750265Y949011D02*
X760255Y949011D01*
X760255Y951419D02*
X750265Y951419D01*
X603555Y874345D02*
X593565Y874345D01*
X593565Y883335D01*
X603555Y883335D01*
X603555Y874345D01*
X603555Y876753D02*
X593565Y876753D01*
X593565Y879161D02*
X603555Y879161D01*
X603555Y881569D02*
X593565Y881569D01*
X610565Y874345D02*
X620555Y874345D01*
X610565Y874345D02*
X610565Y883335D01*
X620555Y883335D01*
X620555Y874345D01*
X620555Y876753D02*
X610565Y876753D01*
X610565Y879161D02*
X620555Y879161D01*
X620555Y881569D02*
X610565Y881569D01*
X669765Y874345D02*
X679755Y874345D01*
X669765Y874345D02*
X669765Y883335D01*
X679755Y883335D01*
X679755Y874345D01*
X679755Y876753D02*
X669765Y876753D01*
X669765Y879161D02*
X679755Y879161D01*
X679755Y881569D02*
X669765Y881569D01*
X686765Y874345D02*
X696755Y874345D01*
X686765Y874345D02*
X686765Y883335D01*
X696755Y883335D01*
X696755Y874345D01*
X696755Y876753D02*
X686765Y876753D01*
X686765Y879161D02*
X696755Y879161D01*
X696755Y881569D02*
X686765Y881569D01*
X686765Y934135D02*
X696755Y934135D01*
X696755Y925145D01*
X686765Y925145D01*
X686765Y934135D01*
X686765Y927553D02*
X696755Y927553D01*
X696755Y929961D02*
X686765Y929961D01*
X686765Y932369D02*
X696755Y932369D01*
X679755Y934135D02*
X669765Y934135D01*
X679755Y934135D02*
X679755Y925145D01*
X669765Y925145D01*
X669765Y934135D01*
X669765Y927553D02*
X679755Y927553D01*
X679755Y929961D02*
X669765Y929961D01*
X669765Y932369D02*
X679755Y932369D01*
X620555Y934135D02*
X610565Y934135D01*
X620555Y934135D02*
X620555Y925145D01*
X610565Y925145D01*
X610565Y934135D01*
X610565Y927553D02*
X620555Y927553D01*
X620555Y929961D02*
X610565Y929961D01*
X610565Y932369D02*
X620555Y932369D01*
X603555Y934135D02*
X593565Y934135D01*
X603555Y934135D02*
X603555Y925145D01*
X593565Y925145D01*
X593565Y934135D01*
X593565Y927553D02*
X603555Y927553D01*
X603555Y929961D02*
X593565Y929961D01*
X593565Y932369D02*
X603555Y932369D01*
X695165Y836245D02*
X705155Y836245D01*
X695165Y836245D02*
X695165Y845235D01*
X705155Y845235D01*
X705155Y836245D01*
X705155Y838653D02*
X695165Y838653D01*
X695165Y841061D02*
X705155Y841061D01*
X705155Y843469D02*
X695165Y843469D01*
X712165Y836245D02*
X722155Y836245D01*
X712165Y836245D02*
X712165Y845235D01*
X722155Y845235D01*
X722155Y836245D01*
X722155Y838653D02*
X712165Y838653D01*
X712165Y841061D02*
X722155Y841061D01*
X722155Y843469D02*
X712165Y843469D01*
D10*
X911990Y911740D03*
X911990Y906740D03*
X911990Y901740D03*
X911990Y896740D03*
D11*
X906740Y911990D03*
X901740Y911990D03*
D10*
X896490Y896740D03*
X896490Y901740D03*
X896490Y906740D03*
X896490Y911740D03*
D11*
X901740Y896490D03*
X906740Y896490D03*
D12*
X781745Y926695D02*
X781745Y937785D01*
X800835Y937785D01*
X800835Y926695D01*
X781745Y926695D01*
X781745Y929007D02*
X800835Y929007D01*
X800835Y931319D02*
X781745Y931319D01*
X781745Y933631D02*
X800835Y933631D01*
X800835Y935943D02*
X781745Y935943D01*
X781745Y881785D02*
X781745Y870695D01*
X781745Y881785D02*
X800835Y881785D01*
X800835Y870695D01*
X781745Y870695D01*
X781745Y873007D02*
X800835Y873007D01*
X800835Y875319D02*
X781745Y875319D01*
X781745Y877631D02*
X800835Y877631D01*
X800835Y879943D02*
X781745Y879943D01*
D13*
X821807Y916757D02*
X821807Y921723D01*
X834273Y921723D01*
X834273Y916757D01*
X821807Y916757D01*
X821807Y919187D02*
X834273Y919187D01*
X834273Y921617D02*
X821807Y921617D01*
X821807Y911723D02*
X821807Y906757D01*
X821807Y911723D02*
X834273Y911723D01*
X834273Y906757D01*
X821807Y906757D01*
X821807Y909187D02*
X834273Y909187D01*
X834273Y911617D02*
X821807Y911617D01*
X821807Y901723D02*
X821807Y896757D01*
X821807Y901723D02*
X834273Y901723D01*
X834273Y896757D01*
X821807Y896757D01*
X821807Y899187D02*
X834273Y899187D01*
X834273Y901617D02*
X821807Y901617D01*
X821807Y891723D02*
X821807Y886757D01*
X821807Y891723D02*
X834273Y891723D01*
X834273Y886757D01*
X821807Y886757D01*
X821807Y889187D02*
X834273Y889187D01*
X834273Y891617D02*
X821807Y891617D01*
D12*
X1026735Y881785D02*
X1026735Y870695D01*
X1007645Y870695D01*
X1007645Y881785D01*
X1026735Y881785D01*
X1026735Y873007D02*
X1007645Y873007D01*
X1007645Y875319D02*
X1026735Y875319D01*
X1026735Y877631D02*
X1007645Y877631D01*
X1007645Y879943D02*
X1026735Y879943D01*
X1026735Y926695D02*
X1026735Y937785D01*
X1026735Y926695D02*
X1007645Y926695D01*
X1007645Y937785D01*
X1026735Y937785D01*
X1026735Y929007D02*
X1007645Y929007D01*
X1007645Y931319D02*
X1026735Y931319D01*
X1026735Y933631D02*
X1007645Y933631D01*
X1007645Y935943D02*
X1026735Y935943D01*
D13*
X986673Y891723D02*
X986673Y886757D01*
X974207Y886757D01*
X974207Y891723D01*
X986673Y891723D01*
X986673Y889187D02*
X974207Y889187D01*
X974207Y891617D02*
X986673Y891617D01*
X986673Y896757D02*
X986673Y901723D01*
X986673Y896757D02*
X974207Y896757D01*
X974207Y901723D01*
X986673Y901723D01*
X986673Y899187D02*
X974207Y899187D01*
X974207Y901617D02*
X986673Y901617D01*
X986673Y906757D02*
X986673Y911723D01*
X986673Y906757D02*
X974207Y906757D01*
X974207Y911723D01*
X986673Y911723D01*
X986673Y909187D02*
X974207Y909187D01*
X974207Y911617D02*
X986673Y911617D01*
X986673Y916757D02*
X986673Y921723D01*
X986673Y916757D02*
X974207Y916757D01*
X974207Y921723D01*
X986673Y921723D01*
X986673Y919187D02*
X974207Y919187D01*
X974207Y921617D02*
X986673Y921617D01*
D14*
X980440Y993140D03*
X789940Y840740D03*
D15*
X802640Y1005840D03*
X1005840Y1005840D03*
X1005840Y802640D03*
X802640Y802640D03*
D16*
X840740Y789940D03*
X866140Y789940D03*
X891540Y789940D03*
X916940Y789940D03*
X942340Y789940D03*
X967740Y789940D03*
X916940Y1018540D03*
X891540Y1018540D03*
D17*
X928845Y899745D02*
X938835Y899745D01*
X928845Y899745D02*
X928845Y908735D01*
X938835Y908735D01*
X938835Y899745D01*
X938835Y902153D02*
X928845Y902153D01*
X928845Y904561D02*
X938835Y904561D01*
X938835Y906969D02*
X928845Y906969D01*
X945845Y899745D02*
X955835Y899745D01*
X945845Y899745D02*
X945845Y908735D01*
X955835Y908735D01*
X955835Y899745D01*
X955835Y902153D02*
X945845Y902153D01*
X945845Y904561D02*
X955835Y904561D01*
X955835Y906969D02*
X945845Y906969D01*
X879635Y908735D02*
X869645Y908735D01*
X879635Y908735D02*
X879635Y899745D01*
X869645Y899745D01*
X869645Y908735D01*
X869645Y902153D02*
X879635Y902153D01*
X879635Y904561D02*
X869645Y904561D01*
X869645Y906969D02*
X879635Y906969D01*
X862635Y908735D02*
X852645Y908735D01*
X862635Y908735D02*
X862635Y899745D01*
X852645Y899745D01*
X852645Y908735D01*
X852645Y902153D02*
X862635Y902153D01*
X862635Y904561D02*
X852645Y904561D01*
X852645Y906969D02*
X862635Y906969D01*
D18*
X1011095Y964225D02*
X1011095Y971255D01*
X1018125Y971255D01*
X1018125Y964225D01*
X1011095Y964225D01*
X1011095Y968494D02*
X1018125Y968494D01*
X993555Y971255D02*
X993555Y964225D01*
X993555Y971255D02*
X1000585Y971255D01*
X1000585Y964225D01*
X993555Y964225D01*
X993555Y968494D02*
X1000585Y968494D01*
D17*
X1002335Y944195D02*
X992345Y944195D01*
X992345Y953185D01*
X1002335Y953185D01*
X1002335Y944195D01*
X1002335Y946603D02*
X992345Y946603D01*
X992345Y949011D02*
X1002335Y949011D01*
X1002335Y951419D02*
X992345Y951419D01*
X1009345Y944195D02*
X1019335Y944195D01*
X1009345Y944195D02*
X1009345Y953185D01*
X1019335Y953185D01*
X1019335Y944195D01*
X1019335Y946603D02*
X1009345Y946603D01*
X1009345Y949011D02*
X1019335Y949011D01*
X1019335Y951419D02*
X1009345Y951419D01*
X862635Y874345D02*
X852645Y874345D01*
X852645Y883335D01*
X862635Y883335D01*
X862635Y874345D01*
X862635Y876753D02*
X852645Y876753D01*
X852645Y879161D02*
X862635Y879161D01*
X862635Y881569D02*
X852645Y881569D01*
X869645Y874345D02*
X879635Y874345D01*
X869645Y874345D02*
X869645Y883335D01*
X879635Y883335D01*
X879635Y874345D01*
X879635Y876753D02*
X869645Y876753D01*
X869645Y879161D02*
X879635Y879161D01*
X879635Y881569D02*
X869645Y881569D01*
X928845Y874345D02*
X938835Y874345D01*
X928845Y874345D02*
X928845Y883335D01*
X938835Y883335D01*
X938835Y874345D01*
X938835Y876753D02*
X928845Y876753D01*
X928845Y879161D02*
X938835Y879161D01*
X938835Y881569D02*
X928845Y881569D01*
X945845Y874345D02*
X955835Y874345D01*
X945845Y874345D02*
X945845Y883335D01*
X955835Y883335D01*
X955835Y874345D01*
X955835Y876753D02*
X945845Y876753D01*
X945845Y879161D02*
X955835Y879161D01*
X955835Y881569D02*
X945845Y881569D01*
X945845Y934135D02*
X955835Y934135D01*
X955835Y925145D01*
X945845Y925145D01*
X945845Y934135D01*
X945845Y927553D02*
X955835Y927553D01*
X955835Y929961D02*
X945845Y929961D01*
X945845Y932369D02*
X955835Y932369D01*
X938835Y934135D02*
X928845Y934135D01*
X938835Y934135D02*
X938835Y925145D01*
X928845Y925145D01*
X928845Y934135D01*
X928845Y927553D02*
X938835Y927553D01*
X938835Y929961D02*
X928845Y929961D01*
X928845Y932369D02*
X938835Y932369D01*
X879635Y934135D02*
X869645Y934135D01*
X879635Y934135D02*
X879635Y925145D01*
X869645Y925145D01*
X869645Y934135D01*
X869645Y927553D02*
X879635Y927553D01*
X879635Y929961D02*
X869645Y929961D01*
X869645Y932369D02*
X879635Y932369D01*
X862635Y934135D02*
X852645Y934135D01*
X862635Y934135D02*
X862635Y925145D01*
X852645Y925145D01*
X852645Y934135D01*
X852645Y927553D02*
X862635Y927553D01*
X862635Y929961D02*
X852645Y929961D01*
X852645Y932369D02*
X862635Y932369D01*
X954245Y836245D02*
X964235Y836245D01*
X954245Y836245D02*
X954245Y845235D01*
X964235Y845235D01*
X964235Y836245D01*
X964235Y838653D02*
X954245Y838653D01*
X954245Y841061D02*
X964235Y841061D01*
X964235Y843469D02*
X954245Y843469D01*
X971245Y836245D02*
X981235Y836245D01*
X971245Y836245D02*
X971245Y845235D01*
X981235Y845235D01*
X981235Y836245D01*
X981235Y838653D02*
X971245Y838653D01*
X971245Y841061D02*
X981235Y841061D01*
X981235Y843469D02*
X971245Y843469D01*
D10*
X1171070Y911740D03*
X1171070Y906740D03*
X1171070Y901740D03*
X1171070Y896740D03*
D11*
X1165820Y911990D03*
X1160820Y911990D03*
D10*
X1155570Y896740D03*
X1155570Y901740D03*
X1155570Y906740D03*
X1155570Y911740D03*
D11*
X1160820Y896490D03*
X1165820Y896490D03*
D12*
X1040825Y926695D02*
X1040825Y937785D01*
X1059915Y937785D01*
X1059915Y926695D01*
X1040825Y926695D01*
X1040825Y929007D02*
X1059915Y929007D01*
X1059915Y931319D02*
X1040825Y931319D01*
X1040825Y933631D02*
X1059915Y933631D01*
X1059915Y935943D02*
X1040825Y935943D01*
X1040825Y881785D02*
X1040825Y870695D01*
X1040825Y881785D02*
X1059915Y881785D01*
X1059915Y870695D01*
X1040825Y870695D01*
X1040825Y873007D02*
X1059915Y873007D01*
X1059915Y875319D02*
X1040825Y875319D01*
X1040825Y877631D02*
X1059915Y877631D01*
X1059915Y879943D02*
X1040825Y879943D01*
D13*
X1080887Y916757D02*
X1080887Y921723D01*
X1093353Y921723D01*
X1093353Y916757D01*
X1080887Y916757D01*
X1080887Y919187D02*
X1093353Y919187D01*
X1093353Y921617D02*
X1080887Y921617D01*
X1080887Y911723D02*
X1080887Y906757D01*
X1080887Y911723D02*
X1093353Y911723D01*
X1093353Y906757D01*
X1080887Y906757D01*
X1080887Y909187D02*
X1093353Y909187D01*
X1093353Y911617D02*
X1080887Y911617D01*
X1080887Y901723D02*
X1080887Y896757D01*
X1080887Y901723D02*
X1093353Y901723D01*
X1093353Y896757D01*
X1080887Y896757D01*
X1080887Y899187D02*
X1093353Y899187D01*
X1093353Y901617D02*
X1080887Y901617D01*
X1080887Y891723D02*
X1080887Y886757D01*
X1080887Y891723D02*
X1093353Y891723D01*
X1093353Y886757D01*
X1080887Y886757D01*
X1080887Y889187D02*
X1093353Y889187D01*
X1093353Y891617D02*
X1080887Y891617D01*
D12*
X1285815Y881785D02*
X1285815Y870695D01*
X1266725Y870695D01*
X1266725Y881785D01*
X1285815Y881785D01*
X1285815Y873007D02*
X1266725Y873007D01*
X1266725Y875319D02*
X1285815Y875319D01*
X1285815Y877631D02*
X1266725Y877631D01*
X1266725Y879943D02*
X1285815Y879943D01*
X1285815Y926695D02*
X1285815Y937785D01*
X1285815Y926695D02*
X1266725Y926695D01*
X1266725Y937785D01*
X1285815Y937785D01*
X1285815Y929007D02*
X1266725Y929007D01*
X1266725Y931319D02*
X1285815Y931319D01*
X1285815Y933631D02*
X1266725Y933631D01*
X1266725Y935943D02*
X1285815Y935943D01*
D13*
X1245753Y891723D02*
X1245753Y886757D01*
X1233287Y886757D01*
X1233287Y891723D01*
X1245753Y891723D01*
X1245753Y889187D02*
X1233287Y889187D01*
X1233287Y891617D02*
X1245753Y891617D01*
X1245753Y896757D02*
X1245753Y901723D01*
X1245753Y896757D02*
X1233287Y896757D01*
X1233287Y901723D01*
X1245753Y901723D01*
X1245753Y899187D02*
X1233287Y899187D01*
X1233287Y901617D02*
X1245753Y901617D01*
X1245753Y906757D02*
X1245753Y911723D01*
X1245753Y906757D02*
X1233287Y906757D01*
X1233287Y911723D01*
X1245753Y911723D01*
X1245753Y909187D02*
X1233287Y909187D01*
X1233287Y911617D02*
X1245753Y911617D01*
X1245753Y916757D02*
X1245753Y921723D01*
X1245753Y916757D02*
X1233287Y916757D01*
X1233287Y921723D01*
X1245753Y921723D01*
X1245753Y919187D02*
X1233287Y919187D01*
X1233287Y921617D02*
X1245753Y921617D01*
D14*
X1239520Y993140D03*
X1049020Y840740D03*
D15*
X1061720Y1005840D03*
X1264920Y1005840D03*
X1264920Y802640D03*
X1061720Y802640D03*
D16*
X1099820Y789940D03*
X1125220Y789940D03*
X1150620Y789940D03*
X1176020Y789940D03*
X1201420Y789940D03*
X1226820Y789940D03*
X1176020Y1018540D03*
X1150620Y1018540D03*
D17*
X1187925Y899745D02*
X1197915Y899745D01*
X1187925Y899745D02*
X1187925Y908735D01*
X1197915Y908735D01*
X1197915Y899745D01*
X1197915Y902153D02*
X1187925Y902153D01*
X1187925Y904561D02*
X1197915Y904561D01*
X1197915Y906969D02*
X1187925Y906969D01*
X1204925Y899745D02*
X1214915Y899745D01*
X1204925Y899745D02*
X1204925Y908735D01*
X1214915Y908735D01*
X1214915Y899745D01*
X1214915Y902153D02*
X1204925Y902153D01*
X1204925Y904561D02*
X1214915Y904561D01*
X1214915Y906969D02*
X1204925Y906969D01*
X1138715Y908735D02*
X1128725Y908735D01*
X1138715Y908735D02*
X1138715Y899745D01*
X1128725Y899745D01*
X1128725Y908735D01*
X1128725Y902153D02*
X1138715Y902153D01*
X1138715Y904561D02*
X1128725Y904561D01*
X1128725Y906969D02*
X1138715Y906969D01*
X1121715Y908735D02*
X1111725Y908735D01*
X1121715Y908735D02*
X1121715Y899745D01*
X1111725Y899745D01*
X1111725Y908735D01*
X1111725Y902153D02*
X1121715Y902153D01*
X1121715Y904561D02*
X1111725Y904561D01*
X1111725Y906969D02*
X1121715Y906969D01*
D18*
X1270175Y964225D02*
X1270175Y971255D01*
X1277205Y971255D01*
X1277205Y964225D01*
X1270175Y964225D01*
X1270175Y968494D02*
X1277205Y968494D01*
X1252635Y971255D02*
X1252635Y964225D01*
X1252635Y971255D02*
X1259665Y971255D01*
X1259665Y964225D01*
X1252635Y964225D01*
X1252635Y968494D02*
X1259665Y968494D01*
D17*
X1261415Y944195D02*
X1251425Y944195D01*
X1251425Y953185D01*
X1261415Y953185D01*
X1261415Y944195D01*
X1261415Y946603D02*
X1251425Y946603D01*
X1251425Y949011D02*
X1261415Y949011D01*
X1261415Y951419D02*
X1251425Y951419D01*
X1268425Y944195D02*
X1278415Y944195D01*
X1268425Y944195D02*
X1268425Y953185D01*
X1278415Y953185D01*
X1278415Y944195D01*
X1278415Y946603D02*
X1268425Y946603D01*
X1268425Y949011D02*
X1278415Y949011D01*
X1278415Y951419D02*
X1268425Y951419D01*
X1121715Y874345D02*
X1111725Y874345D01*
X1111725Y883335D01*
X1121715Y883335D01*
X1121715Y874345D01*
X1121715Y876753D02*
X1111725Y876753D01*
X1111725Y879161D02*
X1121715Y879161D01*
X1121715Y881569D02*
X1111725Y881569D01*
X1128725Y874345D02*
X1138715Y874345D01*
X1128725Y874345D02*
X1128725Y883335D01*
X1138715Y883335D01*
X1138715Y874345D01*
X1138715Y876753D02*
X1128725Y876753D01*
X1128725Y879161D02*
X1138715Y879161D01*
X1138715Y881569D02*
X1128725Y881569D01*
X1187925Y874345D02*
X1197915Y874345D01*
X1187925Y874345D02*
X1187925Y883335D01*
X1197915Y883335D01*
X1197915Y874345D01*
X1197915Y876753D02*
X1187925Y876753D01*
X1187925Y879161D02*
X1197915Y879161D01*
X1197915Y881569D02*
X1187925Y881569D01*
X1204925Y874345D02*
X1214915Y874345D01*
X1204925Y874345D02*
X1204925Y883335D01*
X1214915Y883335D01*
X1214915Y874345D01*
X1214915Y876753D02*
X1204925Y876753D01*
X1204925Y879161D02*
X1214915Y879161D01*
X1214915Y881569D02*
X1204925Y881569D01*
X1204925Y934135D02*
X1214915Y934135D01*
X1214915Y925145D01*
X1204925Y925145D01*
X1204925Y934135D01*
X1204925Y927553D02*
X1214915Y927553D01*
X1214915Y929961D02*
X1204925Y929961D01*
X1204925Y932369D02*
X1214915Y932369D01*
X1197915Y934135D02*
X1187925Y934135D01*
X1197915Y934135D02*
X1197915Y925145D01*
X1187925Y925145D01*
X1187925Y934135D01*
X1187925Y927553D02*
X1197915Y927553D01*
X1197915Y929961D02*
X1187925Y929961D01*
X1187925Y932369D02*
X1197915Y932369D01*
X1138715Y934135D02*
X1128725Y934135D01*
X1138715Y934135D02*
X1138715Y925145D01*
X1128725Y925145D01*
X1128725Y934135D01*
X1128725Y927553D02*
X1138715Y927553D01*
X1138715Y929961D02*
X1128725Y929961D01*
X1128725Y932369D02*
X1138715Y932369D01*
X1121715Y934135D02*
X1111725Y934135D01*
X1121715Y934135D02*
X1121715Y925145D01*
X1111725Y925145D01*
X1111725Y934135D01*
X1111725Y927553D02*
X1121715Y927553D01*
X1121715Y929961D02*
X1111725Y929961D01*
X1111725Y932369D02*
X1121715Y932369D01*
X1213325Y836245D02*
X1223315Y836245D01*
X1213325Y836245D02*
X1213325Y845235D01*
X1223315Y845235D01*
X1223315Y836245D01*
X1223315Y838653D02*
X1213325Y838653D01*
X1213325Y841061D02*
X1223315Y841061D01*
X1223315Y843469D02*
X1213325Y843469D01*
X1230325Y836245D02*
X1240315Y836245D01*
X1230325Y836245D02*
X1230325Y845235D01*
X1240315Y845235D01*
X1240315Y836245D01*
X1240315Y838653D02*
X1230325Y838653D01*
X1230325Y841061D02*
X1240315Y841061D01*
X1240315Y843469D02*
X1230325Y843469D01*
D10*
X1430150Y911740D03*
X1430150Y906740D03*
X1430150Y901740D03*
X1430150Y896740D03*
D11*
X1424900Y911990D03*
X1419900Y911990D03*
D10*
X1414650Y896740D03*
X1414650Y901740D03*
X1414650Y906740D03*
X1414650Y911740D03*
D11*
X1419900Y896490D03*
X1424900Y896490D03*
D12*
X1299905Y926695D02*
X1299905Y937785D01*
X1318995Y937785D01*
X1318995Y926695D01*
X1299905Y926695D01*
X1299905Y929007D02*
X1318995Y929007D01*
X1318995Y931319D02*
X1299905Y931319D01*
X1299905Y933631D02*
X1318995Y933631D01*
X1318995Y935943D02*
X1299905Y935943D01*
X1299905Y881785D02*
X1299905Y870695D01*
X1299905Y881785D02*
X1318995Y881785D01*
X1318995Y870695D01*
X1299905Y870695D01*
X1299905Y873007D02*
X1318995Y873007D01*
X1318995Y875319D02*
X1299905Y875319D01*
X1299905Y877631D02*
X1318995Y877631D01*
X1318995Y879943D02*
X1299905Y879943D01*
D13*
X1339967Y916757D02*
X1339967Y921723D01*
X1352433Y921723D01*
X1352433Y916757D01*
X1339967Y916757D01*
X1339967Y919187D02*
X1352433Y919187D01*
X1352433Y921617D02*
X1339967Y921617D01*
X1339967Y911723D02*
X1339967Y906757D01*
X1339967Y911723D02*
X1352433Y911723D01*
X1352433Y906757D01*
X1339967Y906757D01*
X1339967Y909187D02*
X1352433Y909187D01*
X1352433Y911617D02*
X1339967Y911617D01*
X1339967Y901723D02*
X1339967Y896757D01*
X1339967Y901723D02*
X1352433Y901723D01*
X1352433Y896757D01*
X1339967Y896757D01*
X1339967Y899187D02*
X1352433Y899187D01*
X1352433Y901617D02*
X1339967Y901617D01*
X1339967Y891723D02*
X1339967Y886757D01*
X1339967Y891723D02*
X1352433Y891723D01*
X1352433Y886757D01*
X1339967Y886757D01*
X1339967Y889187D02*
X1352433Y889187D01*
X1352433Y891617D02*
X1339967Y891617D01*
D12*
X1544895Y881785D02*
X1544895Y870695D01*
X1525805Y870695D01*
X1525805Y881785D01*
X1544895Y881785D01*
X1544895Y873007D02*
X1525805Y873007D01*
X1525805Y875319D02*
X1544895Y875319D01*
X1544895Y877631D02*
X1525805Y877631D01*
X1525805Y879943D02*
X1544895Y879943D01*
X1544895Y926695D02*
X1544895Y937785D01*
X1544895Y926695D02*
X1525805Y926695D01*
X1525805Y937785D01*
X1544895Y937785D01*
X1544895Y929007D02*
X1525805Y929007D01*
X1525805Y931319D02*
X1544895Y931319D01*
X1544895Y933631D02*
X1525805Y933631D01*
X1525805Y935943D02*
X1544895Y935943D01*
D13*
X1504833Y891723D02*
X1504833Y886757D01*
X1492367Y886757D01*
X1492367Y891723D01*
X1504833Y891723D01*
X1504833Y889187D02*
X1492367Y889187D01*
X1492367Y891617D02*
X1504833Y891617D01*
X1504833Y896757D02*
X1504833Y901723D01*
X1504833Y896757D02*
X1492367Y896757D01*
X1492367Y901723D01*
X1504833Y901723D01*
X1504833Y899187D02*
X1492367Y899187D01*
X1492367Y901617D02*
X1504833Y901617D01*
X1504833Y906757D02*
X1504833Y911723D01*
X1504833Y906757D02*
X1492367Y906757D01*
X1492367Y911723D01*
X1504833Y911723D01*
X1504833Y909187D02*
X1492367Y909187D01*
X1492367Y911617D02*
X1504833Y911617D01*
X1504833Y916757D02*
X1504833Y921723D01*
X1504833Y916757D02*
X1492367Y916757D01*
X1492367Y921723D01*
X1504833Y921723D01*
X1504833Y919187D02*
X1492367Y919187D01*
X1492367Y921617D02*
X1504833Y921617D01*
D14*
X1498600Y993140D03*
X1308100Y840740D03*
D15*
X1320800Y1005840D03*
X1524000Y1005840D03*
X1524000Y802640D03*
X1320800Y802640D03*
D16*
X1358900Y789940D03*
X1384300Y789940D03*
X1409700Y789940D03*
X1435100Y789940D03*
X1460500Y789940D03*
X1485900Y789940D03*
X1435100Y1018540D03*
X1409700Y1018540D03*
D17*
X1447005Y899745D02*
X1456995Y899745D01*
X1447005Y899745D02*
X1447005Y908735D01*
X1456995Y908735D01*
X1456995Y899745D01*
X1456995Y902153D02*
X1447005Y902153D01*
X1447005Y904561D02*
X1456995Y904561D01*
X1456995Y906969D02*
X1447005Y906969D01*
X1464005Y899745D02*
X1473995Y899745D01*
X1464005Y899745D02*
X1464005Y908735D01*
X1473995Y908735D01*
X1473995Y899745D01*
X1473995Y902153D02*
X1464005Y902153D01*
X1464005Y904561D02*
X1473995Y904561D01*
X1473995Y906969D02*
X1464005Y906969D01*
X1397795Y908735D02*
X1387805Y908735D01*
X1397795Y908735D02*
X1397795Y899745D01*
X1387805Y899745D01*
X1387805Y908735D01*
X1387805Y902153D02*
X1397795Y902153D01*
X1397795Y904561D02*
X1387805Y904561D01*
X1387805Y906969D02*
X1397795Y906969D01*
X1380795Y908735D02*
X1370805Y908735D01*
X1380795Y908735D02*
X1380795Y899745D01*
X1370805Y899745D01*
X1370805Y908735D01*
X1370805Y902153D02*
X1380795Y902153D01*
X1380795Y904561D02*
X1370805Y904561D01*
X1370805Y906969D02*
X1380795Y906969D01*
D18*
X1529255Y964225D02*
X1529255Y971255D01*
X1536285Y971255D01*
X1536285Y964225D01*
X1529255Y964225D01*
X1529255Y968494D02*
X1536285Y968494D01*
X1511715Y971255D02*
X1511715Y964225D01*
X1511715Y971255D02*
X1518745Y971255D01*
X1518745Y964225D01*
X1511715Y964225D01*
X1511715Y968494D02*
X1518745Y968494D01*
D17*
X1520495Y944195D02*
X1510505Y944195D01*
X1510505Y953185D01*
X1520495Y953185D01*
X1520495Y944195D01*
X1520495Y946603D02*
X1510505Y946603D01*
X1510505Y949011D02*
X1520495Y949011D01*
X1520495Y951419D02*
X1510505Y951419D01*
X1527505Y944195D02*
X1537495Y944195D01*
X1527505Y944195D02*
X1527505Y953185D01*
X1537495Y953185D01*
X1537495Y944195D01*
X1537495Y946603D02*
X1527505Y946603D01*
X1527505Y949011D02*
X1537495Y949011D01*
X1537495Y951419D02*
X1527505Y951419D01*
X1380795Y874345D02*
X1370805Y874345D01*
X1370805Y883335D01*
X1380795Y883335D01*
X1380795Y874345D01*
X1380795Y876753D02*
X1370805Y876753D01*
X1370805Y879161D02*
X1380795Y879161D01*
X1380795Y881569D02*
X1370805Y881569D01*
X1387805Y874345D02*
X1397795Y874345D01*
X1387805Y874345D02*
X1387805Y883335D01*
X1397795Y883335D01*
X1397795Y874345D01*
X1397795Y876753D02*
X1387805Y876753D01*
X1387805Y879161D02*
X1397795Y879161D01*
X1397795Y881569D02*
X1387805Y881569D01*
X1447005Y874345D02*
X1456995Y874345D01*
X1447005Y874345D02*
X1447005Y883335D01*
X1456995Y883335D01*
X1456995Y874345D01*
X1456995Y876753D02*
X1447005Y876753D01*
X1447005Y879161D02*
X1456995Y879161D01*
X1456995Y881569D02*
X1447005Y881569D01*
X1464005Y874345D02*
X1473995Y874345D01*
X1464005Y874345D02*
X1464005Y883335D01*
X1473995Y883335D01*
X1473995Y874345D01*
X1473995Y876753D02*
X1464005Y876753D01*
X1464005Y879161D02*
X1473995Y879161D01*
X1473995Y881569D02*
X1464005Y881569D01*
X1464005Y934135D02*
X1473995Y934135D01*
X1473995Y925145D01*
X1464005Y925145D01*
X1464005Y934135D01*
X1464005Y927553D02*
X1473995Y927553D01*
X1473995Y929961D02*
X1464005Y929961D01*
X1464005Y932369D02*
X1473995Y932369D01*
X1456995Y934135D02*
X1447005Y934135D01*
X1456995Y934135D02*
X1456995Y925145D01*
X1447005Y925145D01*
X1447005Y934135D01*
X1447005Y927553D02*
X1456995Y927553D01*
X1456995Y929961D02*
X1447005Y929961D01*
X1447005Y932369D02*
X1456995Y932369D01*
X1397795Y934135D02*
X1387805Y934135D01*
X1397795Y934135D02*
X1397795Y925145D01*
X1387805Y925145D01*
X1387805Y934135D01*
X1387805Y927553D02*
X1397795Y927553D01*
X1397795Y929961D02*
X1387805Y929961D01*
X1387805Y932369D02*
X1397795Y932369D01*
X1380795Y934135D02*
X1370805Y934135D01*
X1380795Y934135D02*
X1380795Y925145D01*
X1370805Y925145D01*
X1370805Y934135D01*
X1370805Y927553D02*
X1380795Y927553D01*
X1380795Y929961D02*
X1370805Y929961D01*
X1370805Y932369D02*
X1380795Y932369D01*
X1472405Y836245D02*
X1482395Y836245D01*
X1472405Y836245D02*
X1472405Y845235D01*
X1482395Y845235D01*
X1482395Y836245D01*
X1482395Y838653D02*
X1472405Y838653D01*
X1472405Y841061D02*
X1482395Y841061D01*
X1482395Y843469D02*
X1472405Y843469D01*
X1489405Y836245D02*
X1499395Y836245D01*
X1489405Y836245D02*
X1489405Y845235D01*
X1499395Y845235D01*
X1499395Y836245D01*
X1499395Y838653D02*
X1489405Y838653D01*
X1489405Y841061D02*
X1499395Y841061D01*
X1499395Y843469D02*
X1489405Y843469D01*
D14*
X68580Y1052195D03*
X1480185Y1052195D03*
D19*
X59525Y-20955D02*
X59528Y-20733D01*
X59536Y-20511D01*
X59550Y-20289D01*
X59569Y-20067D01*
X59593Y-19847D01*
X59623Y-19626D01*
X59658Y-19407D01*
X59699Y-19188D01*
X59745Y-18971D01*
X59796Y-18755D01*
X59853Y-18540D01*
X59915Y-18326D01*
X59982Y-18115D01*
X60054Y-17904D01*
X60132Y-17696D01*
X60214Y-17490D01*
X60302Y-17286D01*
X60394Y-17083D01*
X60492Y-16884D01*
X60594Y-16687D01*
X60701Y-16492D01*
X60813Y-16300D01*
X60930Y-16111D01*
X61051Y-15924D01*
X61177Y-15741D01*
X61307Y-15561D01*
X61442Y-15384D01*
X61580Y-15211D01*
X61723Y-15041D01*
X61871Y-14874D01*
X62022Y-14711D01*
X62177Y-14552D01*
X62336Y-14397D01*
X62499Y-14246D01*
X62666Y-14098D01*
X62836Y-13955D01*
X63009Y-13817D01*
X63186Y-13682D01*
X63366Y-13552D01*
X63549Y-13426D01*
X63736Y-13305D01*
X63925Y-13188D01*
X64117Y-13076D01*
X64312Y-12969D01*
X64509Y-12867D01*
X64708Y-12769D01*
X64911Y-12677D01*
X65115Y-12589D01*
X65321Y-12507D01*
X65529Y-12429D01*
X65740Y-12357D01*
X65951Y-12290D01*
X66165Y-12228D01*
X66380Y-12171D01*
X66596Y-12120D01*
X66813Y-12074D01*
X67032Y-12033D01*
X67251Y-11998D01*
X67472Y-11968D01*
X67692Y-11944D01*
X67914Y-11925D01*
X68136Y-11911D01*
X68358Y-11903D01*
X68580Y-11900D01*
X68802Y-11903D01*
X69024Y-11911D01*
X69246Y-11925D01*
X69468Y-11944D01*
X69688Y-11968D01*
X69909Y-11998D01*
X70128Y-12033D01*
X70347Y-12074D01*
X70564Y-12120D01*
X70780Y-12171D01*
X70995Y-12228D01*
X71209Y-12290D01*
X71420Y-12357D01*
X71631Y-12429D01*
X71839Y-12507D01*
X72045Y-12589D01*
X72249Y-12677D01*
X72452Y-12769D01*
X72651Y-12867D01*
X72848Y-12969D01*
X73043Y-13076D01*
X73235Y-13188D01*
X73424Y-13305D01*
X73611Y-13426D01*
X73794Y-13552D01*
X73974Y-13682D01*
X74151Y-13817D01*
X74324Y-13955D01*
X74494Y-14098D01*
X74661Y-14246D01*
X74824Y-14397D01*
X74983Y-14552D01*
X75138Y-14711D01*
X75289Y-14874D01*
X75437Y-15041D01*
X75580Y-15211D01*
X75718Y-15384D01*
X75853Y-15561D01*
X75983Y-15741D01*
X76109Y-15924D01*
X76230Y-16111D01*
X76347Y-16300D01*
X76459Y-16492D01*
X76566Y-16687D01*
X76668Y-16884D01*
X76766Y-17083D01*
X76858Y-17286D01*
X76946Y-17490D01*
X77028Y-17696D01*
X77106Y-17904D01*
X77178Y-18115D01*
X77245Y-18326D01*
X77307Y-18540D01*
X77364Y-18755D01*
X77415Y-18971D01*
X77461Y-19188D01*
X77502Y-19407D01*
X77537Y-19626D01*
X77567Y-19847D01*
X77591Y-20067D01*
X77610Y-20289D01*
X77624Y-20511D01*
X77632Y-20733D01*
X77635Y-20955D01*
X77632Y-21177D01*
X77624Y-21399D01*
X77610Y-21621D01*
X77591Y-21843D01*
X77567Y-22063D01*
X77537Y-22284D01*
X77502Y-22503D01*
X77461Y-22722D01*
X77415Y-22939D01*
X77364Y-23155D01*
X77307Y-23370D01*
X77245Y-23584D01*
X77178Y-23795D01*
X77106Y-24006D01*
X77028Y-24214D01*
X76946Y-24420D01*
X76858Y-24624D01*
X76766Y-24827D01*
X76668Y-25026D01*
X76566Y-25223D01*
X76459Y-25418D01*
X76347Y-25610D01*
X76230Y-25799D01*
X76109Y-25986D01*
X75983Y-26169D01*
X75853Y-26349D01*
X75718Y-26526D01*
X75580Y-26699D01*
X75437Y-26869D01*
X75289Y-27036D01*
X75138Y-27199D01*
X74983Y-27358D01*
X74824Y-27513D01*
X74661Y-27664D01*
X74494Y-27812D01*
X74324Y-27955D01*
X74151Y-28093D01*
X73974Y-28228D01*
X73794Y-28358D01*
X73611Y-28484D01*
X73424Y-28605D01*
X73235Y-28722D01*
X73043Y-28834D01*
X72848Y-28941D01*
X72651Y-29043D01*
X72452Y-29141D01*
X72249Y-29233D01*
X72045Y-29321D01*
X71839Y-29403D01*
X71631Y-29481D01*
X71420Y-29553D01*
X71209Y-29620D01*
X70995Y-29682D01*
X70780Y-29739D01*
X70564Y-29790D01*
X70347Y-29836D01*
X70128Y-29877D01*
X69909Y-29912D01*
X69688Y-29942D01*
X69468Y-29966D01*
X69246Y-29985D01*
X69024Y-29999D01*
X68802Y-30007D01*
X68580Y-30010D01*
X68358Y-30007D01*
X68136Y-29999D01*
X67914Y-29985D01*
X67692Y-29966D01*
X67472Y-29942D01*
X67251Y-29912D01*
X67032Y-29877D01*
X66813Y-29836D01*
X66596Y-29790D01*
X66380Y-29739D01*
X66165Y-29682D01*
X65951Y-29620D01*
X65740Y-29553D01*
X65529Y-29481D01*
X65321Y-29403D01*
X65115Y-29321D01*
X64911Y-29233D01*
X64708Y-29141D01*
X64509Y-29043D01*
X64312Y-28941D01*
X64117Y-28834D01*
X63925Y-28722D01*
X63736Y-28605D01*
X63549Y-28484D01*
X63366Y-28358D01*
X63186Y-28228D01*
X63009Y-28093D01*
X62836Y-27955D01*
X62666Y-27812D01*
X62499Y-27664D01*
X62336Y-27513D01*
X62177Y-27358D01*
X62022Y-27199D01*
X61871Y-27036D01*
X61723Y-26869D01*
X61580Y-26699D01*
X61442Y-26526D01*
X61307Y-26349D01*
X61177Y-26169D01*
X61051Y-25986D01*
X60930Y-25799D01*
X60813Y-25610D01*
X60701Y-25418D01*
X60594Y-25223D01*
X60492Y-25026D01*
X60394Y-24827D01*
X60302Y-24624D01*
X60214Y-24420D01*
X60132Y-24214D01*
X60054Y-24006D01*
X59982Y-23795D01*
X59915Y-23584D01*
X59853Y-23370D01*
X59796Y-23155D01*
X59745Y-22939D01*
X59699Y-22722D01*
X59658Y-22503D01*
X59623Y-22284D01*
X59593Y-22063D01*
X59569Y-21843D01*
X59550Y-21621D01*
X59536Y-21399D01*
X59528Y-21177D01*
X59525Y-20955D01*
D20*
X68580Y-20955D03*
M02*
